<svg width="24" height="25" viewBox="0 0 24 25" fill="none" xmlns="http://www.w3.org/2000/svg">
<path d="M12.0094 1.54468C9.82213 1.54716 7.72515 2.41715 6.17851 3.96379C4.63187 5.51042 3.76188 7.6074 3.7594 9.79468C3.7594 16.8541 11.2594 22.1884 11.5781 22.4134C11.7059 22.4985 11.8559 22.5439 12.0094 22.5439C12.1629 22.5439 12.3129 22.4985 12.4406 22.4134C12.7594 22.1884 20.2594 16.8541 20.2594 9.79468C20.2569 7.6074 19.3869 5.51042 17.8403 3.96379C16.2937 2.41715 14.1967 1.54716 12.0094 1.54468ZM12.0094 6.79468C12.6027 6.79468 13.1828 6.97062 13.6761 7.30027C14.1695 7.62991 14.554 8.09845 14.781 8.64663C15.0081 9.19481 15.0675 9.79801 14.9518 10.3799C14.836 10.9619 14.5503 11.4964 14.1307 11.916C13.7112 12.3356 13.1766 12.6213 12.5947 12.737C12.0127 12.8528 11.4095 12.7934 10.8613 12.5663C10.3132 12.3393 9.84464 11.9547 9.51499 11.4614C9.18535 10.968 9.0094 10.388 9.0094 9.79468C9.0094 8.99903 9.32547 8.23597 9.88808 7.67336C10.4507 7.11075 11.2138 6.79468 12.0094 6.79468Z" fill="white"/>
</svg>
