<svg width="18" height="22" viewBox="0 0 18 22" fill="none" xmlns="http://www.w3.org/2000/svg">
<path d="M9.00977 0.5C6.82249 0.502481 4.72551 1.37247 3.17888 2.91911C1.63224 4.46575 0.762247 6.56273 0.759766 8.75C0.759766 15.8094 8.25977 21.1437 8.57852 21.3687C8.70626 21.4538 8.8563 21.4992 9.00977 21.4992C9.16323 21.4992 9.31327 21.4538 9.44102 21.3687C9.75977 21.1437 17.2598 15.8094 17.2598 8.75C17.2573 6.56273 16.3873 4.46575 14.8407 2.91911C13.294 1.37247 11.197 0.502481 9.00977 0.5ZM9.00977 5.75C9.60311 5.75 10.1831 5.92595 10.6765 6.25559C11.1698 6.58524 11.5543 7.05377 11.7814 7.60195C12.0085 8.15013 12.0679 8.75333 11.9521 9.33527C11.8364 9.91721 11.5506 10.4518 11.1311 10.8713C10.7115 11.2909 10.177 11.5766 9.59504 11.6924C9.01309 11.8081 8.40989 11.7487 7.86172 11.5216C7.31354 11.2946 6.845 10.9101 6.51536 10.4167C6.18571 9.92336 6.00977 9.34334 6.00977 8.75C6.00977 7.95435 6.32584 7.19129 6.88844 6.62868C7.45105 6.06607 8.21412 5.75 9.00977 5.75Z" fill="#BA291C"/>
</svg>
