<svg width="32" height="32" viewBox="0 0 32 32" fill="none" xmlns="http://www.w3.org/2000/svg">
<rect width="32" height="32" rx="16" transform="matrix(-1 0 0 1 32 0)" fill="#EE3524"/>
<path d="M16.9125 23.2937L23.5125 16.6937C23.6125 16.5937 23.6835 16.4854 23.7255 16.3687C23.7675 16.252 23.7881 16.127 23.7875 15.9937C23.7875 15.8604 23.7665 15.7354 23.7245 15.6187C23.6825 15.502 23.6118 15.3937 23.5125 15.2937L16.9125 8.69371C16.7291 8.51038 16.4998 8.41471 16.2245 8.40671C15.9491 8.39871 15.7118 8.49438 15.5125 8.69371C15.3125 8.87705 15.2081 9.10638 15.1995 9.38171C15.1908 9.65705 15.2868 9.89438 15.4875 10.0937L20.3875 14.9937H9.21246C8.92913 14.9937 8.69146 15.0897 8.49946 15.2817C8.30746 15.4737 8.21179 15.711 8.21246 15.9937C8.21246 16.277 8.30813 16.5147 8.49946 16.7067C8.69079 16.8987 8.92846 16.9944 9.21246 16.9937H20.3875L15.4875 21.8937C15.3041 22.077 15.2081 22.3104 15.1995 22.5937C15.1908 22.877 15.2868 23.1104 15.4875 23.2937C15.6708 23.4937 15.9041 23.5937 16.1875 23.5937C16.4708 23.5937 16.7125 23.4937 16.9125 23.2937Z" fill="white"/>
</svg>
