<svg width="55" height="70" viewBox="0 0 55 70" fill="none" xmlns="http://www.w3.org/2000/svg">
<path d="M44.3366 11.8451C44.219 10.4509 43.8338 9.07069 43.2144 7.82404C42.4793 6.28842 41.2613 5.43579 40.1501 4.38586C38.6909 3.0639 37.0555 2.13104 35.3619 1.65461C34.204 1.12052 33.0203 0.730764 31.8293 0.491459C28.678 -0.0881153 25.5317 -0.155399 22.47 0.291334C16.1653 1.06405 10.0622 2.83852 4.30124 5.57384C-1.45792 8.29631 -6.87269 11.4119 -11.3001 16.6738C-13.2079 18.8996 -14.7603 21.5635 -15.8923 24.5541C-16.813 27.0931 -17.7808 30.2731 -17.1562 33.349C-17.0472 33.9894 -16.8323 34.6104 -16.5259 35.1701C-16.2196 35.7298 -15.8289 36.2152 -15.3801 36.5938C-15.7602 36.9374 -16.1145 37.3216 -16.4396 37.7427C-17.5219 39.0184 -19.1934 40.4974 -19.7886 42.2497C-20.0098 42.7287 -20.0597 43.3226 -19.9276 43.9031C-19.7955 44.4837 -19.492 45.0043 -19.0826 45.3525C-17.9462 46.1419 -16.1819 45.376 -15.163 45.0357C-14.2914 44.5831 -13.3794 44.2341 -12.4378 43.9931C-12.9979 45.7892 -12.9538 47.8773 -12.3146 49.8242C-12.0944 50.4151 -11.7666 50.946 -11.3606 51.3691C-10.9547 51.7922 -10.4834 52.0941 -9.98929 52.2477C-10.1919 53.1458 -10.218 54.1178 -10.0656 55.087C-9.91326 56.0561 -9.58658 56.9959 -9.11137 57.8321C-9.3294 58.2009 -9.45349 58.652 -9.46987 59.1352C-9.52771 60.6215 -9.20694 62.1526 -8.55281 63.5125C-7.27253 66.2831 -5.37808 69.3033 -2.77507 69.7919C0.159489 70.3385 3.44423 69.6929 6.27026 69.1799C9.57846 68.5886 12.81 67.7031 16.0473 66.804C19.2847 65.9049 22.6075 65.3339 25.8176 64.1517C29.0277 62.9696 32.3856 61.6761 35.6094 60.2607C41.6768 57.5781 47.8725 54.209 52.3127 48.4601C53.3646 47.2932 54.1922 45.8426 54.747 44.1935C55.1016 42.3128 55.0832 40.296 54.6934 38.3078C54.0902 34.7065 52.7136 31.8161 50.081 30.3923C50.2672 29.8606 50.4149 29.3041 50.5224 28.7288C50.8287 27.2792 50.8069 25.7027 50.4591 24.1634C50.0471 22.8744 49.4451 21.6686 48.6877 20.6152C49.2607 20.2696 49.7485 19.757 50.1157 19.1148C50.4828 18.4725 50.7201 17.7166 50.8103 16.902C51.0258 12.2996 47.0983 12.014 44.3366 11.8451ZM-14.3527 25.9266C-13.323 23.0852 -11.8916 20.5466 -10.1195 18.4187C-6.20778 13.6067 -1.36803 10.606 3.77857 8.0687C9.31577 5.32486 15.1581 3.40431 21.1987 2.34217C21.9043 2.15675 22.654 2.10482 23.3744 2.01221C24.7999 1.95186 26.239 2.00983 27.6823 2.18577C30.2386 2.3723 32.8061 2.88023 35.3462 3.7019C36.6677 4.14016 37.9376 4.90498 39.0776 5.94922C40.2326 7.06017 41.4712 7.992 42.0675 9.70918C42.4195 10.5446 42.5732 11.4632 42.5084 12.3436C42.4437 13.224 42.1635 14.0249 41.7049 14.6403C40.8567 16.0201 39.827 17.1999 38.6516 18.1387C36.4732 19.7697 34.181 21.1802 31.7935 22.359C27.0411 24.8665 22.1427 27.0095 17.1224 28.7775C12.0227 30.6376 7.00262 32.8031 1.80658 34.5434C-0.681906 35.391 -3.24537 35.9797 -5.85982 36.3042C-7.30124 36.4847 -8.77642 36.4463 -10.2547 36.1898C-11.4471 35.9712 -13.0546 35.9101 -14.1734 35.1523C-16.8249 33.3345 -15.1667 28.2321 -14.3614 25.9289L-14.3527 25.9266ZM-2.69237 56.7134C-0.803442 56.2075 0.90144 55.1167 2.27747 53.5334C2.96145 52.9427 3.55564 52.2117 4.03949 51.3657C4.91106 51.6068 5.79031 51.6267 6.62349 51.4241L6.79771 51.3783C6.25886 52.6265 5.5603 53.7395 4.72598 54.6792C3.13993 56.1783 1.2674 57.1819 -0.762089 57.6206C-2.50424 58.0784 -4.36421 58.9057 -6.26205 58.123C-6.97072 57.9356 -7.62874 57.4183 -8.09881 56.6791C-8.56887 55.9398 -8.81467 55.0358 -8.78486 54.1556C-8.78994 53.5646 -8.79219 52.9486 -8.81161 52.4096C-8.56021 52.4084 -8.31162 52.3834 -8.06787 52.3351C-7.59749 52.2115 -7.15053 52.0336 -6.69757 51.9146C-7.0994 54.8733 -5.29782 57.1442 -2.70109 56.7157L-2.69237 56.7134ZM-6.32879 51.8297C-5.91727 51.7593 -5.48198 51.8563 -5.08382 52.107C-4.26516 52.6415 -3.75126 53.2922 -2.80917 53.4073C-1.80597 53.4819 -0.851744 53.1463 -0.0893955 52.4508C0.328411 52.1178 0.717907 51.7363 1.07479 51.3107C1.32941 51.0019 1.57682 50.3083 1.89228 49.9473C2.1891 50.2402 2.50106 50.5059 2.82526 50.7418C2.65622 50.9849 2.47255 51.2109 2.27553 51.4182C1.41915 52.3391 0.517036 53.1937 -0.426739 53.9781C-2.38561 55.5689 -6.54385 56.577 -6.34341 51.8094L-6.32879 51.8297ZM53.0613 40.2238C53.3219 41.9158 53.0559 43.5858 52.3198 44.8797C51.6043 46.1066 50.8069 47.2498 49.9346 48.2992C46.1152 52.9299 40.8333 55.805 35.799 58.0589C31.0492 60.3598 26.1615 62.2941 21.1605 63.8523C18.6142 64.5819 15.9911 64.9449 13.4626 65.7423C10.934 66.5398 8.59674 67.1782 6.11941 67.6721C4.56846 67.9569 2.99537 68.1322 1.40718 68.1972C0.0239487 68.428 -1.40488 68.3961 -2.83358 68.1027C-4.91409 67.4405 -9.01833 61.7972 -8.16891 58.8417C-7.35093 59.4341 -6.46764 59.8312 -5.56972 60.0102C-4.67181 60.1891 -3.77693 60.1465 -2.93646 59.8846C1.43954 58.8192 6.9997 56.5117 8.48171 50.9116C11.0347 55.1733 16.7221 55.0689 19.9377 53.8007C22.3319 52.8451 26.5818 49.8665 26.6257 45.9983C29.7565 49.3344 34.2059 48.4794 37.4667 46.8487C39.1594 45.9962 40.5331 44.4699 41.4004 42.4782C41.9198 41.257 42.1322 39.8305 42.0131 38.3639C44.1289 39.1619 45.7755 39.5875 47.7956 38.0532C49.3868 36.8371 50.7729 35.1914 49.9352 32.6551C50.6137 33.1757 51.2024 33.8793 51.6517 34.7065C52.4573 36.4237 52.9364 38.3115 53.0466 40.2034L53.0613 40.2238ZM15.9488 50.2791C17.2071 50.8257 18.5233 50.822 19.6689 50.2686C21.1804 49.5329 22.8113 48.0404 23.1262 45.9629C23.9419 45.8116 24.7064 45.4588 25.3778 44.9239C25.3955 45.9673 25.141 46.9464 24.6527 47.7137C24.1611 48.5103 23.5738 49.2018 22.9077 49.7681C21.6184 50.9651 20.1567 51.8677 18.5783 52.4412C15.6465 53.4414 11.4013 52.937 8.56746 50.5263C8.83477 50.3338 9.08933 50.1175 9.32946 49.8788C9.67315 49.4852 9.98289 49.0477 10.2547 48.5717C10.6738 47.9297 10.7165 47.7008 11.4556 47.9297C12.2804 48.2635 13.1199 48.4926 13.9605 48.6134C14.5402 49.3095 15.2113 49.869 15.9342 50.2588L15.9488 50.2791ZM14.9397 48.5495C15.8419 48.3817 16.6886 47.9951 17.435 47.4101C18.3073 46.7215 18.8108 45.3319 19.9886 45.5301C20.7012 45.6572 21.292 45.8888 21.9231 45.9889C21.859 46.2408 21.767 46.4764 21.6495 46.6895C20.9078 47.9278 19.879 48.8383 18.6773 49.3203C17.9965 49.502 17.2764 49.5064 16.5586 49.333C15.9933 49.1776 15.4411 48.9059 14.9251 48.5292L14.9397 48.5495ZM26.2549 43.968C26.5169 43.6193 26.7508 43.2382 26.954 42.8291C27.2743 42.2009 27.2647 41.9496 27.7622 42.0728C28.8523 42.9348 29.8185 44.0712 31.0868 44.3665C33.5171 44.4913 35.8181 43.641 37.6579 41.9384C37.937 41.5743 38.1213 41.1078 38.1906 40.5895C38.2125 40.1913 38.21 39.7878 38.1833 39.3824C38.8096 39.3104 39.4128 39.1234 39.9745 38.8271C40.2587 38.6678 40.5371 38.4858 40.8125 38.2925C40.7803 39.0264 40.7583 40.1565 40.7669 40.118C40.5727 41.3072 40.1096 42.3625 39.4295 43.1654C38.4647 44.5374 37.1855 45.5045 35.7283 45.9636C32.7296 46.9209 29.5176 47.5958 26.5761 45.1651C26.5116 44.7804 26.4126 44.4007 26.2813 44.0336L26.2549 43.968ZM28.9433 42.391C29.8273 42.6455 30.7206 42.6627 31.5625 42.4415C32.4043 42.2203 33.1748 41.7658 33.8213 41.1091C34.8231 40.06 35.1419 39.0332 36.7474 39.3367L37.23 39.4032C37.2318 39.4893 37.2292 39.5748 37.2223 39.6592C37.0769 41.2086 36.3309 41.4893 35.3098 41.9994C34.2332 42.6217 33.0623 43.0111 31.8409 43.1528C30.8611 43.092 29.8756 42.8237 28.9258 42.3593L28.9433 42.391ZM41.9063 37.7754C41.8826 37.6489 41.85 37.5239 41.809 37.402C41.9959 37.1945 42.1707 36.9709 42.3326 36.7325C42.8732 35.9496 43.197 34.6918 44.1582 34.4876C44.7157 34.341 45.3851 34.5883 46.0124 34.4597C47.0408 34.2737 47.974 33.7318 48.7125 32.8918C49.018 35.3503 47.7328 36.7761 46.0706 37.6481C44.7618 38.1786 43.3123 38.2118 41.8887 37.7437L41.9063 37.7754ZM49.1301 25.5282C49.2489 27.6018 48.7691 29.5649 47.7786 31.0578C46.5649 32.9363 45.0575 32.4378 43.3293 32.7348C42.2139 32.9191 41.8142 34.0639 41.1259 34.9943C40.646 35.7467 40.0362 36.3488 39.3334 36.7642C38.6306 37.1795 37.8493 37.3995 37.0367 37.4109C35.7111 37.3241 34.8211 36.3732 33.8668 37.6757C32.7853 39.1689 31.8744 40.4238 30.032 40.497C28.951 40.5272 27.8161 39.3505 26.8115 39.6387C25.6269 39.95 25.1846 42.1819 24.2284 42.9772C22.7912 44.177 21.4882 43.927 19.7918 43.3815C19.4318 43.223 19.0551 43.2089 18.7175 43.3412C18.3798 43.4734 18.0992 43.7451 17.917 44.116C16.976 45.6493 15.581 46.6337 13.9861 46.8899C13.1507 46.9709 12.2856 46.7826 11.4701 46.3422C11.1474 46.1609 10.8053 46.069 10.4693 46.0732C9.50189 46.1824 9.18707 47.5104 8.50641 48.1487C7.35676 49.1701 5.92721 49.656 4.42804 49.5348C4.34569 49.4413 4.24562 49.3782 4.14117 49.3538C4.03672 49.3294 3.93285 49.3449 3.84336 49.3983C2.98744 49.0066 2.42207 47.8012 1.51589 47.9668C0.348246 48.1648 -0.365129 50.1778 -1.32747 50.8781C-1.73716 51.2193 -2.23305 51.3894 -2.75446 51.3675C-3.27588 51.3457 -3.80023 51.1328 -4.2634 50.755C-4.69177 50.397 -5.15829 50.1307 -5.641 49.9685C-6.74337 49.7383 -7.72329 50.4069 -8.76321 50.5593C-9.08306 50.6344 -9.42138 50.6164 -9.75368 50.5067C-10.086 50.397 -10.4039 50.1982 -10.6845 49.9248C-10.9651 49.6514 -11.2013 49.3102 -11.376 48.9259C-11.5507 48.5416 -11.6595 48.1238 -11.6946 47.7028C-11.8609 46.743 -12.1207 44.8528 -11.647 44.0634C-10.8408 44.3714 -10.3291 45.192 -9.574 45.8398C-8.98303 46.3633 -8.31359 46.7036 -7.62938 46.8285C-6.94518 46.9535 -6.26898 46.8588 -5.66519 46.5535C-4.2776 45.9009 -3.03719 44.9019 -2.01106 43.6105C-1.39137 42.8748 -0.710716 42.2224 0.0220776 41.6617C1.48885 40.6113 2.52136 41.6093 4.05738 42.0036C5.50414 42.3662 6.94773 42.1561 8.18226 41.4032C9.98875 40.2635 11.3838 37.9021 13.4544 37.4546C15.0401 37.1105 16.7458 37.7987 18.3227 37.4568C20.1535 37.0126 21.8041 35.9714 23.1187 34.4313C23.776 33.626 24.5543 32.988 25.4194 32.5452C26.5219 32.1929 27.6601 31.9707 28.8204 31.8811C30.5056 31.7776 32.1265 31.3025 33.6108 30.4771C35.1908 29.397 36.3748 27.3328 38.1798 26.5804C39.0214 26.2383 39.9058 26.4895 40.7419 26.2335C41.5259 25.9379 42.2227 25.4116 42.7795 24.6946C43.6281 23.6112 44.641 22.7477 45.7724 22.143C46.3584 21.856 46.965 21.612 47.5481 21.3137C48.0967 22.7049 48.9319 23.8031 49.1096 25.4852L49.1301 25.5282ZM47.1919 19.3036C45.8756 20.1815 44.3275 20.4553 43.093 21.4326C41.8585 22.4099 41.0739 24.0427 39.3831 24.2331C38.0884 24.2801 36.8634 24.7307 35.816 25.5453C34.654 26.4794 33.7376 27.8204 32.5404 28.6911C29.8823 30.5986 26.1934 29.6216 23.5764 31.6513C22.5302 32.4582 21.7061 33.6177 20.6336 34.3953C19.1517 35.475 17.3742 35.8914 15.5547 35.5849C14.3152 35.3165 13.0772 35.3701 11.9194 35.7424C10.5677 36.5193 9.31223 37.5024 8.17801 38.672C7.57952 39.2363 6.8814 39.6294 6.12455 39.8283C5.3677 40.0272 4.56735 40.0279 3.77037 39.8304C2.34183 39.42 1.31934 38.7819 -0.0470524 39.4674C-2.63483 40.752 -4.08222 44.6988 -7.03662 45.0763C-8.83479 45.3191 -9.63948 43.0522 -11.2316 42.4067C-12.4914 42.0633 -13.7537 42.2462 -14.8191 42.9264C-15.6673 43.379 -16.5941 43.6225 -17.5543 43.6452C-18.0922 43.581 -18.7077 44.5407 -18.0795 42.3083C-17.868 41.877 -17.6042 41.4941 -17.296 41.1715C-16.819 40.4658 -16.3539 39.7149 -15.8359 39.0952C-15.3955 38.3847 -14.8761 37.7606 -14.2907 37.2384C-13.525 37.5905 -12.7417 37.8426 -11.9541 37.9905C-8.94583 38.6463 -5.93405 38.6997 -3.03385 38.1488C3.02788 37.0877 8.89506 34.494 14.5419 32.055C20.6385 29.4131 26.8587 27.1739 32.741 23.9597C35.3522 22.7143 37.8489 21.1848 40.2053 19.3867C41.7322 18.1029 43.6373 16.1273 44.2388 13.7206C45.4245 13.7575 46.6203 13.9708 47.8015 14.3559C50.512 15.6142 48.4732 18.3987 47.1714 19.2607L47.1919 19.3036Z" fill="#EE3524"/>
<path d="M21.9651 37.4727C21.3299 38.6644 21.0053 40.6853 20.0592 41.3731C19.7384 41.692 19.3384 41.8251 18.9076 41.7565C18.4768 41.6878 18.0337 41.4202 17.632 40.9862C17.354 40.7177 17.1395 40.221 16.8361 40.073C16.7191 39.9893 16.5987 39.9428 16.4829 39.9368C16.3672 39.9307 16.2588 39.9653 16.165 40.038C15.8139 40.4998 15.5019 41.0285 15.2334 41.6166C14.9025 42.1022 14.4538 42.3669 13.9482 42.3746C13.4426 42.3823 12.9047 42.1327 12.4076 41.6598C12.1937 41.4557 12.0322 41.8885 12.2403 42.1429C12.716 42.8046 13.2688 43.2778 13.8316 43.5052C14.3944 43.7326 14.9431 43.7045 15.4112 43.4242C15.7885 43.0753 16.0951 42.5854 16.3126 41.9837C16.7146 41.2762 16.1436 40.6455 17.328 41.9608C17.4857 42.1308 17.5956 42.4435 17.7671 42.5936C20.318 44.8349 22.9374 41.9668 22.6194 37.9514C22.6222 37.3813 22.1238 37.1382 21.9651 37.4727Z" fill="#EE3524"/>
<path d="M35.7956 31.899C35.3265 33.2112 33.7631 33.0514 32.8873 33.8522C32.0116 34.653 30.6679 37.0153 29.2931 35.201C29.0324 34.8652 28.6389 35.3134 28.8712 35.6804C30.2018 37.7797 31.8499 37.1802 33.0095 35.6153C33.2076 35.2332 33.4699 34.9154 33.7812 34.6804C34.0925 34.4455 34.4463 34.2982 34.8219 34.2473C35.275 34.259 35.7118 34.1442 36.1012 33.9111C36.3809 33.7715 36.5974 33.5009 36.7104 33.1498C36.8234 32.7987 36.8252 32.3908 36.7155 32.0021C36.5934 31.4635 35.9587 31.4757 35.7956 31.899Z" fill="#EE3524"/>
</svg>
