<svg width="40" height="44" viewBox="0 0 40 44" fill="none" xmlns="http://www.w3.org/2000/svg">
<path d="M22.1367 38.534C23.001 38.3348 24.2711 36.9445 24.7897 35.509C25.2068 34.3103 25.5638 33.1454 25.8531 32.0369C25.2143 32.0068 24.5755 31.973 23.9367 31.943C23.5346 34.0473 22.9221 36.2831 22.1367 38.534Z" fill="#151515"/>
<path d="M19.9685 31.7851C19.8445 33.2093 19.6529 34.6598 19.3936 36.1065C19.1268 37.7186 19.8407 38.8985 20.8065 38.7444C20.9455 38.7256 21.0883 38.7069 21.2274 38.6805C21.9563 36.3883 22.5125 34.0811 22.862 31.8903C21.8962 31.849 20.9305 31.8152 19.9685 31.7814V31.7851Z" fill="#151515"/>
<path d="M3.95312 14.9656H0.710209C0.319406 14.9656 0 15.285 0 15.6758V15.6908C0 16.0816 0.319406 16.401 0.710209 16.401H3.6976L3.95312 14.9656Z" fill="#151515"/>
<path d="M39.8431 15.7322L16.2108 13.6955C16.4138 13.0228 16.6355 12.354 16.8872 11.6964C15.7336 11.5648 14.58 11.4296 13.4264 11.298C13.5804 10.9411 13.742 10.5878 13.9074 10.2421C15.0347 10.3962 16.162 10.554 17.2893 10.7081C17.6726 9.81375 18.0972 8.93444 18.5669 8.07768C17.1803 7.79961 15.7937 7.52154 14.4109 7.23971C14.6025 6.78502 14.8167 6.15373 14.9595 5.64268C15.1436 4.91744 14.9971 2.88451 15.9553 0.735092C15.8501 0.716304 13.5391 4.15838 13.4639 5.26315C13.3775 5.54497 13.5316 6.44683 13.7157 7.10067L13.0281 6.96164C11.9796 8.95323 11.1529 11.05 10.5404 13.207L7.17352 12.9176C7.17352 12.9176 7.16976 12.9176 7.16601 12.9176L4.79489 12.88C4.74979 12.88 4.71222 12.9101 4.7047 12.9552L4.69718 13.0003L3.64127 18.9074C3.62999 18.9638 3.67508 19.0126 3.73145 19.0126L6.15518 18.9713C6.15518 18.9713 6.15894 18.9713 6.1627 18.9713L39.8394 16.0854C40.0536 16.0666 40.0536 15.7509 39.8394 15.7322H39.8431Z" fill="#151515"/>
<path d="M24.1584 30.6691C24.816 30.733 25.4774 30.8044 26.135 30.872C26.3417 29.9626 26.5033 29.0946 26.6273 28.2679C25.9171 28.0913 25.2068 27.926 24.5004 27.7681C24.429 28.6963 24.3163 29.6658 24.1584 30.6653V30.6691Z" fill="#151515"/>
<path d="M33.9247 21.2974C33.6504 20.869 33.2183 20.512 32.711 20.3316C32.711 20.3316 28.089 18.3363 26.6686 17.8403C26.507 17.7839 26.3529 17.735 26.2064 17.6899L19.8633 18.2123C19.8596 18.4828 19.9122 18.7496 20.0362 19.0051C20.3443 19.922 20.1602 23.0748 16.4325 22.4172C16.41 22.4134 16.3912 22.4172 16.3724 22.4096C15.8013 22.2856 15.2038 22.218 14.5762 22.218C14.4034 22.218 14.2268 22.2218 14.0539 22.233C14.0426 21.0381 14.114 19.8506 14.2493 18.6707L8.22569 19.1667C8.07538 20.899 8.06035 22.6464 8.18811 24.3975C5.47503 26.3214 3.3632 29.3389 2.66426 32.7396C2.28849 34.5621 2.37116 36.2794 2.82208 37.775C2.84839 37.3804 2.89348 36.9783 2.97991 36.565C3.78782 32.6156 7.09085 29.4178 10.3488 29.4178C13.6105 29.4178 15.5983 32.6194 14.7867 36.5687C14.1629 39.6162 12.051 42.2128 9.6198 43.2387C9.83023 43.2537 10.0444 43.265 10.2624 43.265C13.6781 43.265 17.0676 41.3711 19.4011 38.5077C18.9728 38.053 18.7473 37.2075 18.9051 36.1967C19.3899 33.3484 19.589 30.4775 19.5289 27.8433C19.7281 27.8659 19.931 27.8959 20.1339 27.9222C20.1339 28.7151 20.1189 29.5192 20.07 30.3459C21.0621 30.4061 22.0579 30.4812 23.0537 30.5677C23.1852 29.5192 23.2716 28.5047 23.3167 27.5277C23.0386 27.4713 22.7605 27.4262 22.4825 27.3773C23.3618 25.1528 26.4619 21.876 30.4 24.9536C30.5954 25.1152 30.896 25.1265 31.114 24.9762C32.0083 24.3637 33.3874 23.3566 33.3874 23.3566C34.0863 22.9019 34.3494 22.0339 33.9623 21.3612C33.951 21.3424 33.9398 21.3237 33.9285 21.3011L33.9247 21.2974Z" fill="#151515"/>
</svg>
