<svg width="41" height="42" viewBox="0 0 41 42" fill="none" xmlns="http://www.w3.org/2000/svg">
<mask id="path-1-inside-1_77_937" fill="white">
<path fill-rule="evenodd" clip-rule="evenodd" d="M23.3357 15.3101L20.5 0L17.6714 15.2722L11.0716 11.1449L15.1307 17.6976L0 20.5L15.2486 23.3242L11.0314 30.0679L17.7091 25.9313L20.5 41L23.2893 25.9401L29.9543 30.1082L25.7519 23.3242L41 20.5L25.9165 17.7063L29.9946 11.1852L23.3357 15.3101Z"/>
</mask>
<path d="M20.5 0L30.3328 -1.82117L10.6672 -1.82117L20.5 0ZM23.3357 15.3101L13.5029 17.1313L16.1668 31.5141L28.6017 23.8112L23.3357 15.3101ZM17.6714 15.2722L12.3692 23.7508L24.828 31.5421L27.5041 17.0933L17.6714 15.2722ZM11.0716 11.1449L16.3738 2.66634L2.57053 16.411L11.0716 11.1449ZM15.1307 17.6976L16.9519 27.5304L31.3347 24.8665L23.6318 12.4315L15.1307 17.6976ZM0 20.5L-1.82117 10.6672L-1.82117 30.3328L0 20.5ZM15.2486 23.3242L23.7272 28.6264L31.5185 16.1676L17.0697 13.4915L15.2486 23.3242ZM11.0314 30.0679L2.55275 24.7657L16.2974 38.569L11.0314 30.0679ZM17.7091 25.9313L27.5418 24.1102L24.8779 9.72735L12.443 17.4302L17.7091 25.9313ZM20.5 41L10.6672 42.8212H30.3328L20.5 41ZM23.2893 25.9401L28.5915 17.4615L16.1326 9.67023L13.4565 24.119L23.2893 25.9401ZM29.9543 30.1082L24.6521 38.5868L38.4554 24.8421L29.9543 30.1082ZM25.7519 23.3242L23.9307 13.4914L9.54792 16.1553L17.2508 28.5902L25.7519 23.3242ZM41 20.5L42.8212 30.3328V10.6672L41 20.5ZM25.9165 17.7063L17.4379 12.4041L9.64663 24.863L24.0954 27.5391L25.9165 17.7063ZM29.9946 11.1852L38.4732 16.4874L24.7285 2.68412L29.9946 11.1852ZM10.6672 1.82117L13.5029 17.1313L33.1684 13.489L30.3328 -1.82117L10.6672 1.82117ZM27.5041 17.0933L30.3328 1.82117L10.6672 -1.82117L7.83861 13.451L27.5041 17.0933ZM5.76943 19.6235L12.3692 23.7508L22.9736 6.79357L16.3738 2.66634L5.76943 19.6235ZM23.6318 12.4315L19.5727 5.87888L2.57053 16.411L6.6296 22.9636L23.6318 12.4315ZM1.82117 30.3328L16.9519 27.5304L13.3095 7.86481L-1.82117 10.6672L1.82117 30.3328ZM17.0697 13.4915L1.82117 10.6672L-1.82117 30.3328L13.4274 33.157L17.0697 13.4915ZM19.51 35.3701L23.7272 28.6264L6.76996 18.0221L2.55275 24.7657L19.51 35.3701ZM12.443 17.4302L5.76529 21.5668L16.2974 38.569L22.9751 34.4324L12.443 17.4302ZM30.3328 39.1788L27.5418 24.1102L7.8763 27.7525L10.6672 42.8212L30.3328 39.1788ZM13.4565 24.119L10.6672 39.1788L30.3328 42.8212L33.1221 27.7613L13.4565 24.119ZM35.2565 21.6296L28.5915 17.4615L17.9871 34.4187L24.6521 38.5868L35.2565 21.6296ZM17.2508 28.5902L21.4532 35.3742L38.4554 24.8421L34.253 18.0581L17.2508 28.5902ZM39.1788 10.6672L23.9307 13.4914L27.5731 33.1569L42.8212 30.3328L39.1788 10.6672ZM24.0954 27.5391L39.1788 30.3328L42.8212 10.6672L27.7377 7.87356L24.0954 27.5391ZM21.516 5.88302L17.4379 12.4041L34.3951 23.0085L38.4732 16.4874L21.516 5.88302ZM28.6017 23.8112L35.2606 19.6863L24.7285 2.68412L18.0696 6.80903L28.6017 23.8112Z" fill="#EE3524" mask="url(#path-1-inside-1_77_937)"/>
</svg>
