<svg width="61" height="60" viewBox="0 0 61 60" fill="none" xmlns="http://www.w3.org/2000/svg">
<path d="M13.625 24.375C14.1223 24.375 14.5992 24.5725 14.9508 24.9242C15.3025 25.2758 15.5 25.7527 15.5 26.25V30C15.5 33.9782 17.0804 37.7936 19.8934 40.6066C22.7064 43.4196 26.5218 45 30.5 45C34.4782 45 38.2936 43.4196 41.1066 40.6066C43.9196 37.7936 45.5 33.9782 45.5 30V26.25C45.5 25.7527 45.6975 25.2758 46.0492 24.9242C46.4008 24.5725 46.8777 24.375 47.375 24.375C47.8723 24.375 48.3492 24.5725 48.7008 24.9242C49.0525 25.2758 49.25 25.7527 49.25 26.25V30C49.2501 34.6482 47.5236 39.1308 44.4055 42.578C41.2873 46.0253 36.9999 48.1914 32.375 48.6563V56.25H43.625C44.1223 56.25 44.5992 56.4475 44.9508 56.7992C45.3025 57.1508 45.5 57.6277 45.5 58.125C45.5 58.6223 45.3025 59.0992 44.9508 59.4508C44.5992 59.8025 44.1223 60 43.625 60H17.375C16.8777 60 16.4008 59.8025 16.0492 59.4508C15.6975 59.0992 15.5 58.6223 15.5 58.125C15.5 57.6277 15.6975 57.1508 16.0492 56.7992C16.4008 56.4475 16.8777 56.25 17.375 56.25H28.625V48.6563C24.0001 48.1914 19.7127 46.0253 16.5945 42.578C13.4764 39.1308 11.7499 34.6482 11.75 30V26.25C11.75 25.7527 11.9475 25.2758 12.2992 24.9242C12.6508 24.5725 13.1277 24.375 13.625 24.375Z" fill="black"/>
<path d="M38 30C38 31.9891 37.2098 33.8968 35.8033 35.3033C34.3968 36.7098 32.4891 37.5 30.5 37.5C28.5109 37.5 26.6032 36.7098 25.1967 35.3033C23.7902 33.8968 23 31.9891 23 30V11.25C23 9.26088 23.7902 7.35322 25.1967 5.9467C26.6032 4.54018 28.5109 3.75 30.5 3.75C32.4891 3.75 34.3968 4.54018 35.8033 5.9467C37.2098 7.35322 38 9.26088 38 11.25V30ZM30.5 0C27.5163 0 24.6548 1.18526 22.545 3.29505C20.4353 5.40483 19.25 8.26631 19.25 11.25V30C19.25 32.9837 20.4353 35.8452 22.545 37.955C24.6548 40.0647 27.5163 41.25 30.5 41.25C33.4837 41.25 36.3452 40.0647 38.455 37.955C40.5647 35.8452 41.75 32.9837 41.75 30V11.25C41.75 8.26631 40.5647 5.40483 38.455 3.29505C36.3452 1.18526 33.4837 0 30.5 0Z" fill="black"/>
</svg>
