<svg width="24" height="25" viewBox="0 0 24 25" fill="none" xmlns="http://www.w3.org/2000/svg">
<path d="M6.62 10.8349C8.06 13.6649 10.38 15.9749 13.21 17.4249L15.41 15.2249C15.68 14.9549 16.08 14.8649 16.43 14.9849C17.55 15.3549 18.76 15.5549 20 15.5549C20.55 15.5549 21 16.0049 21 16.5549V20.0449C21 20.5949 20.55 21.0449 20 21.0449C10.61 21.0449 3 13.4349 3 4.04492C3 3.49492 3.45 3.04492 4 3.04492H7.5C8.05 3.04492 8.5 3.49492 8.5 4.04492C8.5 5.29492 8.7 6.49492 9.07 7.61492C9.18 7.96492 9.1 8.35492 8.82 8.63492L6.62 10.8349Z" fill="white"/>
</svg>
