<svg width="60" height="60" viewBox="0 0 60 60" fill="none" xmlns="http://www.w3.org/2000/svg">
<path d="M38.75 2.5H18.75C17.0924 2.5 15.5027 3.15848 14.3306 4.33058C13.1585 5.50269 12.5 7.0924 12.5 8.75V51.25C12.5 52.9076 13.1585 54.4973 14.3306 55.6694C15.5027 56.8415 17.0924 57.5 18.75 57.5H38.75C40.4076 57.5 41.9973 56.8415 43.1694 55.6694C44.3415 54.4973 45 52.9076 45 51.25V8.75C45 7.0924 44.3415 5.50269 43.1694 4.33058C41.9973 3.15848 40.4076 2.5 38.75 2.5ZM28.75 55C26.675 55 25 53.325 25 51.25C25 49.175 26.675 47.5 28.75 47.5C30.825 47.5 32.5 49.175 32.5 51.25C32.5 53.325 30.825 55 28.75 55ZM40 45H17.5V10H40V45Z" fill="#EE3524"/>
</svg>
