<svg width="60" height="74" viewBox="0 0 60 74" fill="none" xmlns="http://www.w3.org/2000/svg">
<path d="M1.08475 14.9716C8.59138 11.5404 16.6313 11.1375 22.9697 11.9762C28.8516 12.8049 33.7553 14.8544 37.5078 17.7737C41.2602 20.693 43.952 24.4373 45.3782 28.7046C47.0465 33.6922 47.15 39.2832 46.2844 45.0831C45.4 50.9594 43.5332 57.0177 41.1779 63.1153C40.8728 63.8701 40.581 64.652 40.2759 65.4069C39.8183 66.5392 37.5332 66.8259 37.9908 65.6936C40.4127 59.7311 42.4049 53.8125 43.5507 48.0088C44.6458 42.3309 44.9079 36.7949 43.696 31.8174C42.6996 27.5061 40.515 23.6462 37.1391 20.5749C33.9073 17.5669 29.575 15.3029 24.2112 14.1517C21.5587 13.5784 18.6682 13.3239 15.5986 13.3928C12.1313 13.4562 8.31657 13.9595 4.59442 15.2231C3.63317 15.5626 2.73063 15.9067 1.80933 16.3272C0.2712 16.9845 -0.394662 15.6336 1.08475 14.9716Z" fill="black"/>
<path d="M31.7546 54.296C33.3345 57.0435 34.9277 59.818 36.5076 62.5655C37.1177 63.5745 37.7945 64.7186 39.4973 64.8532C41.0106 64.9469 42.8423 64.3128 44.4046 63.4756C46.7708 62.2086 48.6359 60.3826 50.3592 58.7272C51.4306 57.6954 53.1837 58.2754 52.0668 59.3296C48.8072 62.4475 44.6341 66.1163 39.7303 66.5854C37.3599 66.8134 35.898 66.0227 34.9598 64.806C33.9361 63.5307 33.2491 62.0222 32.4392 60.6079C31.4241 58.8918 30.4676 57.1803 29.4525 55.4642C29.013 54.5725 31.283 53.4537 31.7546 54.296Z" fill="black"/>
</svg>
