<svg width="24" height="25" viewBox="0 0 24 25" fill="none" xmlns="http://www.w3.org/2000/svg">
<path d="M16.36 14.0447C16.44 13.3847 16.5 12.7247 16.5 12.0447C16.5 11.3647 16.44 10.7047 16.36 10.0447H19.74C19.9 10.6847 20 11.3547 20 12.0447C20 12.7347 19.9 13.4047 19.74 14.0447M14.59 19.6047C15.19 18.4947 15.65 17.2947 15.97 16.0447H18.92C17.9512 17.713 16.4141 18.9767 14.59 19.6047ZM14.34 14.0447H9.66C9.56 13.3847 9.5 12.7247 9.5 12.0447C9.5 11.3647 9.56 10.6947 9.66 10.0447H14.34C14.43 10.6947 14.5 11.3647 14.5 12.0447C14.5 12.7247 14.43 13.3847 14.34 14.0447ZM12 20.0047C11.17 18.8047 10.5 17.4747 10.09 16.0447H13.91C13.5 17.4747 12.83 18.8047 12 20.0047ZM8 8.04468H5.08C6.03886 6.37189 7.5748 5.10616 9.4 4.48468C8.8 5.59468 8.35 6.79468 8 8.04468ZM5.08 16.0447H8C8.35 17.2947 8.8 18.4947 9.4 19.6047C7.57862 18.9763 6.04485 17.7124 5.08 16.0447ZM4.26 14.0447C4.1 13.4047 4 12.7347 4 12.0447C4 11.3547 4.1 10.6847 4.26 10.0447H7.64C7.56 10.7047 7.5 11.3647 7.5 12.0447C7.5 12.7247 7.56 13.3847 7.64 14.0447M12 4.07468C12.83 5.27468 13.5 6.61468 13.91 8.04468H10.09C10.5 6.61468 11.17 5.27468 12 4.07468ZM18.92 8.04468H15.97C15.657 6.80614 15.1936 5.61057 14.59 4.48468C16.43 5.11468 17.96 6.38468 18.92 8.04468ZM12 2.04468C6.47 2.04468 2 6.54468 2 12.0447C2 14.6968 3.05357 17.2404 4.92893 19.1157C5.85752 20.0443 6.95991 20.7809 8.17317 21.2835C9.38642 21.786 10.6868 22.0447 12 22.0447C14.6522 22.0447 17.1957 20.9911 19.0711 19.1157C20.9464 17.2404 22 14.6968 22 12.0447C22 10.7315 21.7413 9.4311 21.2388 8.21784C20.7362 7.00459 19.9997 5.9022 19.0711 4.97361C18.1425 4.04502 17.0401 3.30843 15.8268 2.80588C14.6136 2.30334 13.3132 2.04468 12 2.04468Z" fill="white"/>
</svg>
