<svg width="71" height="17" viewBox="0 0 71 17" fill="none" xmlns="http://www.w3.org/2000/svg">
<path d="M1 14.7612C2.47303 14.4995 3.82065 13.8698 5.09881 13.0849C8.90037 10.7497 11.6519 6.82428 12.7173 2.38931C12.9128 3.05275 13.5787 4.87442 13.8251 5.40816C14.7289 7.36482 15.7292 9.21648 17.4417 10.5461C24.6876 16.1728 31.9591 7.80866 33.5949 1C33.6675 1.5427 34.6708 5.07462 34.9139 5.65595C36.1738 8.66876 38.2892 11.8591 41.47 12.8816C48.0381 14.9932 52.8648 8.78661 54.3697 2.9967C54.3697 2.9967 54.6336 4.09515 54.8062 4.63154C55.099 5.5415 55.4343 6.43182 55.8694 7.28096C57.1439 9.7691 59.082 12.0593 61.6884 13.0675C67.8141 15.437 74.7427 10.4456 75.7667 4.10384C75.7667 4.10384 75.9528 4.97679 76.1126 5.39003C76.559 6.54514 77.1403 7.64812 77.7977 8.68916C79.3427 11.1376 81.4325 13.3466 84.0521 14.538C89.3651 16.9544 99.08 12.5281 98.7707 5.54414C98.7688 5.54376 99.171 6.5187 99.2013 6.5746C99.5695 7.2447 100.005 7.88005 100.441 8.50331C101.501 10.0158 102.641 11.4451 104.024 12.6565C108.963 16.9846 113.29 16.5302 119 14.5486" stroke="#BA291C" stroke-miterlimit="1.5" stroke-linecap="round" stroke-linejoin="round"/>
</svg>
