<svg width="141" height="24" viewBox="0 0 141 24" fill="none" xmlns="http://www.w3.org/2000/svg">
<path d="M1 19.6813C3.41227 19.3096 5.7074 18.1418 7.90637 16.873C14.1272 13.2835 18.9357 7.53667 23.3078 1C23.3115 0.99527 24.9322 4.40878 25.0924 4.69443C26.6441 7.45223 28.697 9.77211 31.0014 11.4591C39.7356 17.8522 50.9529 13.4208 55.2214 1.96583C55.2214 3.05402 56.7867 5.85674 57.1195 6.3436C59.7205 10.1461 62.8793 13.738 66.6305 15.5142C75.6914 19.8059 87.6665 14.0078 92.1797 2.99162C92.2449 4.82514 93.7788 7.80653 93.9335 8.05272C96.3723 11.9436 99.8659 15.0084 103.685 16.1044C112.772 18.7139 122.597 12.9442 126.885 2.34773C127.543 4.98958 128.879 7.68659 129.253 8.22C132.039 12.2009 135.502 15.4187 139.5 17.0576C149.34 21.0905 162.826 13.7146 166.744 4.83567C166.588 5.5758 166.89 7.13739 166.941 7.26601C167.541 8.72895 168.359 10.0215 169.252 11.2074C171.642 14.3826 174.564 16.9156 177.606 18.9514C186.589 24.9633 200.291 25.4036 206 12.4699" stroke="#BA291C" stroke-miterlimit="1.5" stroke-linecap="round" stroke-linejoin="round"/>
</svg>
