<svg width="53" height="52" viewBox="0 0 53 52" fill="none" xmlns="http://www.w3.org/2000/svg">
<rect x="4.91666" y="4.25" width="47.5" height="47.5" rx="23.75" fill="#4474EF"/>
<path d="M35.6667 18H21.6667C21.4014 18 21.1471 17.8946 20.9595 17.7071C20.772 17.5196 20.6667 17.2652 20.6667 17C20.6667 16.7348 20.772 16.4804 20.9595 16.2929C21.1471 16.1054 21.4014 16 21.6667 16H35.6667C35.9319 16 36.1862 16.1054 36.3738 16.2929C36.5613 16.4804 36.6667 16.7348 36.6667 17C36.6667 17.2652 36.5613 17.5196 36.3738 17.7071C36.1862 17.8946 35.9319 18 35.6667 18Z" fill="white"/>
<path d="M37.6667 21H19.6667C19.4014 21 19.1471 20.8946 18.9595 20.7071C18.772 20.5196 18.6667 20.2652 18.6667 20C18.6667 19.7348 18.772 19.4804 18.9595 19.2929C19.1471 19.1054 19.4014 19 19.6667 19H37.6667C37.9319 19 38.1862 19.1054 38.3738 19.2929C38.5613 19.4804 38.6667 19.7348 38.6667 20C38.6667 20.2652 38.5613 20.5196 38.3738 20.7071C38.1862 20.8946 37.9319 21 37.6667 21Z" fill="white"/>
<path d="M38.8623 40H18.471C17.7275 39.9992 17.0147 39.7034 16.489 39.1777C15.9632 38.652 15.6675 37.9391 15.6667 37.1956V24.8044C15.6675 24.0609 15.9632 23.348 16.489 22.8223C17.0147 22.2966 17.7275 22.0008 18.471 22H38.8623C39.6058 22.0008 40.3186 22.2966 40.8444 22.8223C41.3701 23.348 41.6658 24.0609 41.6667 24.8044V37.1956C41.6658 37.9391 41.3701 38.652 40.8444 39.1777C40.3186 39.7034 39.6058 39.9992 38.8623 40Z" fill="white"/>
<rect x="4.91666" y="4.25" width="47.5" height="47.5" rx="23.75" stroke="#4474EF" stroke-width="0.5"/>
<rect x="1.16666" y="0.5" width="51" height="51" rx="25.5" stroke="#4474EF" stroke-dasharray="4 2"/>
</svg>
