<svg width="42" height="42" viewBox="0 0 42 42" fill="none" xmlns="http://www.w3.org/2000/svg">
<rect x="0.5" y="0.5" width="41" height="41" rx="20.5" fill="white"/>
<path d="M29.3639 21.707C29.5513 21.5194 29.6566 21.2651 29.6566 21C29.6566 20.7348 29.5513 20.4805 29.3639 20.293L23.7069 14.636C23.6146 14.5405 23.5043 14.4643 23.3823 14.4119C23.2603 14.3595 23.129 14.3319 22.9963 14.3307C22.8635 14.3296 22.7318 14.3549 22.6089 14.4052C22.486 14.4554 22.3744 14.5297 22.2805 14.6236C22.1866 14.7175 22.1123 14.8291 22.062 14.952C22.0118 15.0749 21.9865 15.2066 21.9876 15.3394C21.9888 15.4722 22.0163 15.6034 22.0688 15.7254C22.1212 15.8474 22.1974 15.9577 22.2929 16.05L26.2429 20H12.9999C12.7346 20 12.4803 20.1053 12.2928 20.2929C12.1052 20.4804 11.9999 20.7348 11.9999 21C11.9999 21.2652 12.1052 21.5195 12.2928 21.7071C12.4803 21.8946 12.7346 22 12.9999 22H26.2429L22.2929 25.95C22.1107 26.1386 22.0099 26.3912 22.0122 26.6534C22.0145 26.9156 22.1196 27.1664 22.305 27.3518C22.4904 27.5372 22.7413 27.6424 23.0035 27.6447C23.2657 27.6469 23.5183 27.5461 23.7069 27.364L29.3639 21.707Z" fill="black"/>
<rect x="0.5" y="0.5" width="41" height="41" rx="20.5" stroke="#D2D6DB"/>
</svg>
