<svg width="65" height="64" viewBox="0 0 65 64" fill="none" xmlns="http://www.w3.org/2000/svg">
<path d="M23.125 17H23.1625M41.875 17H41.9125M2.5 62V13.25C2.5 10.2663 3.68526 7.40483 5.79505 5.29505C7.90483 3.18526 10.7663 2 13.75 2H51.25C54.2337 2 57.0952 3.18526 59.205 5.29505C61.3147 7.40483 62.5 10.2663 62.5 13.25V35.75C62.5 38.7337 61.3147 41.5952 59.205 43.705C57.0952 45.8147 54.2337 47 51.25 47H17.5L2.5 62Z" stroke="black" stroke-width="4" stroke-linecap="round" stroke-linejoin="round"/>
<path d="M23.125 32C24.347 33.2472 25.8057 34.2381 27.4155 34.9145C29.0253 35.591 30.7539 35.9394 32.5 35.9394C34.2461 35.9394 35.9747 35.591 37.5845 34.9145C39.1943 34.2381 40.653 33.2472 41.875 32" stroke="black" stroke-width="4" stroke-linecap="round" stroke-linejoin="round"/>
</svg>
