<svg width="143" height="189" viewBox="0 0 143 189" fill="none" xmlns="http://www.w3.org/2000/svg">
<g clip-path="url(#clip0_3812_1798)">
<path d="M8.19705 75.1621V75.973H6.0935V93.9724H8.19705V94.7833H1.04395V93.9724H3.14749V75.973H1.04395V75.1621H8.19705Z" fill="white"/>
<path d="M14.9315 81.4423V84.0763C15.5776 82.7025 17.0351 81.1582 19.8725 81.1582C22.4516 81.1582 24.0228 82.4494 24.0228 85.8427V94.06H26.1573V94.7882H19.2265V94.06H21.33V85.3934C21.33 83.3171 20.8235 82.1705 19.0869 82.1705C16.9007 82.1705 14.9367 84.0195 14.9367 86.6278V94.06H17.0712V94.7882H10.1404V94.06H12.2439V82.1705H10.1404V81.4423H14.9367H14.9315Z" fill="white"/>
<path d="M28.3178 82.1705H26.2142V81.4423H28.3178V77.8269L31.0105 77.0986V81.4474H34.9385V82.1757H31.0105V91.4001C31.0105 93.0528 31.4292 93.7552 32.8918 93.7552C34.4372 93.7552 35.1091 92.6913 35.3623 90.7854L36.0084 90.8681C35.7551 93.0528 34.9437 95.0723 31.9408 95.0723C29.8373 95.0723 28.3229 94.2614 28.3229 91.7358V82.1757L28.3178 82.1705Z" fill="white"/>
<path d="M43.7765 81.1636C47.3117 81.1636 49.0793 83.3225 48.9139 87.5576H40.2155V87.9502C40.2155 91.9891 41.1406 94.117 44.2003 94.117C46.4744 94.117 47.7355 92.6863 48.1542 90.6979L48.9656 90.8115C48.4901 93.1098 47.0843 95.0725 43.5232 95.0725C39.2024 95.0725 37.2643 92.3506 37.2643 88.2601C37.2643 83.3535 40.0397 81.1636 43.7765 81.1636ZM46.1075 86.7984C46.278 83.7408 45.6578 81.835 43.5232 81.835C41.3887 81.835 40.4377 83.6014 40.2413 86.7984H46.1075Z" fill="white"/>
<path d="M55.3124 73.7622V94.0652H57.416V94.7934H50.511V94.0652H52.6145V74.4904H50.511V73.7622H55.3073H55.3124Z" fill="white"/>
<path d="M63.613 73.7622V94.0652H65.7165V94.7934H58.8115V94.0652H60.9151V74.4904H58.8115V73.7622H63.6078H63.613Z" fill="white"/>
<path d="M73.6345 81.1636C77.1697 81.1636 78.9373 83.3225 78.772 87.5576H70.0735V87.9502C70.0735 91.9891 70.9986 94.117 74.0583 94.117C76.3324 94.117 77.5935 92.6863 78.0122 90.6979L78.8236 90.8115C78.3481 93.1098 76.9423 95.0725 73.3813 95.0725C69.0605 95.0725 67.1223 92.3506 67.1223 88.2601C67.1223 83.3535 69.8978 81.1636 73.6345 81.1636ZM75.9655 86.7984C76.1361 83.7408 75.5158 81.835 73.3813 81.835C71.2467 81.835 70.2957 83.6014 70.0993 86.7984H75.9655Z" fill="white"/>
<path d="M83.5941 87.8624C83.5941 92.1234 84.7725 94.0861 87.4084 94.0861C90.0443 94.0861 91.0263 92.0408 91.3105 90.3829L92.122 90.5223C91.8119 92.2061 90.9436 95.0622 86.7623 95.0622C82.8602 95.0622 80.6481 92.6502 80.6481 88.3583C80.6481 83.5343 83.3718 81.1533 87.3567 81.1533C90.3595 81.1533 92.0445 82.5272 92.0445 84.7119C92.0445 86.1426 91.3157 86.7572 90.3337 86.7572C89.3517 86.7572 88.7057 86.1425 88.7057 85.0476C88.7057 84.7687 88.7315 84.402 88.8452 84.0095H89.605C89.6618 83.7874 89.6877 83.5601 89.6877 83.3639C89.6877 82.3826 89.0158 81.8196 87.5273 81.8196C84.8035 81.8196 83.5992 83.6996 83.5992 87.8469L83.5941 87.8624Z" fill="white"/>
<path d="M95.3781 82.1705H93.2745V81.4423H95.3781V77.8269L98.0708 77.0986V81.4474H101.999V82.1757H98.0708V91.4001C98.0708 93.0528 98.4895 93.7552 99.9521 93.7552C101.498 93.7552 102.169 92.6913 102.423 90.7854L103.069 90.8681C102.815 93.0528 102.004 95.0723 99.0012 95.0723C96.8976 95.0723 95.3833 94.2614 95.3833 91.7358V82.1757L95.3781 82.1705Z" fill="white"/>
<path d="M114.739 94.7881L114.568 92.1799C113.922 93.5537 112.491 95.067 109.824 95.067C107.157 95.067 105.617 93.7758 105.617 90.3825V82.1652H103.482V81.437H108.309V90.6924C108.309 92.8255 108.702 94.0599 110.64 94.0599C112.579 94.0599 114.486 91.8751 114.486 89.7989V82.1704H112.351V81.4422H117.179V94.0599H119.339V94.7881H114.739Z" fill="white"/>
<path d="M128.57 88.0896V86.0443C128.57 83.4929 127.981 81.8402 125.65 81.8402C124.554 81.8402 123.406 82.1501 123.406 83.1004C123.406 83.214 123.432 83.3535 123.463 83.4929H124.249C124.388 83.8596 124.471 84.2212 124.471 84.5879C124.471 85.595 123.799 86.1838 122.874 86.1838C121.949 86.1838 121.417 85.4814 121.417 84.4174C121.417 82.3412 123.66 81.1636 126.27 81.1636C129.634 81.1636 131.262 82.4238 131.262 86.4627V92.1543C131.262 93.3061 131.598 93.6986 132.219 93.6986C132.922 93.6986 133.314 93.3061 133.48 91.0646L134.126 91.1214C134.012 93.9259 133.17 95.0725 131.237 95.0725C129.748 95.0725 128.854 94.3701 128.658 93.053C127.955 94.3442 126.497 95.0725 124.755 95.0725C122.652 95.0725 120.853 94.2306 120.853 91.8186C120.853 88.9883 123.324 88.0896 126.885 88.0896H128.57ZM128.57 91.2608V88.792H127.531C124.642 88.792 123.742 90.1401 123.742 91.7928C123.742 93.1666 124.357 94.0085 125.732 94.0085C127.19 94.0085 128.565 92.9704 128.565 91.2608H128.57Z" fill="white"/>
<path d="M139.739 73.7622V94.0652H141.842V94.7934H134.937V94.0652H137.041V74.4904H134.937V73.7622H139.734H139.739Z" fill="white"/>
<path d="M18.7613 125.405H12.6161V124.595H15.0297V106.595H12.6161V105.784H19.5469C26.3641 105.784 30.4317 108.279 30.4317 115.262C30.4317 123.169 25.3511 125.411 18.7613 125.411V125.405ZM19.211 124.595C24.7671 124.595 27.1807 121.372 27.1807 115.427C27.1807 108.279 24.457 106.595 18.7045 106.595H17.9757V124.595H19.211Z" fill="white"/>
<path d="M37.2798 112.059V124.677H39.4144V125.405H32.4835V124.677H34.5871V112.788H32.4835V112.059H37.2798ZM35.7086 105.805C36.6906 105.805 37.4194 106.28 37.4194 107.457C37.4194 108.465 36.8302 109.167 35.7345 109.167C34.4424 109.167 34.0237 108.299 34.0237 107.457C34.0237 106.559 34.6129 105.805 35.7086 105.805Z" fill="white"/>
<path d="M41.0115 121.031H41.7402C41.9108 123.557 44.0402 124.76 46.2833 124.76C48.6401 124.76 49.6221 123.835 49.6221 122.234C49.6221 120.442 47.8803 120.101 45.9732 119.766C43.7301 119.373 41.2596 118.955 41.2596 116.011C41.2596 113.681 43.084 111.776 45.8905 111.776C47.0689 111.776 47.7718 112.029 48.6401 112.421C48.8365 112.504 49.2293 112.617 49.4257 112.617C49.7048 112.617 49.7616 112.308 49.8185 111.719H50.4335V115.871H49.7306C49.2241 113.656 47.8493 112.561 45.8853 112.561C44.1177 112.561 42.8566 113.346 42.8566 114.72C42.8566 116.429 44.5674 116.708 46.4487 117.049C48.6918 117.467 51.1623 118.004 51.1623 121.31C51.1623 123.835 49.3947 125.684 46.2523 125.684C44.6552 125.684 43.4716 125.266 42.5207 124.729C42.3501 124.615 42.2105 124.559 42.102 124.559C41.8488 124.559 41.7661 124.781 41.6265 125.679H41.0115V121.026V121.031Z" fill="white"/>
<path d="M60.6566 118.707V116.662C60.6566 114.11 60.0674 112.457 57.7365 112.457C56.6408 112.457 55.4934 112.767 55.4934 113.718C55.4934 113.831 55.5192 113.971 55.5502 114.11H56.3358C56.4754 114.477 56.5581 114.838 56.5581 115.205C56.5581 116.217 55.8862 116.801 54.961 116.801C54.0359 116.801 53.5035 116.099 53.5035 115.035C53.5035 112.958 55.7466 111.781 58.3567 111.781C61.7213 111.781 63.3494 113.041 63.3494 117.08V122.772C63.3494 123.923 63.6853 124.316 64.3056 124.316C65.0085 124.316 65.4013 123.923 65.5666 121.682L66.2127 121.739C66.099 124.543 65.2565 125.69 63.3236 125.69C61.835 125.69 60.9409 124.987 60.7445 123.67C60.0416 124.961 58.5841 125.69 56.8423 125.69C54.7388 125.69 52.9402 124.848 52.9402 122.436C52.9402 119.605 55.4107 118.707 58.9717 118.707H60.6566ZM60.6566 121.878V119.409H59.6178C56.7286 119.409 55.8293 120.757 55.8293 122.41C55.8293 123.784 56.4444 124.626 57.8192 124.626C59.2767 124.626 60.6515 123.588 60.6515 121.878H60.6566Z" fill="white"/>
<path d="M70.8385 114.218C71.7378 112.787 73.1694 111.78 75.3815 111.78C78.6945 111.78 80.6843 114.053 80.6843 118.593C80.6843 123.133 78.3534 125.689 74.7613 125.689C72.6578 125.689 71.3088 125.044 70.3268 123.783L68.7556 125.663H68.1406V105.113H65.8665V104.384H70.8333V114.228L70.8385 114.218ZM70.7558 116.795V121.113C70.7558 123.329 72.1564 124.816 74.4305 124.816C76.7046 124.816 77.7435 123.05 77.7435 118.701C77.7435 115.112 77.1801 112.839 74.6269 112.839C72.7456 112.839 70.7558 114.409 70.7558 116.79V116.795Z" fill="white"/>
<path d="M87.2533 112.059V124.677H89.3879V125.405H82.457V124.677H84.5606V112.788H82.457V112.059H87.2533ZM85.6821 105.805C86.6641 105.805 87.3929 106.28 87.3929 107.457C87.3929 108.465 86.8037 109.167 85.708 109.167C84.4159 109.167 83.9972 108.299 83.9972 107.457C83.9972 106.559 84.5864 105.805 85.6821 105.805Z" fill="white"/>
<path d="M95.4453 104.374V124.677H97.5488V125.405H90.6438V124.677H92.7473V105.107H90.6438V104.379H95.4401L95.4453 104.374Z" fill="white"/>
<path d="M103.839 112.059V124.677H105.973V125.405H99.0425V124.677H101.146V112.788H99.0425V112.059H103.839ZM102.268 105.805C103.25 105.805 103.978 106.28 103.978 107.457C103.978 108.465 103.389 109.167 102.293 109.167C101.001 109.167 100.583 108.299 100.583 107.457C100.583 106.559 101.172 105.805 102.268 105.805Z" fill="white"/>
<path d="M109.199 112.788H107.095V112.059H109.199V108.444L111.891 107.716V112.065H115.819V112.793H111.891V122.017C111.891 123.67 112.31 124.372 113.773 124.372C115.318 124.372 115.99 123.308 116.243 121.403L116.889 121.485C116.636 123.675 115.824 125.689 112.822 125.689C110.718 125.689 109.204 124.879 109.204 122.353V112.793L109.199 112.788Z" fill="white"/>
<path d="M116.744 112.06H123.2V112.788H120.9L124.606 122.436L128.141 112.788H125.923V112.06H130.668V112.788H129.267L123.489 127.678C122.057 131.324 121.05 132.419 118.946 132.419C116.843 132.419 115.943 130.963 115.943 129.837C115.943 128.489 116.786 127.792 117.711 127.792C118.496 127.792 119.199 128.267 119.199 129.248C119.199 129.527 119.142 129.863 119.029 130.255H118.073C118.016 130.452 117.959 130.648 117.959 130.818C117.959 131.293 118.269 131.66 119.08 131.66C120.709 131.66 121.634 129.951 122.642 127.146L123.257 125.436L118.011 112.788H116.75V112.06H116.744Z" fill="white"/>
<path d="M13.9651 136.396L14.2442 141.809H13.5723C13.0089 137.63 11.355 137.212 7.87665 137.212H5.34929V145.791H6.94634C9.22044 145.791 9.80964 145.119 10.2593 142.201H10.8485V150.501H10.2024C9.69594 147.418 9.24629 146.69 6.66724 146.69H5.34929V155.211H8.96719V156.022H0.186035V155.211H2.40329V137.212H0.186035V136.401H13.9651V136.396Z" fill="white"/>
<path d="M21.4851 142.397C25.4131 142.397 27.713 144.556 27.713 149.267C27.713 153.615 25.4131 156.306 21.3714 156.306C17.3296 156.306 15.0555 153.781 15.0555 149.406C15.0555 145.032 17.6346 142.397 21.4799 142.397H21.4851ZM21.4282 143.069C18.5649 143.069 18.0067 145.848 18.0067 149.21C18.0067 152.572 18.5959 155.63 21.4282 155.63C24.2605 155.63 24.767 152.996 24.767 149.267C24.767 145.93 24.2037 143.069 21.4282 143.069Z" fill="white"/>
<path d="M40.2309 156.022L40.0604 153.414C39.4143 154.788 37.9827 156.301 35.3158 156.301C32.6489 156.301 31.1087 155.01 31.1087 151.617V143.4H28.9741V142.671H33.8014V151.927C33.8014 154.06 34.1942 155.289 36.1324 155.289C38.0706 155.289 39.9777 153.104 39.9777 151.028V143.4H37.8431V142.671H42.6704V155.289H44.8308V156.017H40.2309V156.022Z" fill="white"/>
<path d="M50.8367 142.677V145.311C51.4827 143.937 52.9402 142.393 55.7777 142.393C58.3567 142.393 59.9279 143.684 59.9279 147.077V155.294H62.0625V156.023H55.1316V155.294H57.2352V146.628C57.2352 144.551 56.7287 143.405 54.9921 143.405C52.8058 143.405 50.8418 145.254 50.8418 147.862V155.294H52.9764V156.023H46.0455V155.294H48.1491V143.405H46.0455V142.677H50.8418H50.8367Z" fill="white"/>
<path d="M73.3657 153.864C72.4664 155.294 71.1795 156.301 68.9622 156.301C65.6493 156.301 63.5199 154.029 63.5199 149.489C63.5199 144.949 65.8198 142.392 69.4429 142.392C71.4069 142.392 72.6112 143.177 73.3709 144.355V135.719H70.735V134.991H76.0637V155.294H78.3378V156.022H73.5932L73.3709 153.864H73.3657ZM73.4484 151.281V146.881C73.4484 145.336 72.0995 143.265 69.9132 143.265C67.4996 143.265 66.4607 145.285 66.4607 149.38C66.4607 152.97 67.1068 155.243 69.5773 155.243C71.5413 155.243 73.4484 153.672 73.4484 151.286V151.281Z" fill="white"/>
<path d="M87.4497 149.319V147.273C87.4497 144.722 86.8605 143.069 84.5296 143.069C83.4339 143.069 82.2865 143.379 82.2865 144.329C82.2865 144.443 82.3123 144.582 82.3433 144.722H83.1289C83.2685 145.089 83.3512 145.45 83.3512 145.817C83.3512 146.829 82.6793 147.413 81.7541 147.413C80.829 147.413 80.2966 146.71 80.2966 145.646C80.2966 143.57 82.5397 142.393 85.1498 142.393C88.5144 142.393 90.1425 143.653 90.1425 147.692V153.383C90.1425 154.535 90.4784 154.928 91.0986 154.928C91.8015 154.928 92.1943 154.535 92.3597 152.294L93.0058 152.35C92.8921 155.155 92.0496 156.301 90.1166 156.301C88.6281 156.301 87.734 155.599 87.5376 154.282C86.8347 155.573 85.3772 156.301 83.6354 156.301C81.5319 156.301 79.7333 155.46 79.7333 153.048C79.7333 150.217 82.2038 149.319 85.7648 149.319H87.4497ZM87.4497 152.49V150.021H86.4109C83.5217 150.021 82.6224 151.369 82.6224 153.022C82.6224 154.396 83.2375 155.238 84.6123 155.238C86.0698 155.238 87.4446 154.199 87.4446 152.49H87.4497Z" fill="white"/>
<path d="M95.1093 143.405H93.0057V142.677H95.1093V139.061L97.802 138.333V142.682H101.73V143.41H97.802V152.634C97.802 154.287 98.2207 154.99 99.6833 154.99C101.229 154.99 101.901 153.926 102.154 152.02L102.8 152.102C102.547 154.292 101.735 156.307 98.7324 156.307C96.6288 156.307 95.1145 155.496 95.1145 152.97V143.41L95.1093 143.405Z" fill="white"/>
<path d="M108.806 142.676V155.294H110.94V156.022H104.009V155.294H106.113V143.405H104.009V142.676H108.806ZM107.234 136.422C108.216 136.422 108.945 136.897 108.945 138.075C108.945 139.082 108.356 139.784 107.26 139.784C105.968 139.784 105.55 138.916 105.55 138.075C105.55 137.176 106.139 136.422 107.234 136.422Z" fill="white"/>
<path d="M118.905 142.397C122.833 142.397 125.133 144.556 125.133 149.267C125.133 153.615 122.833 156.306 118.791 156.306C114.749 156.306 112.475 153.781 112.475 149.406C112.475 145.032 115.054 142.397 118.9 142.397H118.905ZM118.848 143.069C115.985 143.069 115.426 145.848 115.426 149.21C115.426 152.572 116.016 155.63 118.848 155.63C121.68 155.63 122.187 152.996 122.187 149.267C122.187 145.93 121.623 143.069 118.848 143.069Z" fill="white"/>
<path d="M131.588 142.677V145.311C132.234 143.937 133.692 142.393 136.529 142.393C139.108 142.393 140.679 143.684 140.679 147.077V155.294H142.814V156.023H135.883V155.294H137.987V146.628C137.987 144.551 137.48 143.405 135.744 143.405C133.557 143.405 131.593 145.254 131.593 147.862V155.294H133.728V156.023H126.797V155.294H128.901V143.405H126.797V142.677H131.593H131.588Z" fill="white"/>
<path d="M29.5479 180.659C28.5866 180.659 27.8785 180.447 27.4237 180.018C26.9689 179.59 26.7466 178.97 26.7518 178.154C26.757 177.343 26.9947 176.723 27.4547 176.295C27.9147 175.866 28.6279 175.649 29.5789 175.649C30.5299 175.649 31.2483 175.866 31.7135 176.295C32.1786 176.723 32.4009 177.343 32.3957 178.154C32.3906 178.97 32.1528 179.595 31.6928 180.018C31.2277 180.442 30.5144 180.659 29.5479 180.659ZM29.5583 179.269C29.8684 179.269 30.0958 179.182 30.2353 179.006C30.3749 178.83 30.4472 178.546 30.4524 178.154C30.4524 177.766 30.3904 177.488 30.2508 177.307C30.1113 177.126 29.889 177.038 29.5789 177.038C29.2688 177.038 29.0517 177.126 28.9174 177.307C28.783 177.488 28.7106 177.766 28.7106 178.154C28.7106 178.546 28.7727 178.83 28.907 179.006C29.0414 179.182 29.2585 179.269 29.5634 179.269H29.5583Z" fill="white"/>
<path d="M33.3571 180.561L33.3829 177.162H32.7627L32.773 175.752H33.3932V175.437C33.3984 174.895 33.5586 174.446 33.8739 174.094C34.1892 173.738 34.6543 173.562 35.2797 173.562C35.5433 173.562 35.7811 173.583 35.9826 173.624C36.1894 173.666 36.3806 173.723 36.5667 173.795L36.5563 175.034C36.453 174.998 36.3548 174.973 36.2566 174.952C36.1584 174.931 36.055 174.921 35.9464 174.921C35.7035 174.921 35.533 174.967 35.4451 175.055C35.3521 175.143 35.3056 175.288 35.3056 175.479V175.752H36.4426L36.3496 177.162H35.2952L35.2694 180.561H33.3622H33.3571Z" fill="white"/>
<path d="M43.9058 185.808C43.1512 185.808 42.438 185.746 41.7661 185.628C41.0942 185.504 40.5205 185.333 40.045 185.116L40.0657 182.42C40.5877 182.663 41.1666 182.859 41.8023 183.014C42.438 183.164 43.0375 183.241 43.5957 183.241C44.1539 183.241 44.6139 183.195 44.9137 183.092C45.2083 182.994 45.3582 182.771 45.3633 182.42C45.3633 182.177 45.2806 181.986 45.1152 181.847C44.9499 181.707 44.6863 181.578 44.3348 181.465C43.9834 181.351 43.5234 181.206 42.9548 181.031C42.2003 180.788 41.6059 180.52 41.1666 180.23C40.7272 179.941 40.412 179.585 40.2259 179.166C40.0398 178.748 39.9468 178.237 39.952 177.638C39.9623 176.537 40.3603 175.696 41.1459 175.122C41.9315 174.549 43.0996 174.26 44.6449 174.26C45.26 174.26 45.8957 174.311 46.5521 174.415C47.2085 174.518 47.7356 174.637 48.1439 174.761L48.1233 177.477C47.5806 177.255 47.0586 177.1 46.5572 177.007C46.0611 176.914 45.5907 176.868 45.1463 176.868C44.6346 176.868 44.2004 176.909 43.8386 176.992C43.4769 177.075 43.296 177.281 43.296 177.617C43.296 177.906 43.4458 178.118 43.7508 178.252C44.0557 178.386 44.6036 178.557 45.3943 178.764C46.3091 179.006 47.0069 179.301 47.4875 179.652C47.9682 179.998 48.2938 180.401 48.4644 180.86C48.6349 181.32 48.7176 181.837 48.7125 182.42C48.7073 183.443 48.3042 184.264 47.5082 184.884C46.7123 185.504 45.5184 185.814 43.9162 185.814L43.9058 185.808Z" fill="white"/>
<path d="M53.1728 185.808C52.0719 185.808 51.2708 185.53 50.7746 184.972C50.2785 184.414 50.0356 183.66 50.0407 182.71L50.0614 179.802H48.9812L49.0019 177.385H50.0821L50.0924 175.696L53.3744 174.911L53.3537 177.379H55.2505L55.111 179.797H53.333L53.3123 182.456C53.3123 182.803 53.395 183.05 53.5656 183.195C53.7362 183.34 54.0049 183.412 54.3667 183.412C54.7027 183.412 55.0438 183.355 55.3952 183.236L55.3797 185.411C54.7647 185.664 54.0256 185.793 53.1676 185.793L53.1728 185.808Z" fill="white"/>
<path d="M64.5588 185.808C62.5638 185.808 61.0443 185.317 60.0055 184.336C58.9666 183.355 58.4549 181.955 58.4704 180.132C58.4859 178.252 59.0338 176.801 60.1243 175.783C61.2097 174.761 62.7964 174.254 64.8741 174.254C65.5719 174.254 66.2024 174.296 66.7606 174.378C67.3239 174.461 67.8511 174.58 68.3525 174.745L68.3318 177.544C67.8201 177.348 67.2929 177.214 66.7503 177.147C66.2024 177.08 65.6494 177.043 65.0809 177.043C64.0007 177.043 63.1892 177.286 62.6465 177.777C62.1038 178.262 61.8299 179.053 61.8196 180.142C61.8092 181.165 62.0418 181.898 62.507 182.353C62.9721 182.807 63.6647 183.029 64.5847 183.029C64.8845 183.029 65.1687 183.009 65.4375 182.967C65.7062 182.926 65.9543 182.869 66.1869 182.802L66.1972 181.165H63.9696L63.9851 179.145H68.9468L68.9055 184.786C68.4765 185.054 67.9028 185.292 67.1844 185.498C66.4712 185.705 65.5925 185.813 64.5588 185.813V185.808Z" fill="white"/>
<path d="M74.6579 185.808C73.6966 185.808 72.8438 185.648 72.1099 185.328C71.3759 185.008 70.8022 184.532 70.3991 183.892C69.9908 183.257 69.7892 182.467 69.7996 181.527C69.8099 180.215 70.1872 179.166 70.9366 178.386C71.686 177.601 72.7973 177.214 74.2703 177.214C75.6192 177.214 76.6684 177.555 77.423 178.242C78.1776 178.929 78.5497 179.858 78.5445 181.041L78.5342 182.487H72.8076C72.9575 182.926 73.2469 183.241 73.6862 183.427C74.1255 183.613 74.7251 183.706 75.4797 183.706C75.9552 183.706 76.4358 183.665 76.9165 183.577C77.3972 183.489 77.7848 183.391 78.0794 183.272L78.0639 185.24C77.2473 185.622 76.1154 185.813 74.6631 185.813L74.6579 185.808ZM72.8179 180.71H75.7278V180.416C75.7278 180.091 75.6347 179.822 75.4332 179.616C75.2316 179.409 74.875 179.3 74.3633 179.3C73.7948 179.3 73.3968 179.419 73.1694 179.657C72.942 179.894 72.8231 180.246 72.8231 180.71H72.8179Z" fill="white"/>
<path d="M84.2041 185.808C82.5553 185.808 81.3408 185.441 80.5655 184.713C79.7851 183.98 79.4026 182.916 79.4129 181.511C79.4233 180.122 79.8264 179.053 80.6223 178.319C81.4183 177.581 82.6329 177.214 84.2712 177.214C85.9096 177.214 87.1397 177.581 87.9305 178.319C88.7213 179.058 89.1089 180.122 89.0986 181.511C89.0882 182.916 88.6851 183.98 87.8891 184.713C87.0932 185.447 85.8683 185.808 84.2041 185.808ZM84.2196 183.422C84.7519 183.422 85.1395 183.272 85.3825 182.967C85.6202 182.668 85.7443 182.177 85.7494 181.506C85.7494 180.845 85.6409 180.359 85.4031 180.055C85.1654 179.75 84.7829 179.595 84.2506 179.595C83.7182 179.595 83.3513 179.75 83.1135 180.055C82.8809 180.364 82.7569 180.845 82.7569 181.506C82.7569 182.177 82.8654 182.668 83.0928 182.967C83.3203 183.267 83.6976 183.422 84.2196 183.422Z" fill="white"/>
<path d="M90.2821 185.633L90.3441 177.384H93.4969L93.5796 178.045C93.9155 177.849 94.3497 177.668 94.8717 177.508C95.3937 177.348 95.926 177.245 96.4584 177.214L96.4377 179.652C96.1379 179.677 95.8072 179.714 95.4557 179.776C95.0991 179.832 94.758 179.905 94.4272 179.993C94.0964 180.08 93.8173 180.173 93.6002 180.282L93.5589 185.643H90.2873L90.2821 185.633Z" fill="white"/>
<path d="M100.914 188.696C100.505 188.696 100.066 188.68 99.5904 188.654C99.1149 188.623 98.6653 188.577 98.2415 188.505C97.8176 188.437 97.4662 188.355 97.1871 188.262L97.2026 186.175C97.5127 186.279 97.8797 186.366 98.288 186.433C98.7014 186.501 99.1201 186.557 99.5491 186.588C99.978 186.625 100.371 186.64 100.733 186.64C101.348 186.64 101.834 186.609 102.185 186.542C102.542 186.48 102.717 186.366 102.717 186.201C102.717 186.062 102.66 185.974 102.547 185.932C102.433 185.891 102.211 185.87 101.885 185.87H99.7093C98.8617 185.87 98.2104 185.736 97.7556 185.462C97.3008 185.189 97.0734 184.781 97.0786 184.233C97.0837 183.469 97.5127 182.932 98.3603 182.632C97.8848 182.389 97.5386 182.079 97.3215 181.708C97.1044 181.336 96.9959 180.866 97.001 180.298C97.0114 179.229 97.3783 178.449 98.1071 177.948C98.8358 177.447 99.885 177.199 101.255 177.199C101.544 177.199 101.87 177.219 102.231 177.261C102.593 177.302 102.852 177.338 103.012 177.374H106.253L106.17 179.358H105.074C105.281 179.626 105.384 179.952 105.379 180.334C105.374 181.181 105.121 181.852 104.624 182.343C104.128 182.839 103.353 183.081 102.294 183.081C102.144 183.081 101.978 183.071 101.808 183.056C101.632 183.04 101.472 183.025 101.322 183.014C101.069 183.04 100.846 183.081 100.66 183.154C100.474 183.221 100.381 183.34 100.381 183.5C100.381 183.619 100.433 183.696 100.536 183.737C100.64 183.779 100.784 183.799 100.97 183.799H102.867C103.715 183.799 104.382 183.996 104.867 184.393C105.353 184.791 105.591 185.369 105.586 186.134C105.581 186.945 105.198 187.575 104.438 188.024C103.679 188.468 102.505 188.696 100.914 188.696ZM101.249 181.3C101.761 181.3 102.113 181.212 102.314 181.036C102.511 180.861 102.614 180.571 102.619 180.169C102.619 179.76 102.526 179.466 102.33 179.28C102.133 179.094 101.782 179.001 101.27 179.001C100.795 179.001 100.448 179.089 100.231 179.27C100.014 179.451 99.9057 179.75 99.9005 180.169C99.9005 180.561 99.9987 180.85 100.2 181.031C100.402 181.212 100.753 181.3 101.249 181.3Z" fill="white"/>
<path d="M111.591 185.808C110.63 185.808 109.777 185.648 109.043 185.328C108.31 185.008 107.736 184.532 107.333 183.892C106.924 183.257 106.723 182.467 106.733 181.527C106.744 180.215 107.121 179.166 107.87 178.386C108.62 177.601 109.731 177.214 111.204 177.214C112.553 177.214 113.602 177.555 114.357 178.242C115.111 178.929 115.483 179.858 115.478 181.041L115.468 182.487H109.741C109.891 182.926 110.181 183.241 110.62 183.427C111.059 183.613 111.659 183.706 112.413 183.706C112.889 183.706 113.369 183.665 113.85 183.577C114.331 183.489 114.718 183.391 115.013 183.272L114.997 185.24C114.181 185.622 113.049 185.813 111.597 185.813L111.591 185.808ZM109.752 180.71H112.661V180.416C112.661 180.091 112.568 179.822 112.367 179.616C112.165 179.409 111.809 179.3 111.297 179.3C110.728 179.3 110.33 179.419 110.103 179.657C109.876 179.894 109.757 180.246 109.757 180.71H109.752Z" fill="white"/>
<path d="M81.8884 53.1446C83.0772 52.8708 84.8241 50.9598 85.5373 48.9869C86.111 47.3393 86.602 45.7382 87 44.2146C86.1214 44.1733 85.2427 44.1268 84.3641 44.0854C83.8111 46.9778 82.9686 50.0508 81.8884 53.1446Z" fill="white"/>
<path d="M78.9063 43.8684C78.7358 45.8259 78.4722 47.8195 78.1156 49.808C77.7486 52.0237 78.7306 53.6455 80.0589 53.4337C80.2501 53.4079 80.4465 53.3821 80.6378 53.3459C81.6404 50.1954 82.4054 47.0242 82.886 44.0131C81.5577 43.9562 80.2295 43.9098 78.9063 43.8633V43.8684Z" fill="white"/>
<path d="M56.8785 20.751H52.4181C51.8806 20.751 51.4413 21.19 51.4413 21.7271V21.7478C51.4413 22.2849 51.8806 22.7239 52.4181 22.7239H56.527L56.8785 20.751Z" fill="white"/>
<path d="M106.242 21.8044L73.7379 19.005C74.017 18.0805 74.322 17.1612 74.6682 16.2573C73.0815 16.0766 71.4948 15.8906 69.9081 15.7099C70.12 15.2192 70.3423 14.7337 70.5697 14.2585C72.1202 14.4703 73.6707 14.6872 75.2213 14.899C75.7484 13.6698 76.3325 12.4612 76.9785 11.2836C75.0714 10.9014 73.1642 10.5192 71.2622 10.1318C71.5258 9.5069 71.8204 8.6392 72.0168 7.93679C72.2701 6.93997 72.0685 4.1458 73.3865 1.19151C73.2418 1.16569 70.0632 5.89668 69.9598 7.41514C69.8409 7.8025 70.0528 9.04206 70.3061 9.94074L69.3603 9.74964C67.9183 12.487 66.7812 15.369 65.9388 18.3336L61.3079 17.9359C61.3079 17.9359 61.3027 17.9359 61.2975 17.9359L58.0362 17.8843C57.9742 17.8843 57.9225 17.9256 57.9122 17.9876L57.9019 18.0495L56.4495 26.1687C56.434 26.2461 56.4961 26.3133 56.5736 26.3133L59.9072 26.2565C59.9072 26.2565 59.9124 26.2565 59.9175 26.2565L106.237 22.2899C106.532 22.264 106.532 21.8302 106.237 21.8044H106.242Z" fill="white"/>
<path d="M84.6691 42.3344C85.5735 42.4222 86.4832 42.5204 87.3877 42.6133C87.6719 41.3634 87.8942 40.1704 88.0647 39.0341C87.0879 38.7913 86.1111 38.5641 85.1394 38.3472C85.0412 39.6229 84.8861 40.9554 84.6691 42.3293V42.3344Z" fill="white"/>
<path d="M98.1019 29.4534C97.7246 28.8646 97.1302 28.3739 96.4325 28.126C96.4325 28.126 90.0753 25.3835 88.1217 24.7017C87.8994 24.6242 87.6875 24.5571 87.486 24.4951L78.7616 25.213C78.7565 25.5849 78.8288 25.9516 78.9994 26.3028C79.4232 27.563 79.17 31.8963 74.0429 30.9925C74.0119 30.9873 73.986 30.9925 73.9602 30.9822C73.1746 30.8117 72.3528 30.7187 71.4897 30.7187C71.2519 30.7187 71.009 30.7239 70.7713 30.7394C70.7558 29.097 70.854 27.4649 71.04 25.8431L62.755 26.5249C62.5483 28.9059 62.5276 31.3075 62.7033 33.7143C58.9717 36.3587 56.0671 40.5061 55.1058 45.1803C54.5889 47.6852 54.7026 50.0456 55.3228 52.1012C55.359 51.5589 55.421 51.0062 55.5399 50.4381C56.6511 45.0098 61.1942 40.6146 65.6752 40.6146C70.1614 40.6146 72.8955 45.015 71.7791 50.4432C70.9211 54.6319 68.0165 58.2008 64.6725 59.6108C64.9619 59.6315 65.2565 59.647 65.5563 59.647C70.2544 59.647 74.9163 57.0439 78.1259 53.1083C77.5367 52.4834 77.2266 51.3213 77.4437 49.9319C78.1104 46.017 78.3844 42.0711 78.3017 38.4505C78.5756 38.4815 78.8547 38.5228 79.1338 38.559C79.1338 39.6487 79.1131 40.754 79.0459 41.8903C80.4104 41.9729 81.78 42.0762 83.1496 42.195C83.3305 40.754 83.4494 39.3595 83.5114 38.0167C83.129 37.9392 82.7465 37.8772 82.364 37.8101C83.5735 34.7525 87.8374 30.2487 93.2539 34.4787C93.5227 34.7008 93.9361 34.7163 94.2359 34.5097C95.466 33.6679 97.3628 32.2837 97.3628 32.2837C98.3241 31.6587 98.6859 30.4657 98.1536 29.5412C98.1381 29.5153 98.1226 29.4895 98.1071 29.4585L98.1019 29.4534Z" fill="white"/>
</g>
<defs>
<clipPath id="clip0_3812_1798">
<rect width="143" height="188" fill="white" transform="translate(0 0.943359)"/>
</clipPath>
</defs>
</svg>
