<svg width="60" height="60" viewBox="0 0 60 60" fill="none" xmlns="http://www.w3.org/2000/svg">
<path d="M18.2137 20.3572C20.3449 20.3572 22.3888 19.5106 23.8958 18.0036C25.4028 16.4966 26.2494 14.4527 26.2494 12.3215C26.2494 10.1903 25.4028 8.14636 23.8958 6.63937C22.3888 5.13238 20.3449 4.28577 18.2137 4.28577C16.0825 4.28577 14.0386 5.13238 12.5316 6.63937C11.0246 8.14636 10.178 10.1903 10.178 12.3215C10.178 14.4527 11.0246 16.4966 12.5316 18.0036C14.0386 19.5106 16.0825 20.3572 18.2137 20.3572ZM4.28516 27.8186C4.28516 25.4722 6.18587 23.5715 8.5323 23.5715H20.5323C19.5932 25.9409 19.5771 28.5763 20.4873 30.957C21.3975 33.3376 23.1677 35.2901 25.448 36.4286H20.3202C19.0538 36.4287 17.816 36.805 16.7638 37.5096C15.7116 38.2142 14.8924 39.2156 14.4102 40.3865C10.1137 39.5915 7.53801 37.4465 6.06587 35.0508C4.28516 32.1643 4.28516 29.1815 4.28516 28.6672V27.8186ZM34.5487 36.4286H39.6809C42.3487 36.4286 44.6352 38.0636 45.5909 40.3865C49.8873 39.5915 52.463 37.4465 53.9352 35.0508C55.7137 32.1622 55.7137 29.1793 55.7137 28.6651V27.8186C55.7137 26.6922 55.2663 25.6119 54.4698 24.8154C53.6733 24.0189 52.593 23.5715 51.4666 23.5715H39.4666C40.4057 25.9409 40.4218 28.5763 39.5116 30.957C38.6014 33.3376 36.8312 35.2901 34.5509 36.4286H34.5487ZM49.8209 12.3215C49.8209 14.4527 48.9743 16.4966 47.4673 18.0036C45.9603 19.5106 43.9164 20.3572 41.7852 20.3572C39.654 20.3572 37.61 19.5106 36.103 18.0036C34.5961 16.4966 33.7494 14.4527 33.7494 12.3215C33.7494 10.1903 34.5961 8.14636 36.103 6.63937C37.61 5.13238 39.654 4.28577 41.7852 4.28577C43.9164 4.28577 45.9603 5.13238 47.4673 6.63937C48.9743 8.14636 49.8209 10.1903 49.8209 12.3215ZM16.0709 42.8186C16.0709 40.4722 17.9716 38.5715 20.318 38.5715H39.6809C42.0273 38.5715 43.928 40.4722 43.928 42.8186V43.6651C43.928 44.1793 43.928 47.1622 42.1494 50.0508C40.2852 53.0851 36.6552 55.7143 29.9994 55.7143C23.3437 55.7143 19.7137 53.0829 17.8494 50.0529C16.0709 47.1622 16.0709 44.1815 16.0709 43.6651V42.8186ZM29.9994 35.3572C32.1306 35.3572 34.1746 34.5106 35.6816 33.0036C37.1885 31.4966 38.0352 29.4527 38.0352 27.3215C38.0352 25.1903 37.1885 23.1464 35.6816 21.6394C34.1746 20.1324 32.1306 19.2858 29.9994 19.2858C27.8682 19.2858 25.8243 20.1324 24.3173 21.6394C22.8103 23.1464 21.9637 25.1903 21.9637 27.3215C21.9637 29.4527 22.8103 31.4966 24.3173 33.0036C25.8243 34.5106 27.8682 35.3572 29.9994 35.3572Z" fill="#EE3524"/>
</svg>
