<svg width="60" height="60" viewBox="0 0 60 60" fill="none" xmlns="http://www.w3.org/2000/svg">
<path fill-rule="evenodd" clip-rule="evenodd" d="M28.75 7.5C31.2076 7.50019 33.5976 8.30477 35.5549 9.79085C37.5123 11.2769 38.9295 13.3628 39.59 15.73L39.72 16.2425L44.395 15.075C44.7367 14.9899 45.0925 14.978 45.4391 15.0401C45.7858 15.1021 46.1154 15.2366 46.4064 15.4349C46.6974 15.6331 46.9433 15.8906 47.1279 16.1905C47.3124 16.4904 47.4316 16.8259 47.4775 17.175L47.5 17.5V22.025C48.9094 23.3763 50.0645 24.97 50.91 26.73L51.255 27.5H52.5C53.1123 27.5001 53.7033 27.7249 54.1609 28.1318C54.6185 28.5387 54.9109 29.0994 54.9825 29.7075L55 30V37.5C55.0001 37.9115 54.8986 38.3166 54.7045 38.6795C54.5104 39.0423 54.2298 39.3516 53.8875 39.58L53.6175 39.735L50.6975 41.1975C49.5021 43.5102 47.7705 45.5032 45.6475 47.01L45 47.445V50C44.9999 50.6123 44.7751 51.2033 44.3682 51.6609C43.9613 52.1185 43.4006 52.4109 42.7925 52.4825L42.5 52.5H35C34.3877 52.4999 33.7967 52.2751 33.3391 51.8682C32.8815 51.4613 32.5891 50.9006 32.5175 50.2925L32.5 50H30C29.9999 50.6123 29.7751 51.2033 29.3682 51.6609C28.9613 52.1185 28.4006 52.4109 27.7925 52.4825L27.5 52.5H20C19.3877 52.4999 18.7967 52.2751 18.3391 51.8682C17.8815 51.4613 17.5891 50.9006 17.5175 50.2925L17.5 50V47.445C15.694 46.2904 14.1339 44.7902 12.9094 43.0307C11.685 41.2713 10.8203 39.2872 10.365 37.1925C8.89082 36.7537 7.58704 35.8727 6.63013 34.6685C5.67323 33.4643 5.10941 31.9952 5.015 30.46L5 30V28.75C5.00071 28.1128 5.2447 27.4999 5.68212 27.0366C6.11954 26.5732 6.71738 26.2944 7.35349 26.2571C7.98959 26.2197 8.61595 26.4267 9.10458 26.8357C9.59321 27.2446 9.90724 27.8248 9.9825 28.4575L10 28.75V30C10 30.37 10.08 30.7225 10.225 31.0375C10.6066 28.7868 11.4578 26.6416 12.7233 24.7417C13.9888 22.8417 15.6402 21.2295 17.57 20.01C17.3926 18.4362 17.5495 16.8427 18.0305 15.3337C18.5114 13.8248 19.3055 12.4344 20.3609 11.2535C21.4162 10.0726 22.709 9.1278 24.1547 8.48099C25.6003 7.83418 27.1662 7.49989 28.75 7.5ZM40 27.5C39.337 27.5 38.7011 27.7634 38.2322 28.2322C37.7634 28.7011 37.5 29.337 37.5 30C37.5 30.663 37.7634 31.2989 38.2322 31.7678C38.7011 32.2366 39.337 32.5 40 32.5C40.663 32.5 41.2989 32.2366 41.7678 31.7678C42.2366 31.2989 42.5 30.663 42.5 30C42.5 29.337 42.2366 28.7011 41.7678 28.2322C41.2989 27.7634 40.663 27.5 40 27.5ZM28.75 12.5C27.2357 12.5 25.773 13.0498 24.6335 14.0471C23.4941 15.0445 22.7555 16.4216 22.555 17.9225C23.7665 17.6412 25.0062 17.4994 26.25 17.5H34.6925L34.8675 17.4575C34.571 16.0549 33.8014 14.7968 32.6876 13.8943C31.5738 12.9917 30.1836 12.4994 28.75 12.5Z" fill="#EE3524"/>
</svg>
