<svg width="68" height="116" viewBox="0 0 68 116" fill="none" xmlns="http://www.w3.org/2000/svg">
<path d="M-44.6199 49.2976C-39.9878 55.0062 -33.3347 59.8482 -27.2897 64.6626C-20.9227 69.7522 -13.9477 74.3604 -7.34829 79.2712C-0.748863 84.1819 5.52865 89.134 12.6467 93.4808C19.7648 97.8276 26.5431 101.734 33.5539 105.765C39.817 109.604 46.7839 112.709 54.2285 114.981C57.2689 115.834 61.2214 116.604 64.2618 115.311C67.3022 114.018 68.0176 110.854 67.9997 108.433C67.9161 105.392 67.5635 102.359 66.9445 99.3545C66.247 95.7092 65.8356 91.9952 64.7626 88.3499C62.8668 81.9811 61.436 75.5434 59.6297 69.092L59.2183 67.2213C59.2737 67.1714 59.3042 67.108 59.3042 67.0424C59.3042 66.9768 59.2737 66.9134 59.2183 66.8636C56.6787 55.2813 53.1018 43.8916 49.9898 32.3368C48.3445 26.2706 45.8585 20.3832 44.3204 14.3032C43.0864 9.33735 41.7808 2.58332 34.6806 0.547482C31.4256 -0.415415 27.9381 0.0935453 24.6294 0.547482C20.2298 1.18024 15.9017 2.06058 11.5736 2.92719C3.24787 4.77644 -4.79335 7.31307 -12.4096 10.4928C-26.0199 15.7062 -42.1697 22.3778 -48.8943 33.5061C-51.9347 38.4994 -48.1074 44.9783 -44.6199 49.2976ZM-16.076 68.8994C-19.3514 66.7418 -22.4681 64.4456 -25.4118 62.0216C-24.9773 60.8294 -24.3777 59.6764 -23.6233 58.5827C-22.8807 57.6933 -21.9142 56.9273 -20.7809 56.3296C-19.6475 55.732 -18.3701 55.3146 -17.0239 55.1024C-14.52 54.6347 -11.2471 54.5109 -9.87003 56.478C-8.92214 57.8536 -9.29772 59.6419 -8.47503 61.0862C-6.86541 63.8373 -1.62521 62.3517 -0.409054 65.3092C0.968063 68.5968 -3.46733 72.9573 -6.72233 75.4471C-9.85214 73.1499 -12.8925 70.949 -16.076 68.8994ZM21.4817 95.1315C14.6853 91.0301 8.16113 86.6686 1.93383 82.0636L0.377872 80.8943C4.15153 74.3466 16.474 72.3658 23.9498 76.1211C32.2125 80.2478 29.6371 91.5412 23.4312 96.3282L21.4817 95.1315ZM50.2224 110.565L49.8289 110.4C46.2238 109.119 42.776 107.59 39.5273 105.833C36.9043 104.32 34.2931 102.803 31.6939 101.28C33.2319 99.1481 33.6969 97.2774 37.0593 95.9981C38.9908 95.2828 42.5141 94.7601 44.4456 95.833C46.3772 96.906 46.0731 98.7492 46.6812 100.166C47.5039 102.119 48.7737 102.216 50.8483 103.027C54.3716 104.389 52.2254 108.062 50.2224 110.565ZM59.6654 82.1461C57.0424 80.1706 55.3604 77.5735 54.8902 74.7731C54.6161 72.7708 55.3311 70.7625 56.8933 69.147L57.2868 70.7977C58.0558 74.5805 58.8427 78.3633 59.6654 82.1461ZM54.6577 60.646C50.2194 61.9017 45.3345 61.8528 40.9402 60.5085C36.7373 58.7986 33.5816 55.882 32.1589 52.3926C30.2452 48.5823 32.1589 43.8091 35.2529 40.6315C37.0729 38.7562 39.7284 37.4631 42.7108 37C44.346 36.7121 46.0308 36.6285 47.7006 36.7524C49.9898 44.772 52.4758 52.6815 54.6577 60.646ZM46.5023 32.4882L47.3072 35.3493C43.8337 35.3091 40.3966 35.8982 37.2739 37.0688C32.0873 39.6823 28.9754 45.5285 29.4762 50.2054C29.8458 52.4606 30.8125 54.6336 32.3167 56.5902C33.8209 58.5469 35.8306 60.2455 38.2218 61.5814C40.7205 62.8108 43.5743 63.5481 46.5313 63.728C49.4883 63.9079 52.4574 63.525 55.1764 62.6131C55.6414 64.3188 56.0706 66.0244 56.482 67.7439C55.0654 68.5399 53.9562 69.6167 53.2727 70.8595C52.5892 72.1022 52.3571 73.4643 52.601 74.8006C52.7937 76.8209 53.6895 78.7641 55.1943 80.4267C56.5714 82.0498 57.7339 84.0444 60.2377 84.746C60.667 86.6993 61.1141 88.6663 61.5791 90.6196C62.0978 92.8067 62.7416 94.9664 63.2781 97.1535C63.7968 100.125 64.2797 103.082 64.4764 106.081C64.6731 109.08 65.0845 113.44 59.7727 113.206C56.993 112.941 54.311 112.248 51.8856 111.171C53.8516 109.157 54.935 106.715 54.9797 104.196C54.9523 103.608 54.6804 103.042 54.204 102.582C53.7276 102.121 53.0717 101.791 52.3327 101.638C51.6226 101.556 50.9266 101.413 50.2581 101.211C49.1436 100.45 48.3523 99.4483 47.9868 98.3366C47.7799 97.5066 47.4623 96.6953 47.0389 95.9156C43.3547 90.8122 30.8354 94.8013 29.5119 99.946C27.5983 98.818 25.6667 97.6763 23.771 96.5208C28.4925 94.6088 30.7818 90.2757 31.4435 86.314C32.1946 81.8297 30.7281 77.2629 25.7204 74.5805C17.0106 69.9173 3.43614 72.1458 -1.66098 79.3125C-3.21694 78.1295 -4.75502 76.9465 -6.32887 75.7772C-2.34059 73.2187 2.45249 68.9957 1.48672 64.9102C1.32801 64.1227 0.864208 63.3904 0.155888 62.8088C-0.552433 62.2272 -1.47233 61.8234 -2.48367 61.6501C-4.39732 61.21 -5.86387 61.1825 -6.57925 59.4355C-7.06214 58.2525 -7.00848 56.9457 -7.61656 55.749C-9.58387 51.7736 -16.5589 52.3238 -20.8333 53.8232C-23.7339 54.8452 -26.0176 56.6805 -27.2181 58.9541L-27.7547 60.0545C-29.6504 58.4864 -31.5283 56.8907 -33.3883 55.3226C-34.9264 54.0295 -36.4645 52.709 -37.9131 51.3334C-37.2156 50.4668 -36.0174 49.5039 -35.4987 48.8712C-34.4793 47.6056 -33.4062 46.4639 -32.2795 45.2672C-29.7997 42.624 -27.0805 40.1189 -24.142 37.7703C-21.2201 35.1652 -18.0065 32.7625 -14.5379 30.5899C-11.2103 28.8266 -7.73287 27.2365 -4.12906 25.8304C1.37941 23.5607 6.60173 21.1397 12.2354 19.1176C12.2354 21.5937 13.0044 24.1797 15.8123 25.624C19.586 27.5361 23.1271 26.697 26.9187 25.4315C31.6402 23.8496 31.7117 30.9337 36.5406 31.0438C40.1175 31.1401 42.5141 28.9117 44.5708 26.8483C45.322 28.7328 45.9479 30.6036 46.5023 32.5156V32.4882ZM41.2443 16.7654C42.0133 19.7504 43.1221 22.6804 44.2131 25.6104C41.441 27.9351 37.2739 31.5527 34.2156 28.2101C32.7848 26.642 32.8743 24.0834 30.0485 23.4644C27.2227 22.8454 24.1287 25.1564 21.1062 25.1289C15.3473 25.0601 15.401 21.4423 14.7392 18.251C16.6708 17.6045 18.6381 17.0131 20.6769 16.4903C24.6104 15.546 28.6269 14.8196 32.6954 14.3169C34.7642 14.001 36.8644 13.8215 38.9729 13.7804C39.5452 13.7804 40.0639 13.7804 40.5646 13.7804L41.2443 16.7654ZM-46.0506 38.7745C-47.1416 33.6436 -40.8283 28.0726 -36.1426 24.895C-30.0406 20.9836 -23.3877 17.6108 -16.3085 14.8396C-9.27984 11.9372 -2.00079 8.70458 5.67172 6.8063C13.2442 4.79496 21.0744 3.41155 29.0291 2.67959C36.7016 2.14312 38.9729 7.70042 40.2606 12.7488C39.2233 12.6112 38.1144 12.3498 37.2202 12.3086C35.3212 12.1986 33.4141 12.1986 31.515 12.3086C26.7511 12.6896 22.0555 13.4691 17.5113 14.6333C8.28288 16.9167 0.00229263 20.8508 -8.54656 24.2622C-12.2881 25.721 -15.8241 27.4727 -19.0985 29.4894C-22.4824 31.8789 -25.7058 34.3995 -28.7562 37.0413C-31.496 39.3812 -34.0237 41.863 -36.3214 44.4693C-37.6806 45.8449 -38.7179 47.4131 -39.8983 48.8712L-39.9878 48.9812C-42.9887 45.9714 -45.0618 42.4767 -46.0506 38.7608V38.7745Z" fill="#EE3524"/>
<path d="M14.5754 64.9244C16.6135 63.4926 18.2845 61.7485 19.4928 59.7919C21.4249 57.3619 22.8388 54.6848 23.6752 51.8729C24.2657 49.4015 24.0484 46.8476 23.0452 44.4657C21.9013 42.2032 20.0197 40.2371 17.6028 38.7787C17.6019 38.6743 17.5732 38.5713 17.5188 38.4768C17.4643 38.3822 17.3854 38.2983 17.2873 38.2308C17.1893 38.1633 17.0745 38.1138 16.9507 38.0857C16.827 38.0575 16.6972 38.0515 16.5703 38.0679C16.4863 38.0239 16.3886 38.0004 16.2886 38C16.1887 37.9996 16.0907 38.0224 16.0062 38.0657C15.9216 38.109 15.8541 38.171 15.8114 38.2445C15.7687 38.3179 15.7528 38.3996 15.7653 38.4801C14.4178 39.6304 13.4017 41.0096 12.7904 42.5179C11.6178 44.8046 10.7553 47.1882 10.2179 49.6265C9.23795 54.8727 11.7929 59.3938 13.3154 64.3841C13.334 64.4963 13.3853 64.6033 13.4651 64.6962C13.5449 64.789 13.6509 64.865 13.7741 64.9179C13.8974 64.9707 14.0344 64.9988 14.1738 65C14.3131 65.0011 14.4508 64.9752 14.5754 64.9244ZM11.6004 51.3895C11.9211 49.2002 12.5917 47.0543 13.5954 45.0059C14.2203 43.4325 15.0107 41.9055 15.9578 40.4421C16.2028 42.4041 16.7278 44.3662 16.8328 46.3566C16.8176 48.6774 16.5659 50.9933 16.0803 53.2804C16.0803 53.6216 16.7278 53.7212 16.8328 53.3799C17.5511 51.2381 17.9333 49.0312 17.9703 46.8115C17.9703 44.6363 17.4978 42.4183 17.5153 40.2431C21.0152 43.8116 23.0977 47.7357 21.3302 52.5838C20.4029 54.7895 19.17 56.9025 17.6553 58.882C16.7527 60.3272 15.6988 61.7065 14.5054 63.005C12.9654 59.3654 10.9529 55.2139 11.6004 51.3895Z" fill="#EE3524"/>
<path d="M39.1255 87.0436C40.7734 88.9711 42.9706 90.5273 44.4413 92.569C44.518 92.6794 44.6245 92.7744 44.753 92.8471C44.8815 92.9198 45.0287 92.9682 45.1836 92.9888C45.3385 93.0094 45.4971 93.0015 45.6478 92.966C45.7984 92.9304 45.9372 92.8678 46.0538 92.7831C47.6485 91.5838 48.6585 89.0853 49.4559 87.4719C51.0958 84.8603 51.4442 81.8444 50.4305 79.0339C48.9951 76.4932 46.9403 74.2112 44.3881 72.3235C42.7369 70.7851 40.5424 69.6893 38.0977 69.1824C37.9688 69.0968 37.8151 69.0388 37.6509 69.0139C37.4867 68.9889 37.3174 68.9977 37.1586 69.0396H36.8574C36.2549 69.0396 36.0245 69.6249 36.3967 69.9248C34.7301 73.5925 34.5502 77.5915 35.8828 81.3468C36.5722 83.3751 37.6675 85.2993 39.1255 87.0436ZM38.204 82.4748C36.5654 79.1052 36.323 75.399 37.513 71.9094C38.3458 72.9516 39.5153 73.9653 40.1709 74.7649C42.163 77.3947 43.5328 80.2993 44.211 83.3314C44.335 83.8311 45.3627 83.774 45.3273 83.2457C45.2101 80.9556 44.4722 78.714 43.1655 76.6781C42.4744 75.5787 41.7657 74.4936 40.986 73.4371C40.1405 72.5213 39.3596 71.568 38.647 70.5816C43.2386 72.6333 46.8073 75.9022 48.7471 79.8334C49.4529 82.2437 49.0565 84.7782 47.6308 86.9722C47.0419 88.2749 46.331 89.5397 45.5045 90.7557C42.9351 87.9859 39.8874 85.8443 38.204 82.4748Z" fill="#EE3524"/>
<path d="M3.30276 46.4796C3.7857 45.79 4.02247 45.0493 3.99833 44.3035C3.97418 43.5577 3.68964 42.8228 3.16241 42.1446C2.91201 41.6274 2.35774 41.1794 1.59857 40.8807H1.41813C0.666374 40.4985 -0.237057 40.2344 -1.20833 40.1129C-2.31915 39.9471 -3.48592 39.9642 -4.58131 40.1625C-5.67671 40.3607 -6.65865 40.7324 -7.41994 41.237C-8.18124 41.7416 -8.69266 42.3596 -8.89837 43.0238C-9.10409 43.6879 -8.99619 44.3726 -8.58648 45.0031C-6.88229 47.4482 0.515907 49.5271 3.30276 46.4796ZM-2.31104 41.2587C-1.80591 41.3867 -1.25504 41.4394 -0.7071 41.4122C-0.0802193 41.5302 0.484844 41.7409 0.934128 42.0243C1.38341 42.3076 1.70191 42.654 1.85921 43.0305L2.01961 43.6801V44.0581C2.01554 44.5982 1.88052 45.1352 1.61862 45.6527C1.37073 45.9678 0.965038 46.2307 0.456085 46.406C-0.0528679 46.5812 -0.640697 46.6605 -1.22838 46.6332C-2.15498 46.6426 -3.0719 46.5209 -3.90218 46.2784C-4.73247 46.0358 -5.45191 45.6796 -6.00011 45.2393C-6.49583 44.8581 -6.79307 44.4003 -6.85576 43.9215C-6.91845 43.4427 -6.7439 42.9635 -6.35329 42.542C-5.96268 42.1206 -5.37281 41.7749 -4.65527 41.5471C-3.93773 41.3193 -3.12337 41.2191 -2.31104 41.2587Z" fill="#EE3524"/>
<path d="M34.2723 67.4801C34.777 66.7928 35.0239 66.0563 34.9982 65.315C34.9725 64.5736 34.6746 63.8428 34.1226 63.1666C33.8554 62.6474 33.255 62.1992 32.4333 61.9056C32.3694 61.9011 32.3047 61.9011 32.2408 61.9056C31.4382 61.5225 30.4757 61.2553 29.4395 61.1278C28.2473 60.9502 26.9892 60.9579 25.8045 61.1499C24.6197 61.342 23.5544 61.711 22.7266 62.216C21.8987 62.7211 21.3405 63.3425 21.1138 64.0115C20.887 64.6806 21.0006 65.3713 21.4419 66.007C23.2809 68.4583 31.1716 70.5208 34.2723 67.4801ZM28.2634 62.2709C28.8036 62.3966 29.3886 62.4531 29.9741 62.4359C30.6402 62.5526 31.2411 62.761 31.7201 63.0415C32.1991 63.322 32.5403 63.6653 32.7113 64.0387L32.9037 64.6987V65.0759C32.8922 65.6153 32.741 66.1511 32.4547 66.6669C32.1945 66.9824 31.762 67.2451 31.2175 67.4184C30.6731 67.5917 30.0439 67.6668 29.4181 67.6333C28.4287 67.6467 27.4482 67.5271 26.5615 67.2848C25.6747 67.0425 24.9084 66.6848 24.3287 66.2426C23.8079 65.8662 23.4939 65.4154 23.4238 64.9436C23.3538 64.4719 23.5307 63.9989 23.9336 63.5809C24.3365 63.1628 24.9485 62.8172 25.6969 62.585C26.4454 62.3529 27.299 62.2438 28.1565 62.2709H28.2634Z" fill="#EE3524"/>
<path d="M59.4091 96.9034C59.8157 95.9548 60.0164 94.9367 59.999 93.9111C59.9815 92.8856 59.7462 91.8743 59.3075 90.939C59.078 90.2358 58.6063 89.6284 57.9699 89.2163H57.8175C57.1783 88.6967 56.417 88.3342 55.5993 88.1599C54.66 87.928 53.6723 87.9487 52.7445 88.2198C51.8167 88.4909 50.9845 89.0019 50.3392 89.6968C49.6939 90.3917 49.2603 91.2437 49.086 92.1594C48.9117 93.0751 49.0034 94.0192 49.3511 94.8882C50.7565 98.2523 57.0555 101.096 59.4091 96.9034ZM54.668 89.7201C55.0946 89.8962 55.5598 89.9688 56.0226 89.9314C56.5459 90.1043 57.0171 90.3976 57.395 90.7857C57.7728 91.1739 58.0458 91.645 58.19 92.1579C58.19 92.4667 58.2916 92.7754 58.3255 93.0517C58.3422 93.2301 58.3422 93.4096 58.3255 93.5881C58.3232 94.3259 58.2091 95.0594 57.9868 95.7657C57.7835 96.2038 57.4421 96.5695 57.0107 96.8115C56.5794 97.0535 56.0798 97.1596 55.5823 97.1147C54.7993 97.1304 54.0239 96.9642 53.3223 96.6303C52.6206 96.2964 52.0134 95.8046 51.5523 95.197C51.1337 94.6725 50.8827 94.0427 50.8297 93.3839C50.7768 92.7252 50.9242 92.0658 51.2541 91.4858C51.584 90.9059 52.0821 90.4304 52.6881 90.117C53.2941 89.8035 53.9819 89.6657 54.668 89.7201Z" fill="#EE3524"/>
<path d="M-15.6942 49.2988C-15.2134 48.5287 -14.9776 47.7015 -15.0017 46.8685C-15.0257 46.0356 -15.309 45.2149 -15.8339 44.4575C-16.089 43.8853 -16.64 43.3904 -17.3909 43.0592L-17.5705 42.9933C-18.3241 42.5716 -19.2215 42.2773 -20.1855 42.1358C-21.3019 41.9414 -22.4781 41.9559 -23.5827 42.1778C-24.6874 42.3996 -25.677 42.8199 -26.441 43.3919C-27.2051 43.9639 -27.7135 44.665 -27.9096 45.4169C-28.1056 46.1688 -27.9815 46.9419 -27.5512 47.6499C-25.8345 50.3937 -18.4688 52.7022 -15.6942 49.2988ZM-21.2833 43.4682C-20.7804 43.6111 -20.232 43.67 -19.6864 43.6397C-19.0632 43.7726 -18.5016 44.0082 -18.0545 44.3244C-17.6075 44.6407 -17.2898 45.027 -17.1314 45.4469L-16.9717 46.1724C-16.9717 46.3175 -16.9717 46.4627 -16.9717 46.6078C-16.9743 47.2067 -17.1088 47.8021 -17.3709 48.3754C-17.613 48.7297 -18.016 49.0255 -18.5239 49.2217C-19.0318 49.4179 -19.6195 49.5047 -20.2054 49.4703C-21.1288 49.4841 -22.0434 49.3497 -22.8709 49.0786C-23.6984 48.8075 -24.4139 48.4078 -24.9562 47.9137C-25.4498 47.488 -25.7457 46.9768 -25.8081 46.4421C-25.8705 45.9074 -25.6967 45.3721 -25.3078 44.9014C-24.919 44.4307 -24.3317 44.0447 -23.6173 43.7903C-22.9029 43.5359 -22.0921 43.424 -21.2833 43.4682Z" fill="#EE3524"/>
<path d="M6.51923 33.3648C9.5267 33.1594 12.5586 33.5109 15.3098 34.3839C17.4607 35.0764 19.6303 35.7559 21.7064 36.5268C23.3336 37.1409 27.3175 39.14 28.7015 37.1148C30.0856 35.0895 26.3075 33.2864 24.5119 32.424C22.7985 31.596 21.0187 30.8369 19.1815 30.1505C18.1341 29.7063 17.1054 29.2882 16.0954 28.8439C12.9537 27.4903 9.28566 26.8554 5.60277 27.0277C2.83466 27.1845 -1.71028 28.465 -0.906029 30.9475C-0.195297 32.9989 4.05038 33.404 6.51923 33.3648ZM1.73116 29.7324C3.33965 27.668 9.88585 28.5695 12.3173 29.2359C13.7014 29.6279 15.1041 30.0852 16.5069 30.5425C17.5917 30.9475 18.6765 31.3918 19.7426 31.8491C20.8087 32.3064 22.3423 32.8683 23.4832 33.4824C24.4887 33.9075 25.3967 34.4361 26.1765 35.0503L24.8112 36.2785C24.2127 36.3569 21.2762 34.8151 20.6216 34.5669C19.2376 34.0573 17.8535 33.5869 16.4695 33.1166C14.5829 32.3577 12.4962 31.8732 10.3347 31.6923C9.32152 31.6837 8.30878 31.7273 7.30478 31.8229C6.05165 31.9405 -0.232704 32.2542 1.73116 29.7324Z" fill="#EE3524"/>
<path d="M8.8233 68.8141C10.9475 69.4783 12.5176 68.2541 12.9056 66.8605C13.4043 64.9591 11.8342 62.8493 10.3934 61.3255C8.95259 59.8017 7.71499 58.5514 6.53279 57.1188C5.75698 54.9438 3.79897 48.8748 0.049202 51.7661C-1.57631 53.0684 -0.966743 55.2304 -0.41259 56.663C0.521618 59.3092 1.82724 61.8831 3.48495 64.3469C4.59326 65.7795 6.64363 68.1499 8.8233 68.8141ZM3.00469 60.3096C2.19516 58.925 1.48615 57.5123 0.880432 56.0769C0.513107 55.2928 0.393326 54.4616 0.529469 53.6415C1.63778 52.3391 2.50595 51.9353 3.15246 52.6256C3.13126 52.6722 3.13126 52.7223 3.15246 52.7689C3.38042 55.5998 4.79471 58.3193 7.21625 60.5831C8.54593 61.7977 9.69128 63.1072 10.6335 64.4902C11.0853 65.1693 11.2946 65.916 11.2431 66.6652L8.69399 67.4987C8.01054 67.4987 6.84681 65.9488 6.40349 65.5711C4.89806 63.9492 3.75197 62.175 3.00469 60.3096Z" fill="#EE3524"/>
</svg>
