<svg width="135" height="103" viewBox="0 0 135 103" fill="none" xmlns="http://www.w3.org/2000/svg">
<path d="M45.1857 61.9175C55.9913 54.9547 60.7858 41.5293 56.8354 29.2966C63.7982 40.1023 77.2236 44.8968 89.4562 40.9463C78.6506 47.9092 73.8561 61.3346 77.8066 73.5672C70.8437 62.7616 57.4183 57.967 45.1857 61.9175Z" fill="white" stroke="url(#paint0_linear_77_892)" stroke-width="0.462604"/>
<path d="M121.946 25.5556C123.025 27.8342 122.677 30.7489 120.947 34.1517C119.222 37.5468 116.161 41.3422 111.982 45.3011C103.63 53.2151 90.8985 61.7031 75.765 68.8719C60.6316 76.0407 45.9988 80.5154 34.5843 81.9651C28.8742 82.6903 23.9985 82.6547 20.2783 81.8392C16.5497 81.022 14.0739 79.445 12.9945 77.1664C11.9151 74.8878 12.2632 71.9731 13.9927 68.5704C15.7183 65.1752 18.7793 61.3799 22.9576 57.4209C31.3099 49.507 44.0416 41.019 59.175 33.8501C74.3084 26.6813 88.9412 22.2066 100.356 20.7569C106.066 20.0317 110.942 20.0674 114.662 20.8828C118.39 21.7001 120.866 23.277 121.946 25.5556Z" stroke="url(#paint1_linear_77_892)"/>
<defs>
<linearGradient id="paint0_linear_77_892" x1="75.2917" y1="72.5301" x2="84.6672" y2="68.1124" gradientUnits="userSpaceOnUse">
<stop stop-color="#EE3524"/>
<stop offset="1" stop-color="#FD0098"/>
</linearGradient>
<linearGradient id="paint1_linear_77_892" x1="70.7809" y1="67.8151" x2="91.5936" y2="58.1154" gradientUnits="userSpaceOnUse">
<stop stop-color="#EE3524"/>
<stop offset="1" stop-color="#FD0098"/>
</linearGradient>
</defs>
</svg>
