<svg width="139" height="34" viewBox="0 0 139 34" fill="none" xmlns="http://www.w3.org/2000/svg">
<path d="M1 30.3573C3.47169 29.7989 5.73295 28.4555 7.87766 26.781C14.2566 21.7994 18.8736 13.4251 20.6612 3.96385C20.9892 5.37919 22.1066 9.26543 22.52 10.4041C24.0366 14.5783 25.715 18.5285 28.5885 21.365C40.747 33.3687 52.9484 15.5251 55.6931 1C55.815 2.15775 57.4985 9.69252 57.9065 10.9327C60.0205 17.36 63.5701 24.1661 68.9073 26.3475C79.9283 30.8521 88.0274 17.6114 90.5525 5.25964C90.5525 5.25964 90.9954 7.60299 91.285 8.74728C91.7764 10.6885 92.3389 12.5879 93.069 14.3994C95.2075 19.7074 98.4596 24.5932 102.833 26.744C113.112 31.7989 124.738 21.1507 126.456 7.62153C126.456 7.62153 126.768 9.48381 127.036 10.3654C127.785 12.8296 128.761 15.1827 129.864 17.4035C132.456 22.6269 135.963 27.3395 140.359 29.8811C149.274 35.036 165.575 25.5932 165.056 10.6942C165.053 10.6934 165.728 12.7732 165.779 12.8925C166.396 14.322 167.126 15.6774 167.859 17.0071C169.637 20.2336 171.55 23.2829 173.87 25.8672C182.158 35.1004 189.419 34.131 199 29.9036" stroke="#BA291C" stroke-miterlimit="1.5" stroke-linecap="round" stroke-linejoin="round"/>
</svg>
