<svg width="40" height="40" viewBox="0 0 40 40" fill="none" xmlns="http://www.w3.org/2000/svg">
<rect width="40" height="40" rx="20" fill="#BA291C"/>
<path d="M20 17C19.2044 17 18.4413 17.3161 17.8787 17.8787C17.3161 18.4413 17 19.2044 17 20C17 20.7956 17.3161 21.5587 17.8787 22.1213C18.4413 22.6839 19.2044 23 20 23C20.7956 23 21.5587 22.6839 22.1213 22.1213C22.6839 21.5587 23 20.7956 23 20C23 19.2044 22.6839 18.4413 22.1213 17.8787C21.5587 17.3161 20.7956 17 20 17ZM20 15C21.3261 15 22.5979 15.5268 23.5355 16.4645C24.4732 17.4021 25 18.6739 25 20C25 21.3261 24.4732 22.5979 23.5355 23.5355C22.5979 24.4732 21.3261 25 20 25C18.6739 25 17.4021 24.4732 16.4645 23.5355C15.5268 22.5979 15 21.3261 15 20C15 18.6739 15.5268 17.4021 16.4645 16.4645C17.4021 15.5268 18.6739 15 20 15ZM26.5 14.75C26.5 15.0815 26.3683 15.3995 26.1339 15.6339C25.8995 15.8683 25.5815 16 25.25 16C24.9185 16 24.6005 15.8683 24.3661 15.6339C24.1317 15.3995 24 15.0815 24 14.75C24 14.4185 24.1317 14.1005 24.3661 13.8661C24.6005 13.6317 24.9185 13.5 25.25 13.5C25.5815 13.5 25.8995 13.6317 26.1339 13.8661C26.3683 14.1005 26.5 14.4185 26.5 14.75ZM20 12C17.526 12 17.122 12.007 15.971 12.058C15.187 12.095 14.661 12.2 14.173 12.39C13.7646 12.5399 13.3954 12.7803 13.093 13.093C12.78 13.3954 12.5394 13.7646 12.389 14.173C12.199 14.663 12.094 15.188 12.058 15.971C12.006 17.075 11.999 17.461 11.999 20C11.999 22.475 12.006 22.878 12.057 24.029C12.094 24.812 12.199 25.339 12.388 25.826C12.558 26.261 12.758 26.574 13.09 26.906C13.427 27.242 13.74 27.443 14.17 27.609C14.664 27.8 15.19 27.906 15.97 27.942C17.074 27.994 17.46 28 19.999 28C22.474 28 22.877 27.993 24.028 27.942C24.81 27.905 25.336 27.8 25.825 27.611C26.233 27.4603 26.6021 27.2201 26.905 26.908C27.242 26.572 27.443 26.259 27.609 25.828C27.799 25.336 27.905 24.81 27.941 24.028C27.993 22.925 27.999 22.538 27.999 20C27.999 17.526 27.992 17.122 27.941 15.971C27.904 15.189 27.798 14.661 27.609 14.173C27.4583 13.765 27.218 13.396 26.906 13.093C26.6037 12.7798 26.2345 12.5392 25.826 12.389C25.336 12.199 24.81 12.094 24.028 12.058C22.925 12.006 22.54 12 20 12ZM20 10C22.717 10 23.056 10.01 24.123 10.06C25.187 10.11 25.913 10.277 26.55 10.525C27.21 10.779 27.766 11.123 28.322 11.678C28.8305 12.1779 29.224 12.7826 29.475 13.45C29.722 14.087 29.89 14.813 29.94 15.878C29.987 16.944 30 17.283 30 20C30 22.717 29.99 23.056 29.94 24.122C29.89 25.187 29.722 25.912 29.475 26.55C29.2246 27.2178 28.8311 27.8226 28.322 28.322C27.822 28.8303 27.2173 29.2238 26.55 29.475C25.913 29.722 25.187 29.89 24.123 29.94C23.056 29.987 22.717 30 20 30C17.283 30 16.944 29.99 15.877 29.94C14.813 29.89 14.088 29.722 13.45 29.475C12.7823 29.2245 12.1775 28.8309 11.678 28.322C11.1694 27.8222 10.776 27.2175 10.525 26.55C10.277 25.913 10.11 25.187 10.06 24.122C10.012 23.056 10 22.717 10 20C10 17.283 10.01 16.944 10.06 15.878C10.11 14.812 10.277 14.088 10.525 13.45C10.7752 12.7822 11.1688 12.1773 11.678 11.678C12.1777 11.1692 12.7824 10.7757 13.45 10.525C14.087 10.277 14.812 10.11 15.877 10.06C16.944 10.013 17.283 10 20 10Z" fill="white"/>
</svg>
