<svg width="40" height="40" viewBox="0 0 40 40" fill="none" xmlns="http://www.w3.org/2000/svg">
<rect width="40" height="40" rx="20" fill="#BA291C"/>
<path d="M13.8558 12.2232C13.8555 12.8125 13.6211 13.3776 13.2042 13.7941C12.7873 14.2107 12.2219 14.4445 11.6326 14.4442C11.0433 14.4439 10.4782 14.2095 10.0617 13.7926C9.64516 13.3756 9.41133 12.8103 9.41162 12.221C9.41192 11.6317 9.64631 11.0666 10.0632 10.6501C10.4802 10.2335 11.0455 9.99971 11.6348 10C12.2242 10.0003 12.7893 10.2347 13.2058 10.6516C13.6223 11.0686 13.8561 11.6339 13.8558 12.2232ZM13.9225 16.0897H9.47828V30H13.9225V16.0897ZM20.9443 16.0897H16.5223V30H20.8999V22.7004C20.8999 18.634 26.1996 18.2562 26.1996 22.7004V30H30.5882V21.1894C30.5882 14.3342 22.7442 14.5897 20.8999 17.9562L20.9443 16.0897Z" fill="white"/>
</svg>
