<svg width="40" height="40" viewBox="0 0 40 40" fill="none" xmlns="http://www.w3.org/2000/svg">
<rect width="40" height="40" rx="20" fill="#BA291C"/>
<path d="M25.1113 13.1333C24.3518 12.2662 23.9332 11.1527 23.9335 10H20.5002V23.7778C20.4737 24.5234 20.1589 25.2296 19.6221 25.7477C19.0854 26.2658 18.3684 26.5555 17.6224 26.5556C16.0446 26.5556 14.7335 25.2667 14.7335 23.6667C14.7335 21.7556 16.578 20.3222 18.478 20.9111V17.4C14.6446 16.8889 11.2891 19.8667 11.2891 23.6667C11.2891 27.3667 14.3557 30 17.6113 30C21.1002 30 23.9335 27.1667 23.9335 23.6667V16.6778C25.3257 17.6776 26.9972 18.2141 28.7113 18.2111V14.7778C28.7113 14.7778 26.6224 14.8778 25.1113 13.1333Z" fill="white"/>
</svg>
