<svg width="40" height="40" viewBox="0 0 40 40" fill="none" xmlns="http://www.w3.org/2000/svg">
<rect width="40" height="40" rx="20" fill="#BA291C"/>
<path d="M32.3061 12.3529C31.4002 12.7647 30.4237 13.0353 29.412 13.1647C30.4473 12.5412 31.2473 11.5529 31.6237 10.3647C30.6473 10.9529 29.5649 11.3647 28.4237 11.6C27.4943 10.5882 26.1885 10 24.7061 10C21.9414 10 19.6826 12.2588 19.6826 15.0471C19.6826 15.4471 19.7296 15.8353 19.812 16.2C15.6237 15.9882 11.8943 13.9765 9.41198 10.9294C8.97669 11.6706 8.72963 12.5412 8.72963 13.4588C8.72963 15.2118 9.61198 16.7647 10.9767 17.6471C10.1414 17.6471 9.36492 17.4118 8.68257 17.0588V17.0941C8.68257 19.5412 10.4237 21.5882 12.7296 22.0471C11.9893 22.2497 11.2121 22.2778 10.459 22.1294C10.7786 23.1323 11.4044 24.0099 12.2485 24.6387C13.0926 25.2676 14.1125 25.6161 15.1649 25.6353C13.381 27.0476 11.1696 27.811 8.89434 27.8C8.49434 27.8 8.09434 27.7765 7.69434 27.7294C9.92963 29.1647 12.5885 30 15.4355 30C24.7061 30 29.8002 22.3059 29.8002 15.6353C29.8002 15.4118 29.8002 15.2 29.7885 14.9765C30.7767 14.2706 31.6237 13.3765 32.3061 12.3529Z" fill="white"/>
</svg>
