<svg width="40" height="40" viewBox="0 0 40 40" fill="none" xmlns="http://www.w3.org/2000/svg">
<rect width="40" height="40" rx="20" fill="#BA291C"/>
<path d="M27.0498 12.9101C26.133 11.984 25.0409 11.2497 23.8374 10.7501C22.6339 10.2505 21.3429 9.99552 20.0398 10.0001C14.5798 10.0001 10.1298 14.45 10.1298 19.91C10.1298 21.66 10.5898 23.36 11.4498 24.86L10.0498 30L15.2998 28.62C16.7498 29.41 18.3798 29.83 20.0398 29.83C25.4998 29.83 29.9497 25.38 29.9497 19.92C29.9497 17.27 28.9197 14.78 27.0498 12.9101ZM20.0398 28.15C18.5598 28.15 17.1098 27.75 15.8398 27L15.5398 26.82L12.4198 27.64L13.2498 24.6L13.0498 24.29C12.2275 22.977 11.7909 21.4593 11.7898 19.91C11.7898 15.37 15.4898 11.6701 20.0298 11.6701C22.2298 11.6701 24.2998 12.5301 25.8498 14.09C26.6172 14.854 27.2255 15.7627 27.6391 16.7635C28.0528 17.7642 28.2638 18.8371 28.2598 19.92C28.2798 24.46 24.5798 28.15 20.0398 28.15ZM24.5598 21.99C24.3098 21.87 23.0898 21.27 22.8698 21.18C22.6398 21.1 22.4798 21.06 22.3098 21.3C22.1398 21.55 21.6698 22.11 21.5298 22.27C21.3898 22.44 21.2398 22.46 20.9898 22.33C20.7398 22.21 19.9398 21.94 18.9998 21.1C18.2598 20.44 17.7698 19.63 17.6198 19.38C17.4798 19.13 17.5998 19 17.7298 18.87C17.8398 18.76 17.9798 18.58 18.0998 18.44C18.2198 18.3 18.2698 18.19 18.3498 18.03C18.4298 17.86 18.3898 17.72 18.3298 17.6C18.2698 17.48 17.7698 16.26 17.5698 15.76C17.3698 15.28 17.1598 15.34 17.0098 15.33H16.5298C16.3598 15.33 16.0998 15.39 15.8698 15.64C15.6498 15.89 15.0098 16.49 15.0098 17.71C15.0098 18.93 15.8998 20.11 16.0198 20.27C16.1398 20.44 17.7698 22.94 20.2498 24.01C20.8398 24.27 21.2998 24.42 21.6598 24.53C22.2498 24.72 22.7898 24.69 23.2198 24.63C23.6998 24.56 24.6898 24.03 24.8898 23.45C25.0998 22.87 25.0998 22.38 25.0298 22.27C24.9598 22.16 24.8098 22.11 24.5598 21.99Z" fill="white"/>
</svg>
