<svg width="40" height="40" viewBox="0 0 40 40" fill="none" xmlns="http://www.w3.org/2000/svg">
<rect width="40" height="40" rx="20" fill="#BA291C"/>
<path d="M17.7141 23.4286L23.6456 20L17.7141 16.5714V23.4286ZM30.9256 14.48C31.0741 15.0171 31.177 15.7371 31.2456 16.6514C31.3256 17.5657 31.3599 18.3543 31.3599 19.04L31.4284 20C31.4284 22.5029 31.2456 24.3429 30.9256 25.52C30.6399 26.5486 29.977 27.2114 28.9484 27.4971C28.4113 27.6457 27.4284 27.7486 25.9199 27.8171C24.4341 27.8971 23.0741 27.9314 21.817 27.9314L19.9999 28C15.2113 28 12.2284 27.8171 11.0513 27.4971C10.0227 27.2114 9.35986 26.5486 9.07415 25.52C8.92557 24.9829 8.82272 24.2629 8.75415 23.3486C8.67415 22.4343 8.63986 21.6457 8.63986 20.96L8.57129 20C8.57129 17.4971 8.75415 15.6571 9.07415 14.48C9.35986 13.4514 10.0227 12.7886 11.0513 12.5029C11.5884 12.3543 12.5713 12.2514 14.0799 12.1829C15.5656 12.1029 16.9256 12.0686 18.1827 12.0686L19.9999 12C24.7884 12 27.7713 12.1829 28.9484 12.5029C29.977 12.7886 30.6399 13.4514 30.9256 14.48Z" fill="white"/>
</svg>
