<svg width="52" height="52" viewBox="0 0 52 52" fill="none" xmlns="http://www.w3.org/2000/svg">
<rect x="4.25" y="4.25" width="47.5" height="47.5" rx="23.75" fill="#EF4444"/>
<path d="M35 18H21C20.7348 18 20.4804 17.8946 20.2929 17.7071C20.1054 17.5196 20 17.2652 20 17C20 16.7348 20.1054 16.4804 20.2929 16.2929C20.4804 16.1054 20.7348 16 21 16H35C35.2652 16 35.5196 16.1054 35.7071 16.2929C35.8946 16.4804 36 16.7348 36 17C36 17.2652 35.8946 17.5196 35.7071 17.7071C35.5196 17.8946 35.2652 18 35 18Z" fill="white"/>
<path d="M37 21H19C18.7348 21 18.4804 20.8946 18.2929 20.7071C18.1054 20.5196 18 20.2652 18 20C18 19.7348 18.1054 19.4804 18.2929 19.2929C18.4804 19.1054 18.7348 19 19 19H37C37.2652 19 37.5196 19.1054 37.7071 19.2929C37.8946 19.4804 38 19.7348 38 20C38 20.2652 37.8946 20.5196 37.7071 20.7071C37.5196 20.8946 37.2652 21 37 21Z" fill="white"/>
<path d="M38.1956 40H17.8044C17.0609 39.9992 16.348 39.7034 15.8223 39.1777C15.2966 38.652 15.0008 37.9391 15 37.1956V24.8044C15.0008 24.0609 15.2966 23.348 15.8223 22.8223C16.348 22.2966 17.0609 22.0008 17.8044 22H38.1956C38.9391 22.0008 39.652 22.2966 40.1777 22.8223C40.7034 23.348 40.9992 24.0609 41 24.8044V37.1956C40.9992 37.9391 40.7034 38.652 40.1777 39.1777C39.652 39.7034 38.9391 39.9992 38.1956 40Z" fill="white"/>
<rect x="4.25" y="4.25" width="47.5" height="47.5" rx="23.75" stroke="#EF4444" stroke-width="0.5"/>
<rect x="0.5" y="0.5" width="51" height="51" rx="25.5" stroke="#EF4444" stroke-dasharray="4 2"/>
</svg>
