<svg width="53" height="52" viewBox="0 0 53 52" fill="none" xmlns="http://www.w3.org/2000/svg">
<rect x="4.58331" y="4.25" width="47.5" height="47.5" rx="23.75" fill="#EC44EF"/>
<path d="M35.3333 18H21.3333C21.0681 18 20.8137 17.8946 20.6262 17.7071C20.4387 17.5196 20.3333 17.2652 20.3333 17C20.3333 16.7348 20.4387 16.4804 20.6262 16.2929C20.8137 16.1054 21.0681 16 21.3333 16H35.3333C35.5985 16 35.8529 16.1054 36.0404 16.2929C36.228 16.4804 36.3333 16.7348 36.3333 17C36.3333 17.2652 36.228 17.5196 36.0404 17.7071C35.8529 17.8946 35.5985 18 35.3333 18Z" fill="white"/>
<path d="M37.3333 21H19.3333C19.0681 21 18.8137 20.8946 18.6262 20.7071C18.4387 20.5196 18.3333 20.2652 18.3333 20C18.3333 19.7348 18.4387 19.4804 18.6262 19.2929C18.8137 19.1054 19.0681 19 19.3333 19H37.3333C37.5985 19 37.8529 19.1054 38.0404 19.2929C38.228 19.4804 38.3333 19.7348 38.3333 20C38.3333 20.2652 38.228 20.5196 38.0404 20.7071C37.8529 20.8946 37.5985 21 37.3333 21Z" fill="white"/>
<path d="M38.5289 40H18.1377C17.3942 39.9992 16.6814 39.7034 16.1556 39.1777C15.6299 38.652 15.3341 37.9391 15.3333 37.1956V24.8044C15.3341 24.0609 15.6299 23.348 16.1556 22.8223C16.6814 22.2966 17.3942 22.0008 18.1377 22H38.5289C39.2725 22.0008 39.9853 22.2966 40.511 22.8223C41.0368 23.348 41.3325 24.0609 41.3333 24.8044V37.1956C41.3325 37.9391 41.0368 38.652 40.511 39.1777C39.9853 39.7034 39.2725 39.9992 38.5289 40Z" fill="white"/>
<rect x="4.58331" y="4.25" width="47.5" height="47.5" rx="23.75" stroke="#EC44EF" stroke-width="0.5"/>
<rect x="0.833313" y="0.5" width="51" height="51" rx="25.5" stroke="#EC44EF" stroke-dasharray="4 2"/>
</svg>
