<svg width="60" height="60" viewBox="0 0 60 60" fill="none" xmlns="http://www.w3.org/2000/svg">
<path d="M30 43.75C33.125 43.75 35.7817 42.6558 37.97 40.4675C40.1583 38.2792 41.2517 35.6233 41.25 32.5C41.25 29.375 40.1558 26.7183 37.9675 24.53C35.7792 22.3417 33.1233 21.2483 30 21.25C26.875 21.25 24.2183 22.3442 22.03 24.5325C19.8417 26.7208 18.7483 29.3767 18.75 32.5C18.75 35.625 19.8442 38.2817 22.0325 40.47C24.2208 42.6583 26.8767 43.7517 30 43.75ZM10 52.5C8.625 52.5 7.4475 52.01 6.4675 51.03C5.4875 50.05 4.99834 48.8733 5 47.5V17.5C5 16.125 5.49 14.9475 6.47 13.9675C7.45 12.9875 8.62667 12.4983 10 12.5H17.875L21 9.12502C21.4583 8.58335 22.0108 8.17668 22.6575 7.90502C23.3042 7.63335 23.98 7.49835 24.685 7.50002H35.31C36.0183 7.50002 36.6958 7.63585 37.3425 7.90752C37.9892 8.17918 38.5408 8.58502 38.9975 9.12502L42.125 12.5H50C51.375 12.5 52.5525 12.99 53.5325 13.97C54.5125 14.95 55.0017 16.1267 55 17.5V47.5C55 48.875 54.51 50.0525 53.53 51.0325C52.55 52.0125 51.3733 52.5017 50 52.5H10Z" fill="#EE3524"/>
</svg>
