<svg width="60" height="60" viewBox="0 0 60 60" fill="none" xmlns="http://www.w3.org/2000/svg">
<path d="M46.25 30C41.5 30 37.5 34 37.5 38.75C37.5 45.25 46.25 55 46.25 55C46.25 55 55 45.25 55 38.75C55 34 51 30 46.25 30ZM46.25 42C44.5 42 43.25 40.5 43.25 39C43.25 37.25 44.75 36 46.25 36C47.75 36 49.25 37.5 49.25 39C49.5 40.5 48 42 46.25 42ZM36.375 50H10C8.67392 50 7.40215 49.4732 6.46447 48.5355C5.52678 47.5979 5 46.3261 5 45V15C5 13.6739 5.52678 12.4021 6.46447 11.4645C7.40215 10.5268 8.67392 10 10 10H50C52.775 10 55 12.225 55 15V28.25C53.5374 27.0147 51.8351 26.0954 50 25.55V20H10V27.5H38.475C34.9 30 32.5 34.15 32.5 38.75C32.5 42.5 34.3 46.525 36.375 50Z" fill="#EE3524"/>
</svg>
