<svg width="60" height="60" viewBox="0 0 60 60" fill="none" xmlns="http://www.w3.org/2000/svg">
<path d="M47.5 15C45.4167 15 43.6458 14.2708 42.1875 12.8125C40.7292 11.3542 40 9.58333 40 7.5C40 5.41667 40.7292 3.64583 42.1875 2.1875C43.6458 0.729167 45.4167 0 47.5 0C49.5833 0 51.3542 0.729167 52.8125 2.1875C54.2708 3.64583 55 5.41667 55 7.5C55 9.58333 54.2708 11.3542 52.8125 12.8125C51.3542 14.2708 49.5833 15 47.5 15ZM5 55V10C5 8.625 5.49 7.4475 6.47 6.4675C7.45 5.4875 8.62667 4.99833 10 5H35.25C35.0833 5.83333 35 6.66667 35 7.5C35 8.33333 35.0833 9.16667 35.25 10C35.8333 12.875 37.2708 15.2608 39.5625 17.1575C41.8542 19.0542 44.5 20.0017 47.5 20C48.8333 20 50.1458 19.7917 51.4375 19.375C52.7292 18.9583 53.9167 18.3333 55 17.5V40C55 41.375 54.51 42.5525 53.53 43.5325C52.55 44.5125 51.3733 45.0017 50 45H15L5 55Z" fill="#EE3524"/>
</svg>
