<svg width="60" height="60" viewBox="0 0 60 60" fill="none" xmlns="http://www.w3.org/2000/svg">
<path d="M9.07989 41.7879C10.1568 41.0636 11.424 40.6745 12.7217 40.6696C14.4682 40.6719 16.1426 41.3658 17.3788 42.5995C18.6149 43.8332 19.3122 45.5063 19.318 47.2527C19.3156 48.5505 18.929 49.8184 18.2069 50.8968C17.4846 51.9754 16.459 52.816 15.2595 53.3123C14.06 53.8087 12.7403 53.9387 11.467 53.6859C10.1937 53.433 9.02387 52.8087 8.10502 51.8917C7.18618 50.9747 6.55954 49.806 6.30418 48.5332C6.04881 47.2604 6.17616 45.9405 6.67016 44.74C7.16416 43.5396 8.00267 42.5123 9.07989 41.7879Z" fill="#EE3524" stroke="#EE3524"/>
<path d="M6.125 31.522V22.3793C23.2315 22.65 37.35 36.7805 37.6207 53.875H28.4652C28.3694 47.8532 26.532 42.0729 22.2289 37.771C17.9265 33.4698 12.1359 31.6186 6.125 31.522Z" fill="#EE3524" stroke="#EE3524"/>
<path d="M5.625 5.625V15.7687C27.334 15.7687 44.2055 32.6531 44.2055 54.375H54.375C54.375 27.4992 32.5395 5.625 5.625 5.625Z" fill="#EE3524"/>
</svg>
