<svg width="41" height="42" viewBox="0 0 41 42" fill="none" xmlns="http://www.w3.org/2000/svg">
<path fill-rule="evenodd" clip-rule="evenodd" d="M20.7535 0C20.9305 9.00778 30.6176 14.6006 38.507 10.25C34.666 12.5694 32.7379 16.5081 32.7228 20.4532C32.9897 20.4768 33.259 20.4925 33.5303 20.5C33.259 20.5075 32.9897 20.5232 32.7228 20.5468C32.7379 24.4919 34.666 28.4306 38.507 30.75C30.6176 26.3994 20.9305 31.9922 20.7535 41C20.5765 31.9922 10.8894 26.3994 3 30.75C6.84103 28.4306 8.76912 24.4919 8.78427 20.5469C8.51717 20.5232 8.24777 20.5075 7.97629 20.5C8.24777 20.4925 8.51717 20.4768 8.78427 20.4531C8.76912 16.5081 6.84103 12.5694 3 10.25C10.8894 14.6006 20.5765 9.00778 20.7535 0Z" fill="#EE3524"/>
</svg>
