<svg width="41" height="42" viewBox="0 0 41 42" fill="none" xmlns="http://www.w3.org/2000/svg">
<path fill-rule="evenodd" clip-rule="evenodd" d="M17.9118 17.683L2.21421 9.79441L17.0646 19.8161L9.81296 19.276L16.6973 20.3318L0 25.86L17.5794 22.4472L12.0817 27.1826L17.6968 23.0608L9.79441 38.7858L19.8155 23.9363L19.2768 31.1692L20.3305 24.2987L25.86 41L22.4425 23.3964L27.1834 28.9005L23.0829 23.3143L38.7858 31.2056L23.9065 21.1644L31.17 21.7054L24.3357 20.6572L41 15.14L23.3707 18.5625L28.9013 13.7988L23.328 17.8898L31.2056 2.21421L21.1638 17.0944L21.7062 9.81216L20.6559 16.6603L15.14 0L18.5578 17.6051L13.7996 12.0809L17.9118 17.683Z" fill="#EE3524"/>
</svg>
