<svg width="122" height="164" viewBox="0 0 122 164" fill="none" xmlns="http://www.w3.org/2000/svg">
<path d="M144.343 115.824C145.008 116.141 145.265 116.79 145.084 117.529C144.902 118.268 144.343 118.645 143.618 118.72C143.104 118.766 142.545 118.781 142.047 118.675C138.813 117.951 135.655 117.001 132.543 115.87C130.654 115.176 128.72 114.693 126.68 114.316C126.65 115.055 127.134 115.342 127.511 115.658C129.415 117.272 130.533 119.279 130.986 121.752C131.394 124 130.866 125.795 129.143 127.288C128.388 127.952 127.677 128.676 127.013 129.43C126.151 130.381 125.97 131.437 126.665 132.598C126.907 133.006 127.103 133.458 127.285 133.896C127.36 134.077 127.33 134.288 127.164 134.423C126.998 134.544 126.801 134.514 126.65 134.378C126.574 134.318 126.499 134.258 126.439 134.182C124.051 131.588 120.893 130.517 117.599 129.747C116.24 129.43 114.865 129.265 113.475 129.249C111.405 129.219 109.395 128.767 107.385 128.224C106.736 128.058 106.086 127.877 105.421 127.756C104.258 127.545 103.23 127.726 102.188 128.465C98.0327 131.361 93.4394 133.413 88.68 135.087C88.3627 135.193 88.0302 135.283 87.7281 135.419C84.54 136.852 81.2159 136.852 77.8465 136.4C76.8946 136.279 75.9276 136.309 74.9757 136.279C72.7848 136.219 70.7148 135.736 68.7506 134.725C65.3358 132.945 62.2535 130.667 59.0201 128.601C56.0133 126.685 53.9584 123.97 52.1151 121.028C51.3898 119.867 51.4049 119.897 50.1206 120.184C48.4586 120.561 46.7814 120.304 45.1194 120.108C44.4546 120.033 43.82 119.972 43.1249 120.048C42.1126 120.169 41.1305 119.776 40.2088 119.399C35.9933 117.725 32.7447 114.904 30.1308 111.178C28.0759 108.267 26.4139 105.159 24.7518 102.037C23.7395 100.121 23.2862 97.9944 22.5458 95.973C21.3371 92.5941 20.5363 89.0794 19.8261 85.5647C19.4182 83.5132 19.2067 81.4014 18.9649 79.3197C18.3605 74.2211 20.4607 69.9522 22.9387 65.8342C25.0389 62.3496 27.7888 59.4383 31.3849 57.3868C32.5936 56.6929 33.6664 55.7879 34.8449 55.0638C36.4768 54.0682 38.2446 53.5855 40.1786 53.7816C41.2967 53.9023 42.3997 53.6609 43.4422 53.3442C46.177 52.4994 48.9723 52.2279 51.7978 52.0922C53.3389 52.0167 52.9914 51.4586 52.4021 50.629C52.0697 50.1764 51.6165 49.7993 51.1934 49.4071C50.589 48.8339 50.1206 48.1853 50.0753 47.3104C50.0148 46.2846 50.4983 45.636 51.5258 45.5304C52.8856 45.3795 54.1699 45.4399 55.3183 46.4204C56.5119 47.4461 56.8594 48.4719 56.3155 49.9652C55.7564 51.4737 55.7715 51.4888 57.3429 51.4134C58.5819 51.353 59.836 51.3078 61.075 51.2625C61.6038 51.2474 62.1175 51.2173 62.5859 50.8854C63.5982 50.1463 64.5804 49.3769 65.7136 48.8339C66.2273 48.5926 66.2122 48.14 65.8798 47.7629C65.0034 46.7824 65.0639 45.5756 64.9883 44.384C64.7466 40.6883 65.7287 37.2641 67.149 33.9455C68.1462 31.5923 69.7025 29.7067 72.0293 28.5C73.2381 27.8664 74.5677 27.61 75.8671 27.3686C77.1212 27.1273 78.4508 28.153 78.9646 29.4654C79.2668 30.2498 79.2214 31.0643 79.2517 31.8789C79.297 33.3119 79.1459 34.76 79.5236 36.1629C79.7805 37.0982 80.1431 37.973 80.9288 38.6066C81.8203 39.3156 82.1678 40.4318 82.8628 41.2464C84.9026 43.6448 86.1264 46.5411 87.8792 49.1054C88.3627 49.8144 88.6951 49.7691 89.2541 49.4524C89.9945 49.0149 90.6895 48.4719 91.445 48.0948C95.9174 45.8623 100.556 44.4292 105.663 44.6555C108.428 44.7762 111.102 45.0024 113.626 46.2394C114.426 46.6316 115.348 46.8427 116.24 47.0388C119.231 47.6724 121.709 49.2714 124.112 51.0664C124.489 51.353 124.867 51.6547 125.275 51.9111C128.69 54.0381 131.062 57.0097 132.512 60.7507C132.784 61.4596 133.026 62.2139 133.434 62.8474C135.761 66.4828 135.912 70.4953 135.549 74.6133C135.383 76.3933 135.021 78.0828 134.265 79.7119C133.404 81.5824 132.694 83.5132 131.938 85.4289C130.246 89.7129 127.254 92.8204 123.266 95.0378C123.145 95.1132 123.039 95.2037 122.933 95.2942C122.903 95.3244 122.903 95.3696 122.842 95.5356C124.928 96.1239 126.65 97.4664 128.66 98.2357C131.258 99.2313 133.419 100.875 135.519 102.64C136.109 103.138 136.698 103.636 137.287 104.119C139.916 106.291 141.88 108.961 143.21 112.098C143.542 112.868 143.558 113.682 143.573 114.497C143.618 115.025 143.678 115.523 144.343 115.824ZM143.316 117.634C142.636 116.413 142.711 115.085 142.651 113.773C142.636 113.577 142.636 113.396 142.621 113.2C142.621 113.154 142.606 113.109 142.606 113.064C142.591 112.928 142.56 112.792 142.515 112.656C142.5 112.611 142.485 112.566 142.47 112.521C142.47 112.506 142.455 112.475 142.455 112.46C142.424 112.385 142.409 112.325 142.379 112.264C142.379 112.249 142.364 112.234 142.364 112.219C142.349 112.189 142.334 112.159 142.334 112.144C142.334 112.129 142.319 112.129 142.319 112.113C142.107 111.646 141.88 111.193 141.639 110.756C140.309 108.282 138.602 106.11 136.335 104.36C135.61 103.802 134.915 103.214 134.235 102.61C132.573 101.132 130.76 99.9252 128.69 99.0804C127.677 98.6731 126.68 98.1754 125.743 97.6021C124.58 96.8932 123.326 96.4557 122.027 96.1239C121.044 95.8825 120.093 95.5808 119.141 95.2791C117.086 94.6154 115.061 93.9215 112.916 93.5746C111.208 93.288 109.576 93.3936 108.035 94.2383C107.28 94.6607 107.023 95.0076 107.31 95.43C107.325 95.4451 107.34 95.4601 107.34 95.4752C107.461 95.6412 107.642 95.8071 107.914 96.0032C109.214 96.9384 110.302 98.0396 111.163 99.3821C111.329 99.6536 111.586 99.895 111.843 100.106C112.356 100.529 112.84 100.966 113.278 101.449C113.459 101.645 113.641 101.841 113.807 102.052C114.275 102.625 114.714 103.214 115.122 103.832C115.333 104.134 115.529 104.451 115.726 104.767C115.832 104.933 115.937 105.099 116.028 105.265C116.406 105.899 116.784 106.547 117.161 107.181C117.176 107.211 117.192 107.241 117.222 107.271C117.237 107.301 117.252 107.317 117.252 107.332C117.751 108.297 117.705 109.293 117.161 110.273C116.92 110.711 116.602 111.163 116.678 111.676H116.693C116.693 111.691 116.693 111.691 116.693 111.706C117.086 111.963 117.403 111.767 117.72 111.706C120.047 111.284 122.314 111.676 124.459 112.566C125.396 112.958 126.303 113.365 127.285 113.592C129.763 114.165 132.18 114.934 134.582 115.749C136.94 116.548 139.312 117.348 141.775 117.74C141.971 117.77 142.183 117.815 142.394 117.83C142.636 117.83 142.938 117.8 143.316 117.634ZM134.522 72.1998C134.613 69.2734 134.507 66.4979 133.041 63.9033C132.543 63.0284 132.165 62.0932 131.772 61.173C131.092 59.5892 130.473 57.9751 129.324 56.6477C128.962 56.2253 128.584 55.803 128.191 55.3957C127.028 54.1738 125.789 53.0425 124.293 52.1978C123.553 51.7754 122.903 51.172 122.193 50.6893C120.531 49.558 118.808 48.5473 116.814 48.0344C116.708 48.0043 116.602 47.9892 116.496 47.959C115.348 47.6573 114.215 47.3254 113.097 46.9031C112.689 46.7522 112.296 46.5863 111.888 46.4053C110.74 45.8773 109.531 45.5756 108.277 45.5002C108.096 45.4851 107.929 45.4851 107.748 45.4851C107.597 45.4851 107.431 45.4851 107.28 45.5002C106.373 45.5455 105.451 45.4851 104.545 45.4701C98.9091 45.3041 93.9834 47.2651 89.3599 50.2368C89.1484 50.3725 88.9217 50.5234 88.7102 50.6591C88.4533 50.8251 88.2871 51.0362 88.1662 51.2927C88.136 51.3832 88.1058 51.4737 88.0756 51.5642C88.0605 51.6245 88.0454 51.6849 88.0302 51.7301C87.8036 52.3938 87.3352 52.8615 86.7459 53.0877C86.5948 53.1481 86.4438 53.1933 86.2775 53.2235C85.0537 53.4498 84.3587 54.2492 83.7543 55.1845C83.7392 55.2147 83.7241 55.2448 83.6938 55.275C83.437 55.6823 83.2859 55.984 83.2708 56.2555C83.2708 56.3007 83.2708 56.3309 83.2708 56.3762C83.301 56.7231 83.573 57.0248 84.1169 57.4773C85.3105 58.4427 86.4135 59.4836 87.2899 60.7658C87.6374 61.2786 87.9547 61.7915 88.2569 62.3195C89.8132 65.0648 90.8104 68.0817 91.7321 71.0685C91.7623 71.1892 91.8076 71.2947 91.8378 71.4154C92.8048 74.5832 93.0768 77.9018 92.7595 81.1902C92.7142 81.6277 92.6689 82.0651 92.6084 82.4875C92.5631 82.8042 92.5027 83.1361 92.4573 83.4529C92.4422 83.5585 92.412 83.6791 92.3969 83.7847C91.9134 86.3038 91.3846 88.823 90.5535 91.2516C90.478 91.4929 90.3873 91.7343 90.2967 91.9756C90.1607 92.3377 90.0247 92.6997 89.8736 93.0466C89.7678 93.288 89.6621 93.5143 89.5563 93.7556C89.3448 94.2232 89.1181 94.6908 88.8613 95.1434C88.8008 95.2641 88.7404 95.3696 88.68 95.4903C88.6044 95.5959 88.6346 95.7618 88.6195 95.8825C88.8613 96.0937 89.1181 96.0635 89.375 96.0183C89.4052 96.0183 89.4354 96.0032 89.4656 96.0032C92.0494 95.5356 94.6331 95.083 97.2168 94.5853C97.8816 94.4646 98.5464 94.3137 99.2112 94.178C99.4832 94.1176 99.7552 94.0724 100.027 94.012C100.057 94.012 100.103 93.9969 100.133 93.9969C102.278 93.6048 104.439 93.4388 106.615 93.8914C106.887 93.9517 107.114 93.8914 107.34 93.8008C107.37 93.7858 107.416 93.7707 107.446 93.7556C107.476 93.7405 107.506 93.7254 107.537 93.7104C107.567 93.6953 107.582 93.6953 107.597 93.6802C107.627 93.6651 107.673 93.65 107.703 93.6198C107.854 93.5444 107.99 93.469 108.141 93.3936C109.863 92.6092 111.677 92.6243 113.565 92.9712C115.529 93.3332 117.388 93.9366 119.262 94.54C119.533 94.6305 119.79 94.7059 120.062 94.7964C120.561 94.9473 121.044 95.1585 121.588 94.8718C123.779 93.7556 125.834 92.4131 127.451 90.5577C129.415 88.3101 130.896 85.6854 131.848 82.8797C133.011 79.3951 134.416 76.0011 134.522 72.1998ZM129.747 124.981C130.14 122.658 130.095 120.395 128.614 118.389C128.07 117.649 127.33 117.106 126.665 116.488C126.167 116.035 125.471 115.598 125.456 114.949C125.426 114.18 125.079 113.758 124.61 113.471C124.58 113.441 124.55 113.426 124.504 113.411C124.263 113.275 123.991 113.169 123.704 113.079C122.147 112.551 120.546 112.219 118.899 112.37C117.63 112.491 116.496 112.762 115.575 113.939C114.109 115.824 112.84 117.861 111.208 119.626C109.123 121.903 107.748 124.815 104.968 126.459C104.938 126.474 104.953 126.549 104.908 126.7C104.923 126.7 104.953 126.715 104.968 126.715V126.73C105.92 126.972 106.887 127.198 107.839 127.454C109.833 127.997 111.858 128.375 113.928 128.435C115.907 128.495 117.811 128.797 119.669 129.37C119.851 129.43 120.047 129.491 120.229 129.551C120.878 129.762 121.513 130.004 122.132 130.29C122.223 130.336 122.314 130.366 122.404 130.411C122.495 130.456 122.586 130.486 122.676 130.532C122.767 130.577 122.858 130.622 122.948 130.667C123.432 130.909 123.915 131.15 124.444 131.422C124.776 131.588 125.139 131.784 125.532 131.98C125.547 131.995 125.577 131.995 125.592 132.01C125.351 129.777 126.801 128.646 128.055 127.409C128.433 127.047 128.78 126.64 129.158 126.278C129.43 125.946 129.627 125.569 129.732 125.177C129.717 125.086 129.732 125.026 129.747 124.981ZM116.572 109.081C116.753 108.523 116.542 107.98 116.255 107.482C115.469 106.034 114.593 104.677 113.611 103.395C112.628 102.112 111.525 100.921 110.286 99.8196C110.151 99.6838 109.999 99.5179 109.803 99.5933C109.108 99.8497 108.715 99.3821 108.337 98.9597C107.869 98.4469 107.295 98.1301 106.645 97.9038C105.723 97.5871 104.832 97.2552 104.031 96.7122C103.578 96.4105 103.17 96.3954 102.671 96.5161C101.689 96.7725 100.707 96.9384 99.725 97.1798C97.111 97.8133 94.4518 98.1452 91.8227 98.6732C89.375 99.171 86.9877 99.895 84.5853 100.544C83.4068 100.86 82.2282 100.981 81.0195 100.86C80.5964 100.815 80.3697 100.634 80.3395 100.348C80.3395 100.317 80.3395 100.287 80.3395 100.242C80.3546 100.136 80.3849 100.001 80.4453 99.8799C80.6115 99.533 80.8533 99.2162 81.1857 99.0201C81.231 98.9899 81.2914 98.9748 81.3519 98.9597C81.5634 98.9296 81.7598 99.0804 81.6843 99.2614C81.2914 100.302 82.0016 100.091 82.5455 100.076C83.3161 100.061 84.0564 99.8648 84.7968 99.6687C87.3503 98.9899 89.8585 98.1603 92.4573 97.7379C95.1468 97.3005 97.8061 96.682 100.496 96.2144C101.387 96.0635 102.278 95.8222 103.155 95.5959C103.502 95.5054 103.774 95.2188 103.744 94.8718C103.684 94.4042 103.245 94.5249 102.928 94.5249C102.399 94.5249 101.871 94.54 101.357 94.6305C99.9818 94.8719 98.6371 95.249 97.2621 95.4149C91.868 96.1088 86.6704 97.753 81.2914 98.5223V98.4921C80.7928 98.5676 80.2791 98.6279 79.7805 98.6882C79.4783 98.7184 79.161 98.7938 79.025 99.0503C79.0099 99.0654 79.0099 99.0804 79.0099 99.0804C78.9797 99.1559 78.9495 99.2313 78.9344 99.352C78.9192 99.5782 78.8739 99.7894 78.7984 99.9553C78.7833 99.9704 78.7833 99.9855 78.7682 100.001C78.4811 100.559 77.8767 100.815 77.2723 101.041C75.7916 101.615 74.3109 102.188 73.0114 103.108C71.9084 103.892 70.6997 104.481 69.4909 105.054C68.811 105.386 68.0858 105.703 67.4814 106.155C66.1517 107.151 65.079 108.267 64.4746 109.655C64.4444 109.715 64.4293 109.775 64.399 109.836C64.0364 110.726 63.8551 111.706 63.9156 112.822C64.0213 114.798 64.5955 116.609 65.5172 118.283C66.1517 119.429 66.7259 120.697 67.8591 121.511C70.1255 123.125 72.4071 124.709 74.885 125.961C78.3451 127.726 82.0771 128.239 86.0207 128.209C88.4986 128.269 91.0975 128.073 93.6358 127.651C97.519 126.987 101.266 125.81 105.013 124.649C106.071 124.317 106.842 123.698 107.491 122.823C108.972 120.878 110.513 118.992 112.024 117.076C112.855 116.005 113.792 114.98 114.472 113.818C114.517 113.758 114.547 113.682 114.593 113.622C114.698 113.456 114.789 113.275 114.88 113.109C114.94 113.003 114.986 112.898 115.046 112.792C115.137 112.611 115.212 112.43 115.303 112.249C115.771 111.223 116.149 110.168 116.557 109.127C116.557 109.127 116.572 109.112 116.572 109.081ZM103.215 126.564C103.155 126.474 103.109 126.398 103.049 126.308C102.928 126.338 102.792 126.368 102.671 126.398C101.78 126.61 100.888 126.806 99.9969 127.077C94.4971 128.903 88.831 129.4 83.1046 129.053C80.4755 128.903 77.9069 128.359 75.4592 127.243C72.6488 125.961 70.186 124.106 67.6476 122.416C67.013 121.994 66.5295 121.39 66.0611 120.772C65.638 120.229 65.2754 119.656 64.943 119.067C64.807 118.811 64.671 118.555 64.5501 118.298C63.9458 117.016 63.5378 115.658 63.281 114.255C62.7672 111.585 63.3867 109.112 65.3358 107.09C66.4086 105.974 67.6778 105.129 69.0981 104.496C70.0651 104.073 71.0472 103.636 71.9085 103.048C73.5403 101.931 75.3081 101.102 77.1514 100.393C77.4234 100.287 77.6803 100.167 77.922 100.016C78.1487 99.8799 78.2242 99.6386 78.1638 99.3972C78.1487 99.3218 78.1184 99.2615 78.0731 99.2162C78.058 99.2011 78.058 99.186 78.0429 99.1709C77.9371 99.0503 77.786 98.9899 77.6047 99.005C77.4083 99.0201 77.2119 99.0201 77.0306 99.0503C74.054 99.5631 71.0925 100.076 68.252 101.192C63.9307 102.897 59.7302 104.888 55.56 106.924C54.5326 107.437 53.49 107.92 52.4475 108.418C51.4654 108.885 50.9063 109.67 50.7099 110.726C50.3624 112.611 50.4379 114.452 51.2236 116.216C51.3747 116.563 51.5258 116.895 51.6164 117.272C51.828 118.072 52.0546 118.856 52.3568 119.626C52.4777 119.927 52.6137 120.244 52.7648 120.531C53.0669 121.164 53.4447 121.768 53.9131 122.326C54.1548 122.627 54.4268 122.899 54.6081 123.231C55.4845 124.83 56.7688 126.021 58.2495 127.047C61.6642 129.43 65.0941 131.784 68.7808 133.775C70.7601 134.846 72.8452 135.434 75.1117 135.404C75.9276 135.389 76.7435 135.389 77.5443 135.494C81.0648 135.962 84.5249 135.977 87.8338 134.423C88.0907 134.303 88.3778 134.227 88.6497 134.137C92.9257 132.659 96.9902 130.728 100.813 128.329C101.417 127.907 102.022 127.454 102.611 127.002C102.807 126.851 103.004 126.7 103.215 126.564ZM91.6414 83.3925C91.8529 81.8992 91.9587 80.3756 91.9285 78.837C91.9285 78.656 91.9285 78.4901 91.9285 78.3091C91.9285 77.7208 91.9134 77.1325 91.8832 76.5442C91.8832 76.5291 91.8832 76.514 91.8832 76.4989C91.8529 75.8955 91.8076 75.2921 91.717 74.6888C91.0068 69.9221 89.103 65.623 86.8366 61.4295C86.3078 60.449 85.5976 59.5892 84.7364 58.8953C82.1829 56.8739 79.5841 54.928 76.6982 53.3743C74.7339 52.3184 72.6941 52.0922 70.5939 52.4391C67.9044 52.8916 65.2301 53.4347 62.6161 54.2191C56.0889 56.165 56.0586 56.1046 50.0753 56.0292C48.7759 56.0141 47.4765 55.9538 46.2073 55.6672C43.7293 55.1091 41.2665 54.6264 38.6828 54.8979C37.8064 54.9884 36.9754 55.0638 36.2048 55.4862C34.0593 56.6628 32.0346 58.0204 29.9948 59.3629C29.2696 59.8305 28.6652 60.3886 28.091 60.992C28.0457 61.0373 28.0004 61.0825 27.955 61.1278C27.1542 61.9725 26.429 62.9078 25.6433 63.7827C22.3645 67.4029 20.778 71.7322 20.1888 76.4838C19.7808 79.8929 20.3852 83.2417 21.0349 86.5905C21.5788 89.4113 22.4401 92.1416 23.1653 94.9171C23.6942 96.9384 24.3439 98.9748 25.3109 100.845C26.4441 103.002 27.6075 105.159 28.8767 107.241C30.7805 110.349 32.775 113.396 36.0386 115.326C37.1114 115.96 38.1237 116.669 39.0605 117.499C40.0577 118.374 41.2816 118.796 42.5961 118.947C43.8351 119.082 45.0589 119.264 46.2979 119.414C47.5973 119.58 48.8816 119.626 50.1659 119.339C50.6041 119.248 50.861 119.173 50.9516 119.037C51.1178 118.871 51.0574 118.615 50.861 118.057C50.7703 117.785 50.6343 117.529 50.5437 117.257C49.8789 115.507 49.4407 113.743 49.5918 111.842C49.6824 110.816 49.9242 109.926 50.4228 109.187C50.4681 109.112 50.5286 109.051 50.5739 108.976C50.9365 108.508 51.4351 108.116 52.0395 107.799C53.0972 107.241 54.185 106.758 55.2578 106.215C59.3978 104.134 63.5831 102.128 67.9196 100.423C71.3343 99.0804 74.9152 98.4167 78.5415 98.0396C81.2159 97.7681 83.86 97.3306 86.4589 96.6367C86.7308 96.5613 87.0481 96.5311 87.2748 96.3954C87.2899 96.3803 87.305 96.3803 87.3201 96.3652C87.3352 96.3501 87.3503 96.3501 87.3654 96.3351C87.4561 96.2596 87.5316 96.1691 87.577 96.0334C88.1813 94.1176 89.5563 92.5338 89.9038 90.4973C89.9794 89.9845 90.1154 89.4716 90.2816 88.9587C90.342 88.7928 90.3873 88.6118 90.4478 88.4458C90.5082 88.2648 90.5686 88.0687 90.6291 87.8877C91.0824 86.4094 91.4299 84.9161 91.6414 83.3925ZM87.3654 50.4781C87.3805 50.3876 87.3805 50.282 87.3654 50.1764C87.3352 49.8144 87.2143 49.4675 87.033 49.1205C87.0179 49.0903 87.0028 49.0602 86.9877 49.0451C86.897 48.8942 86.8064 48.7585 86.7157 48.6227C86.6251 48.487 86.5193 48.3512 86.4135 48.2004C85.9905 47.6573 85.6278 47.0992 85.3105 46.5109C85.3105 46.5109 85.3105 46.4958 85.2954 46.4958C85.1897 46.2997 85.0839 46.0885 84.9932 45.8924C83.9658 43.6599 82.0922 41.9855 80.9892 39.7983C80.9288 39.6776 80.8079 39.572 80.7022 39.4815C79.1308 38.2144 78.6171 36.5098 78.5415 34.6092C78.5415 34.4885 78.5264 34.3528 78.5264 34.2321C78.5113 33.4326 78.4962 32.618 78.466 31.8186C78.4357 31.3359 78.4055 30.8381 78.3602 30.3554C78.2393 29.0581 77.0759 27.8966 76.0031 28.1078C74.7944 28.3491 73.5705 28.5754 72.4373 29.1637C70.2464 30.295 68.8261 32.0901 67.844 34.3075C66.2726 37.8524 65.7287 41.533 65.9553 45.3645C65.9553 45.4248 65.9553 45.4851 65.9704 45.5455C66.0007 46.0282 66.0913 46.4958 66.318 46.9333C66.5899 47.4461 66.877 47.5366 67.285 47.069C67.9347 46.2997 68.5088 45.5153 68.8261 44.5951C68.8261 44.5951 68.8261 44.5801 68.8412 44.565C68.8563 44.5197 68.8715 44.4896 68.8866 44.4443C68.9319 44.3236 68.9621 44.203 68.9923 44.0823C69.0225 43.9918 69.0377 43.9013 69.0528 43.8108C69.0679 43.7655 69.0679 43.7203 69.083 43.675C69.0981 43.5694 69.1132 43.4638 69.1132 43.3582C69.1132 43.328 69.1132 43.2828 69.1283 43.2375C69.1888 42.3325 69.3398 41.4274 69.4607 40.5374C69.5967 39.4966 70.1406 38.6519 70.7148 37.792C70.7148 37.9429 70.6997 38.1088 70.6997 38.2597C70.6846 38.4407 70.6695 38.6066 70.6544 38.7725C70.6393 38.9385 70.6241 39.0893 70.5939 39.2552C70.5939 39.3005 70.5788 39.3457 70.5788 39.391C70.5486 39.6625 70.5033 39.919 70.458 40.1754C70.2464 41.4123 69.9744 42.6493 69.8989 43.9013C69.8989 43.9616 69.8838 44.037 69.8838 44.0974V44.1124C70.3522 44.2331 70.5486 43.8862 70.8357 43.7504C71.6214 43.3884 71.9991 42.8303 72.0444 42.0459C72.0444 41.9403 72.0444 41.8347 72.0444 41.7291C72.0444 41.6688 72.0293 41.5933 72.0293 41.533C72.0293 41.4727 72.0142 41.4123 72.0142 41.3369C72.0142 41.2011 72.0142 41.0805 72.0142 40.9447C72.0444 40.4318 72.1351 39.919 72.1955 39.4061C72.4373 37.0076 74.0238 35.1372 74.6433 32.8896C74.6584 32.8443 74.8095 32.8292 75.0361 32.7689C74.7944 34.0963 74.3411 35.3483 73.9029 36.6305C73.782 36.9926 73.6611 37.3697 73.5403 37.7317C73.1021 39.1346 72.7546 40.5827 72.815 42.1665V42.1816C73.8123 41.2615 74.7037 40.6279 75.6556 40.0698C76.6075 39.5117 77.499 38.8329 78.7379 38.4708C78.3602 39.6776 77.0608 39.6927 76.5471 40.5676C76.5471 40.5676 76.5471 40.5676 76.5622 40.5676C76.5622 40.5676 76.5622 40.5676 76.5471 40.5827C77.6349 41.171 78.8286 40.5072 80.0978 41.3218C78.6473 41.533 77.5141 41.4877 76.3809 41.3218C74.9303 41.1257 74.2957 41.4274 73.5252 42.8604C73.5252 42.8604 73.5252 42.8604 73.5403 42.8604C73.5403 42.8604 73.5403 42.8755 73.5252 42.8755C75.1872 43.1923 76.7888 43.6901 78.4962 43.675C79.3121 43.675 80.128 43.6901 80.9439 43.7353C81.1554 43.7504 81.4879 43.7203 81.4879 44.1275C81.4879 44.1426 81.4879 44.1728 81.4879 44.203C81.4879 44.2331 81.4878 44.2633 81.4727 44.2935C78.9343 44.1577 76.3355 44.6404 73.8274 43.7202C73.3741 43.5543 72.8755 43.313 72.4373 43.5694C71.3796 44.1879 70.2917 44.8063 69.4305 45.817H69.4456L69.4305 45.8321C74.7793 45.8773 76.7888 46.1639 78.194 47.25C76.8795 47.4461 75.8671 47.2048 74.8548 47.0841C73.3287 46.9031 71.8178 46.6617 70.2766 46.6768C69.506 46.6919 68.7204 46.7372 68.0858 47.2199C67.7685 47.4461 67.6476 47.6875 67.6929 47.8987C67.7231 48.0948 67.9045 48.2758 68.2066 48.4266C69.1283 48.8792 70.1407 49.1205 71.1379 49.0602C73.0115 48.9546 74.613 49.6183 76.1844 50.463C76.955 50.8854 77.7558 51.2022 78.6473 51.172C80.5511 51.0966 82.3642 51.4284 84.0413 52.3637C84.1773 52.4391 84.3586 52.4693 84.5702 52.4693C84.6155 52.4693 84.6608 52.4693 84.7062 52.4693C85.2954 52.4542 86.0358 52.2279 86.5495 51.8961C86.5949 51.8659 86.6402 51.8357 86.6855 51.8055C86.7157 51.7754 86.7611 51.7452 86.7913 51.7301C86.897 51.6547 86.9726 51.5642 87.033 51.4737C87.0481 51.4435 87.0632 51.4284 87.0784 51.3983C87.2446 51.1117 87.3503 50.7949 87.3654 50.4781ZM83.7241 54.023C84.1018 53.5554 83.9809 53.2989 83.4974 53.0274C82.3491 52.3939 81.1555 51.8508 79.8258 51.9111C77.9674 52.0016 76.3204 51.4586 74.7793 50.5234C73.7971 49.9351 72.7697 49.6786 71.6365 49.7239C70.7752 49.7541 69.8838 49.6635 69.0981 49.3468C67.9498 48.8792 66.9374 48.9244 65.8647 49.558C65.1394 49.9803 64.3991 50.3424 63.8551 51.0966C66.2424 51.2625 68.5693 51.2776 70.9112 51.2474C72.2258 51.2323 73.4798 51.4586 74.7188 51.8659C76.6982 52.5145 78.4962 53.5101 80.2036 54.6716C80.8684 55.1241 81.4879 55.6672 82.2887 55.984C82.7722 55.3202 83.2254 54.6414 83.7241 54.023ZM67.0734 52.1223C66.9526 51.8508 66.8014 51.8659 66.6655 51.8659C65.8496 51.881 65.0336 51.8961 64.2328 51.9262C61.7851 51.9866 59.3525 52.0318 56.9199 52.1072C55.9529 52.1374 55.8018 52.2883 55.7564 53.1481C55.7564 53.1933 55.7564 53.2537 55.7564 53.314C55.7413 53.5101 55.7413 53.7213 55.7564 53.9174C55.7564 54.0079 55.7715 54.0984 55.7715 54.1889C55.832 54.7772 55.9226 55.0487 56.2248 55.1091C56.3306 55.1241 56.4666 55.1242 56.6479 55.094C56.7234 55.0789 56.799 55.0638 56.8745 55.0336C56.9048 55.0186 56.935 55.0186 56.9652 55.0035C60.3195 54.0682 63.6587 53.1028 67.0734 52.1223ZM53.9584 55.1845C53.9584 55.0336 53.9584 54.8677 53.9282 54.7319C53.898 54.4453 53.8375 54.1738 53.762 53.9174C53.7016 53.6911 53.6411 53.4799 53.5958 53.2687C53.5958 53.2537 53.5807 53.2235 53.5807 53.2084C53.4749 52.8464 53.2634 52.786 52.8554 52.8464C51.2992 53.1179 49.7278 53.1782 48.1564 53.2687C46.7512 53.3442 45.4216 53.7665 43.8804 54.3699C43.8955 54.3699 43.8955 54.3699 43.8955 54.385C43.8804 54.385 43.8804 54.385 43.8804 54.385C45.6331 54.9733 47.3405 55.1694 49.0327 55.2297C50.6646 55.275 52.2964 55.1996 53.9584 55.1845Z" fill="#BA291C"/>
<path d="M142.364 117.815C142.152 117.8 141.941 117.755 141.745 117.725C139.282 117.333 136.91 116.533 134.552 115.734C132.15 114.919 129.733 114.15 127.255 113.577C126.272 113.35 125.366 112.943 124.429 112.551C122.284 111.661 120.017 111.269 117.69 111.691C117.373 111.751 117.056 111.948 116.663 111.691C116.663 111.691 116.663 111.676 116.663 111.661C117.056 111.902 117.358 111.721 117.675 111.661C120.017 111.239 122.268 111.631 124.414 112.521C125.351 112.898 126.257 113.32 127.239 113.547C129.717 114.12 132.12 114.889 134.537 115.704C136.894 116.488 139.251 117.303 141.729 117.695C141.941 117.74 142.137 117.785 142.364 117.815Z" fill="#BA291C"/>
<path d="M132.029 66.7543C133.102 66.9504 133.706 67.9761 133.419 69.032C133.283 69.5147 132.875 69.8919 132.392 70.0729C132.377 70.0879 132.346 70.0879 132.331 70.0879C132.316 70.0879 132.301 70.103 132.286 70.103C131.908 70.2086 131.485 70.1935 131.107 69.9974C127.572 68.2778 124.021 69.1376 120.47 69.8466C120.229 69.8919 120.047 69.9824 119.896 70.1181C119.881 70.1332 119.866 70.1483 119.851 70.1634C119.7 70.3142 119.594 70.5254 119.519 70.7969C119.277 71.5059 118.914 72.1093 118.461 72.5769C118.385 72.6523 118.31 72.7277 118.219 72.8032C118.189 72.8333 118.144 72.8635 118.113 72.8937C118.068 72.9238 118.023 72.954 117.992 72.9993C117.902 73.0596 117.826 73.1199 117.736 73.1803C116.482 73.9496 114.85 74.0099 113.324 73.1501C112.251 72.5618 111.964 71.6266 112.1 70.4801C111.964 69.2281 112.432 68.2929 113.203 67.5688C113.293 67.4783 113.384 67.4029 113.49 67.3275C113.777 67.1012 114.079 66.9051 114.412 66.7241C115.847 65.9397 117.373 66.2263 118.597 67.1917C119.383 67.8102 120.032 67.7951 120.939 67.6895C123.93 67.3727 126.862 66.4827 129.899 66.6185C130.609 66.6336 131.334 66.6336 132.029 66.7543ZM118.612 71.2193C118.687 71.0232 118.687 70.8723 118.642 70.7667C118.642 70.7667 118.642 70.7517 118.627 70.7517C118.552 70.5857 118.355 70.5254 118.038 70.6159C117.494 70.7667 116.995 71.0232 116.512 71.2947C116.376 71.3701 116.24 71.4456 116.089 71.521C115.847 71.6567 115.666 71.7171 115.53 71.7171H115.515C115.303 71.6869 115.197 71.4456 115.107 70.9779C114.986 70.3746 115.303 70.103 115.696 69.8013C116.527 69.1527 117.524 68.7907 118.582 68.2778C117.449 67.2671 116.255 66.9051 115.243 67.1917C115.197 67.2068 115.152 67.2219 115.107 67.237C114.94 67.2822 114.774 67.3576 114.623 67.4482C113.399 68.1722 112.462 70.0879 112.689 71.355C112.749 71.702 112.901 71.9886 113.142 72.2299C113.581 72.6674 114.396 72.8937 115.273 72.9088C115.394 72.9088 115.515 72.9088 115.635 72.9088C116.693 72.8786 117.736 72.5467 118.204 71.9735C118.34 71.7774 118.476 71.5662 118.567 71.3249C118.567 71.3249 118.567 71.3249 118.567 71.3098C118.582 71.2645 118.597 71.2344 118.612 71.2193Z" fill="#BA291C"/>
<path d="M131.107 70.0124C131.485 70.2085 131.893 70.2236 132.286 70.118C131.908 70.2387 131.485 70.2236 131.107 70.0275C127.572 68.2928 124.021 69.1677 120.47 69.8767C120.228 69.9219 120.047 70.0124 119.911 70.1331C120.047 69.9973 120.228 69.9068 120.485 69.8616C124.021 69.1526 127.572 68.2928 131.107 70.0124Z" fill="#BA291C"/>
<path d="M123.386 62.3345C123.296 62.3194 123.22 62.3043 123.13 62.2742C122.329 62.0328 121.785 61.3691 120.999 61.1428C120.803 61.0976 120.712 60.8713 120.818 60.6903C120.833 60.6601 120.848 60.645 120.863 60.6149C120.878 60.5847 120.909 60.5696 120.939 60.5545C120.954 60.5394 120.969 60.5394 120.984 60.5394C121.014 60.5244 121.045 60.5244 121.075 60.5093C121.12 60.5093 121.165 60.5093 121.211 60.5244C121.226 60.5244 121.241 60.5394 121.256 60.5394C121.271 60.5394 121.286 60.5545 121.301 60.5696C121.845 60.8864 122.389 61.2183 122.843 61.6557C123.039 61.8518 123.22 62.063 123.386 62.3345Z" fill="#BA291C"/>
<path d="M121.302 60.5696C121.861 60.8864 122.389 61.2031 122.843 61.6557C122.389 61.2031 121.845 60.8864 121.302 60.5696Z" fill="#BA291C"/>
<path d="M120.999 61.143C121.785 61.3693 122.329 62.033 123.129 62.2743C122.314 62.0179 121.77 61.3693 120.999 61.143C120.788 61.0978 120.697 60.8866 120.803 60.7055C120.818 60.6754 120.833 60.6452 120.863 60.6301C120.848 60.6452 120.833 60.6754 120.818 60.7055C120.712 60.8715 120.803 61.0978 120.999 61.143Z" fill="#BA291C"/>
<path d="M121.241 60.5395C121.226 60.5395 121.211 60.5244 121.196 60.5244C121.211 60.5244 121.226 60.5244 121.241 60.5395Z" fill="#BA291C"/>
<path d="M118.053 70.601C118.37 70.5256 118.567 70.5709 118.642 70.7368C118.552 70.5859 118.355 70.5256 118.053 70.601C117.509 70.7519 117.01 71.0234 116.527 71.2798C116.995 71.0083 117.494 70.7368 118.053 70.601Z" fill="#BA291C"/>
<path d="M118.566 71.3098C118.476 71.5361 118.34 71.7623 118.204 71.9584C117.735 72.5467 116.693 72.8635 115.635 72.8937C116.678 72.8635 117.72 72.5317 118.174 71.9584C118.34 71.7473 118.461 71.5361 118.566 71.3098Z" fill="#BA291C"/>
<path d="M117.977 72.9844C118.023 72.9542 118.068 72.924 118.098 72.8787C118.068 72.924 118.023 72.9542 117.977 72.9844Z" fill="#BA291C"/>
<path d="M117.72 73.1653C117.811 73.1049 117.902 73.0445 117.977 72.9841C117.887 73.0596 117.796 73.12 117.72 73.1653Z" fill="#BA291C"/>
<path d="M118.597 68.2627C117.539 68.7755 116.542 69.1376 115.711 69.7862C115.318 70.0879 115.001 70.3594 115.122 70.9628C115.212 71.4304 115.303 71.6718 115.53 71.7019C115.273 71.6868 115.182 71.4455 115.091 70.9628C114.971 70.3594 115.288 70.0879 115.681 69.7862C116.527 69.1376 117.509 68.7755 118.567 68.2627C117.464 67.2671 116.27 66.9051 115.258 67.1766C116.255 66.8749 117.464 67.2369 118.597 68.2627Z" fill="#BA291C"/>
<path d="M117.176 107.241C117.161 107.211 117.146 107.181 117.116 107.151C116.738 106.517 116.36 105.869 115.983 105.235C116.36 105.854 116.723 106.487 117.101 107.121C117.131 107.151 117.161 107.196 117.176 107.241Z" fill="#BA291C"/>
<path d="M116.27 107.498C116.542 107.995 116.769 108.538 116.587 109.097C116.738 108.553 116.527 107.995 116.27 107.498Z" fill="#BA291C"/>
<path d="M115.741 80.1192C115.152 80.4661 114.427 80.5868 113.716 80.4963C113.097 80.4058 112.462 80.1644 111.903 79.7421C111.858 79.7119 111.813 79.6666 111.767 79.6365C113.097 79.7572 114.411 79.9834 115.741 80.1192Z" fill="#BA291C"/>
<path d="M115.303 112.264C115.227 112.445 115.137 112.626 115.046 112.807C115.137 112.626 115.212 112.445 115.303 112.264Z" fill="#BA291C"/>
<path d="M112.931 58.3674C113.369 58.292 113.792 58.2769 114.2 58.3523C113.021 58.9255 112.009 59.3932 111.027 59.906C109.969 60.4642 109.002 61.1731 108.201 62.0782C107.431 62.938 107.249 64.0995 106.63 65.0348C106.63 64.899 106.645 64.7632 106.66 64.6124C106.675 64.5219 106.69 64.4163 106.705 64.3258C106.721 64.2805 106.721 64.2353 106.736 64.1749C106.766 64.0844 106.781 63.9788 106.811 63.8883C106.841 63.7978 106.872 63.6922 106.902 63.6017C106.932 63.5112 106.977 63.4056 107.023 63.3151C108.005 61.0374 110.649 58.7747 112.931 58.3674Z" fill="#BA291C"/>
<path d="M113.233 101.419C112.795 100.951 112.326 100.498 111.798 100.076C111.541 99.8648 111.284 99.6235 111.118 99.352C110.256 98.0094 109.169 96.9083 107.869 95.973C107.597 95.7769 107.416 95.611 107.295 95.4451C107.416 95.5959 107.597 95.7618 107.854 95.9428C109.153 96.8781 110.241 97.9793 111.103 99.3218C111.284 99.5933 111.526 99.8347 111.782 100.046C112.311 100.483 112.795 100.936 113.233 101.419Z" fill="#BA291C"/>
<path d="M113.55 92.9561C111.661 92.6092 109.848 92.5941 108.126 93.3785C109.863 92.579 111.646 92.5941 113.55 92.9561Z" fill="#BA291C"/>
<path d="M110.301 99.8348C111.54 100.936 112.628 102.128 113.626 103.41C112.628 102.128 111.525 100.936 110.301 99.8348C110.15 99.7141 110.014 99.5632 109.818 99.6236C109.123 99.88 108.73 99.3973 108.352 98.99C107.884 98.4772 107.31 98.1604 106.66 97.9341C105.753 97.6324 104.847 97.2855 104.046 96.7424C103.608 96.4407 103.185 96.4256 102.686 96.5463C101.704 96.8028 100.722 96.9687 99.7399 97.21C97.126 97.8436 94.4667 98.1755 91.8377 98.7034C89.4051 99.2012 87.0178 99.9253 84.6002 100.574C83.4217 100.891 82.2432 101.011 81.0344 100.891C80.6114 100.845 80.3847 100.649 80.3545 100.363C80.3847 100.649 80.6114 100.83 81.0344 100.876C82.2432 100.996 83.4217 100.876 84.6002 100.559C87.0027 99.9102 89.3899 99.1861 91.8377 98.6883C94.4667 98.1604 97.126 97.8285 99.7399 97.195C100.722 96.9536 101.704 96.7877 102.686 96.5312C103.185 96.4106 103.593 96.4257 104.046 96.7274C104.847 97.2704 105.738 97.6023 106.66 97.919C107.31 98.1453 107.884 98.4621 108.352 98.9749C108.73 99.3973 109.123 99.8649 109.818 99.6085C110.014 99.5331 110.165 99.699 110.301 99.8348Z" fill="#BA291C"/>
<path d="M111.903 46.4053C110.74 45.8924 109.546 45.5757 108.292 45.5002C109.531 45.5606 110.74 45.8774 111.903 46.4053Z" fill="#BA291C"/>
<path d="M107.748 45.4851C107.929 45.4851 108.096 45.4851 108.277 45.5002C108.111 45.4851 107.929 45.4851 107.748 45.4851Z" fill="#BA291C"/>
<path d="M107.582 93.65C107.612 93.6349 107.658 93.6198 107.688 93.5896C107.642 93.6198 107.612 93.6349 107.582 93.65Z" fill="#BA291C"/>
<path d="M112.931 58.3672C110.649 58.7745 108.005 61.0372 107.023 63.3149C107.99 61.0372 110.634 58.7745 112.931 58.3672Z" fill="#BA291C"/>
<path d="M106.902 63.6018C106.872 63.6924 106.841 63.7981 106.811 63.8887C106.826 63.7981 106.857 63.6924 106.902 63.6018Z" fill="#BA291C"/>
<path d="M106.811 69.0168C106.811 70.1934 106.811 71.3851 106.811 72.5617C106.69 72.5617 106.569 72.5768 106.449 72.5768C106.267 71.5208 106.267 70.4649 106.418 69.2582C106.449 69.0621 106.479 68.866 106.509 68.6548C106.66 69.0922 106.569 68.7906 106.736 68.8961C106.766 68.9112 106.811 68.9716 106.811 69.0168Z" fill="#BA291C"/>
<path d="M106.796 63.8882C106.766 63.9788 106.736 64.0845 106.721 64.175C106.751 64.0845 106.766 63.9939 106.796 63.8882Z" fill="#BA291C"/>
<path d="M106.691 64.3257C106.675 64.4163 106.66 64.522 106.645 64.6126C106.66 64.5069 106.675 64.4163 106.691 64.3257Z" fill="#BA291C"/>
<path d="M106.418 69.2432C106.267 70.465 106.267 71.5058 106.449 72.5618C106.252 71.5209 106.252 70.465 106.418 69.2432Z" fill="#BA291C"/>
<path d="M104.394 66.7695C104.575 67.7953 104.379 69.0171 104.061 70.2239C104.031 70.2993 104.016 70.3898 103.986 70.4652C103.971 70.5105 103.956 70.5557 103.956 70.601C103.941 70.6613 103.925 70.7217 103.925 70.7971C103.895 71.0535 103.971 71.31 104.273 71.5211C104.545 71.7172 104.424 72.0491 104.318 72.3206C103.895 73.3916 103.366 74.4174 102.535 75.2319C102.203 75.5487 101.871 75.7297 101.553 75.7448C101.508 75.7448 101.463 75.7448 101.417 75.7448C100.979 75.6996 100.632 75.3526 100.541 74.704C100.133 72.215 99.7401 69.6808 99.997 67.1617C100.148 65.7287 101.04 64.4767 102.218 63.6018C102.535 63.3755 102.838 63.2548 103.125 63.2397C103.155 63.2397 103.2 63.2397 103.23 63.2397C103.85 63.2699 104.318 63.813 104.379 64.6879C104.409 65.0348 104.409 65.3968 104.409 65.789C104.409 65.8343 104.409 65.8946 104.409 65.9399C104.409 66.0153 104.409 66.0907 104.409 66.1661C104.394 66.3472 104.394 66.5583 104.394 66.7695ZM103.442 69.0774C103.699 68.1422 103.805 67.207 103.729 66.0455C103.729 65.7287 103.774 65.2007 103.714 64.6728C103.699 64.537 103.669 64.4163 103.623 64.3107C103.442 63.9336 103.064 63.8582 102.611 64.175C102.581 64.2051 102.535 64.2353 102.505 64.2655C102.248 64.4616 102.022 64.718 101.81 64.9895C101.765 65.0499 101.719 65.1102 101.674 65.1706C100.798 66.3622 100.571 67.7349 100.783 69.183C100.979 70.601 101.07 72.0189 101.115 73.452C101.115 73.7084 101.13 73.9497 101.176 74.2062C101.176 74.2364 101.191 74.2816 101.191 74.3118C101.311 74.9152 101.644 75.0207 102.067 74.5833C102.082 74.5682 102.112 74.538 102.127 74.523C102.626 74.0101 103.019 73.4369 103.17 72.7732C103.185 72.7128 103.2 72.6676 103.2 72.6072C103.215 72.5469 103.215 72.5016 103.215 72.4413C103.215 72.4111 103.215 72.3659 103.23 72.3357C103.23 72.2905 103.23 72.2301 103.23 72.1849C103.23 72.0491 103.215 71.9133 103.2 71.7776C103.079 70.8423 103.215 69.9523 103.442 69.0774Z" fill="#BA291C"/>
<path d="M103.956 70.601C103.971 70.5557 103.986 70.5104 103.986 70.4651C103.971 70.5104 103.956 70.5557 103.956 70.601Z" fill="#BA291C"/>
<path d="M103.442 69.0774C103.684 68.1422 103.789 67.2069 103.729 66.0454C103.805 67.2069 103.699 68.1422 103.442 69.0774Z" fill="#BA291C"/>
<path d="M102.611 64.1749C103.064 63.8581 103.442 63.9335 103.623 64.3106C103.442 63.9335 103.064 63.8732 102.611 64.1749Z" fill="#BA291C"/>
<path d="M103.125 63.2397C102.838 63.2548 102.535 63.3755 102.218 63.6018C101.04 64.4767 100.148 65.7287 99.997 67.1617C99.7401 69.6808 100.133 72.215 100.541 74.704C100.647 75.3526 100.994 75.6996 101.417 75.7448C100.979 75.7146 100.632 75.3526 100.526 74.704C100.118 72.215 99.725 69.6808 99.9819 67.1617C100.133 65.7287 101.009 64.4918 102.203 63.6018C102.52 63.3604 102.838 63.2397 103.125 63.2397Z" fill="#BA291C"/>
<path d="M101.81 64.9743C102.006 64.7028 102.233 64.4614 102.505 64.2502C102.233 64.4614 102.006 64.7179 101.81 64.9743Z" fill="#BA291C"/>
<path d="M101.659 65.1553C100.798 66.347 100.571 67.7196 100.767 69.1678C100.556 67.7196 100.798 66.347 101.659 65.1553Z" fill="#BA291C"/>
<path d="M102.656 126.398C101.765 126.61 100.873 126.821 99.9971 127.107C94.4972 128.933 88.8463 129.415 83.1047 129.084C80.4756 128.933 77.8919 128.39 75.4593 127.273C72.6489 125.991 70.2012 124.151 67.6477 122.446C67.0131 122.024 66.5296 121.405 66.0612 120.802C65.6381 120.244 65.2604 119.671 64.928 119.067C65.2453 119.656 65.623 120.229 66.0461 120.772C66.5145 121.39 66.998 121.994 67.6326 122.416C70.171 124.106 72.6338 125.961 75.4442 127.243C77.8919 128.359 80.4605 128.902 83.0896 129.053C88.816 129.4 94.4821 128.902 99.9819 127.077C100.873 126.806 101.78 126.61 102.656 126.398Z" fill="#BA291C"/>
<path d="M89.4507 95.9883C92.0344 95.5056 94.6181 95.0681 97.2018 94.5703C94.6181 95.0681 92.0193 95.5206 89.4507 95.9883Z" fill="#BA291C"/>
<path d="M92.4575 83.4378C92.518 83.106 92.5633 82.7892 92.6086 82.4724C92.5633 82.7892 92.5028 83.106 92.4575 83.4378Z" fill="#BA291C"/>
<path d="M91.8682 76.5593C91.8984 77.1476 91.9135 77.7359 91.9135 78.3242C91.9135 77.7359 91.8984 77.1476 91.8682 76.5593Z" fill="#BA291C"/>
<path d="M92.3968 83.7695C91.9284 86.3037 91.3845 88.8078 90.5535 91.2364C91.3694 88.8078 91.9133 86.2886 92.3968 83.7695Z" fill="#BA291C"/>
<path d="M90.614 87.8878C91.0824 86.4095 91.4148 84.9161 91.6415 83.3926C91.4299 84.9161 91.0824 86.4095 90.614 87.8878Z" fill="#BA291C"/>
<path d="M90.5383 91.2366C90.4628 91.4779 90.3722 91.7193 90.2815 91.9606C90.3722 91.7193 90.4628 91.4779 90.5383 91.2366Z" fill="#BA291C"/>
<path d="M88.272 62.3044C89.8434 65.0498 90.8255 68.0667 91.7471 71.0535C90.8104 68.0516 89.8282 65.0498 88.272 62.3044Z" fill="#BA291C"/>
<path d="M88.6045 95.8674C88.8462 96.0635 89.1031 96.0484 89.36 96.0032C89.1031 96.0334 88.8311 96.0786 88.6045 95.8674Z" fill="#BA291C"/>
<path d="M88.6649 95.4751C88.6045 95.5807 88.6196 95.7466 88.6045 95.8673C88.6196 95.7466 88.5894 95.5807 88.6649 95.4751Z" fill="#BA291C"/>
<path d="M88.1814 51.2927C88.2872 51.0363 88.4534 50.8251 88.7253 50.6592C88.4534 50.8402 88.2872 51.0363 88.1814 51.2927Z" fill="#BA291C"/>
<path d="M86.7458 53.0876C87.3351 52.8613 87.8035 52.3786 88.0302 51.73C87.8035 52.3937 87.3351 52.8613 86.7458 53.0876Z" fill="#BA291C"/>
<path d="M87.2749 96.4103C87.29 96.3952 87.3051 96.3952 87.3202 96.3801C87.3051 96.3801 87.29 96.3952 87.2749 96.4103Z" fill="#BA291C"/>
<path d="M87.0332 49.1206C87.2296 49.4675 87.3505 49.8296 87.3656 50.1765C87.3354 49.8296 87.2145 49.4675 87.0332 49.1206Z" fill="#BA291C"/>
<path d="M86.7761 51.73C86.7459 51.7602 86.7006 51.7904 86.6704 51.8055C86.7006 51.7904 86.7459 51.7602 86.7761 51.73Z" fill="#BA291C"/>
<path d="M86.4138 48.2005C86.5196 48.3513 86.6253 48.4871 86.716 48.6228C86.6102 48.472 86.5196 48.3513 86.4138 48.2005C85.9907 47.6725 85.6281 47.0993 85.3108 46.511C85.613 47.0993 85.9907 47.6574 86.4138 48.2005Z" fill="#BA291C"/>
<path d="M85.2957 46.4806C85.1899 46.2845 85.0841 46.0884 84.9935 45.8923C83.966 43.6598 82.0925 41.9703 80.9895 39.7982C80.929 39.6775 80.8082 39.5719 80.7024 39.4814C79.131 38.1992 78.6173 36.4946 78.5417 34.594C78.6324 36.4946 79.131 38.1841 80.7024 39.4663C80.8082 39.5568 80.929 39.6624 80.9895 39.7831C82.0925 41.9703 83.966 43.6447 84.9935 45.8772C85.0841 46.0733 85.1748 46.2845 85.2957 46.4806Z" fill="#BA291C"/>
<path d="M84.6909 52.4843C85.2802 52.4693 86.0205 52.2279 86.5343 51.9111C86.0205 52.243 85.2802 52.4693 84.6909 52.4843Z" fill="#BA291C"/>
<path d="M83.2708 56.3611C83.301 56.708 83.5729 57.0097 84.1169 57.4623C83.5729 57.0097 83.301 56.708 83.2708 56.3611Z" fill="#BA291C"/>
<path d="M81.4578 44.3085C81.4578 44.2784 81.4578 44.2482 81.4729 44.218C81.4578 44.2482 81.4578 44.2784 81.4578 44.3085C78.9043 44.203 76.3205 44.6706 73.8124 43.7504C73.3591 43.5845 72.8605 43.3431 72.4223 43.5996C71.3647 44.218 70.2919 44.8214 69.4306 45.8321H69.4155C70.2768 44.8214 71.3647 44.2029 72.4223 43.5845C72.8605 43.328 73.3591 43.5694 73.8124 43.7353C76.3205 44.6555 78.9194 44.1728 81.4578 44.3085Z" fill="#BA291C"/>
<path d="M81.3067 98.5073V98.5375H81.2916C80.793 98.6129 80.2793 98.6733 79.7807 98.7336C79.4936 98.7638 79.1763 98.8241 79.0403 99.0655C79.1763 98.7939 79.4936 98.7336 79.7958 98.7034C80.2944 98.6431 80.8081 98.5827 81.3067 98.5073Z" fill="#BA291C"/>
<path d="M80.0677 41.3522C80.0677 41.3522 80.0828 41.3522 80.0828 41.3673C78.6172 41.5784 77.484 41.5332 76.3508 41.3673C74.9003 41.1561 74.2657 41.4728 73.5102 42.8908C73.5102 42.8908 73.5102 42.8908 73.4951 42.8908C74.2657 41.4578 74.9003 41.1561 76.3508 41.3522C77.484 41.5181 78.6172 41.5634 80.0677 41.3522Z" fill="#BA291C"/>
<path d="M78.7077 38.501C78.33 39.7077 77.0457 39.7379 76.532 40.5977C76.532 40.5977 76.532 40.5977 76.5168 40.5977C77.0306 39.7228 78.33 39.7077 78.7077 38.501Z" fill="#BA291C"/>
<path d="M77.2874 101.072C77.8918 100.83 78.4962 100.589 78.7833 100.031C78.4962 100.604 77.8918 100.875 77.2723 101.117C75.7916 101.69 74.3109 102.248 73.0115 103.183C71.9085 103.968 70.7148 104.541 69.491 105.129C68.7959 105.446 68.0858 105.778 67.4814 106.23C66.1669 107.211 65.1092 108.327 64.4897 109.7C65.0941 108.312 66.1669 107.181 67.4965 106.2C68.1009 105.748 68.8262 105.431 69.5061 105.099C70.7148 104.526 71.9236 103.938 73.0266 103.153C74.326 102.218 75.8067 101.645 77.2874 101.072Z" fill="#BA291C"/>
<path d="M78.3603 30.3404C78.4056 30.8231 78.4359 31.3209 78.4661 31.8036C78.4359 31.3209 78.4056 30.8382 78.3603 30.3555C78.2394 29.0582 77.076 27.8967 76.0032 28.1079C74.7945 28.3493 73.5706 28.5755 72.4374 29.1638C70.2465 30.3103 68.8263 32.1053 67.8441 34.3076C66.2879 37.8525 65.7439 41.5331 65.9555 45.3495C65.7288 41.518 66.2728 37.8223 67.8441 34.2926C68.8263 32.0751 70.2465 30.2801 72.4374 29.1487C73.5706 28.5605 74.7945 28.3342 76.0032 28.0928C77.076 27.8816 78.2394 29.0432 78.3603 30.3404Z" fill="#BA291C"/>
<path d="M78.1638 47.2653L78.1789 47.2804C76.8644 47.4765 75.8521 47.2351 74.8246 47.1144C73.2986 46.9334 71.7876 46.6921 70.2465 46.7072C69.4759 46.7222 68.6902 46.7675 68.0556 47.2502C67.7534 47.4765 67.6325 47.7027 67.6628 47.9139C67.6174 47.6877 67.7383 47.4614 68.0556 47.2351C68.6902 46.7524 69.4759 46.7072 70.2465 46.6921C71.7876 46.677 73.2986 46.9183 74.8246 47.0994C75.837 47.22 76.8644 47.4463 78.1638 47.2653Z" fill="#BA291C"/>
<path d="M77.6048 99.005C77.7861 98.9899 77.9523 99.0502 78.0429 99.1709C77.9523 99.0653 77.8012 99.0351 77.6199 99.0351C77.4235 99.0502 77.2422 99.0351 77.0457 99.0804C74.0692 99.5933 71.1077 100.106 68.2671 101.222C63.9458 102.927 59.7454 104.903 55.5752 106.954C54.5477 107.452 53.5052 107.95 52.4626 108.448C51.4805 108.915 50.9215 109.7 50.725 110.756C50.3775 112.626 50.4682 114.467 51.2388 116.247C51.3899 116.594 51.541 116.925 51.6316 117.302C51.8431 118.087 52.0698 118.871 52.3569 119.625C52.0547 118.856 51.828 118.072 51.6165 117.272C51.5258 116.895 51.3748 116.563 51.2237 116.216C50.438 114.452 50.3624 112.611 50.7099 110.726C50.9064 109.67 51.4654 108.885 52.4475 108.418C53.4901 107.92 54.5326 107.437 55.5601 106.924C59.7303 104.888 63.9307 102.897 68.252 101.192C71.0926 100.076 74.0541 99.5631 77.0306 99.0502C77.2119 99.0201 77.4083 99.02 77.6048 99.005Z" fill="#BA291C"/>
<path d="M75.006 32.7842C74.7643 34.1116 74.311 35.3636 73.8728 36.6458C74.311 35.3636 74.7643 34.0965 75.006 32.7842Z" fill="#BA291C"/>
<path d="M72.0141 41.5479C72.0141 41.6233 72.0292 41.6837 72.0292 41.744C72.0292 41.6837 72.0141 41.6233 72.0141 41.563C71.999 41.4876 71.999 41.4272 71.999 41.3518C71.999 41.4121 71.999 41.4725 72.0141 41.5479Z" fill="#BA291C"/>
<path d="M70.6243 38.7726C70.6394 38.6067 70.6545 38.4257 70.6696 38.2598C70.6696 38.4257 70.6545 38.5916 70.6243 38.7726Z" fill="#BA291C"/>
<path d="M69.0378 43.7958C69.0378 43.7505 69.0529 43.7052 69.068 43.6599C69.0529 43.7052 69.0529 43.7505 69.0378 43.7958Z" fill="#BA291C"/>
<path d="M68.9773 44.0523C68.9924 43.9617 69.0226 43.8711 69.0377 43.7805C69.0226 43.8862 69.0075 43.9768 68.9773 44.0523Z" fill="#BA291C"/>
<path d="M56.9651 55.0035C60.3194 54.0531 63.6586 53.0877 67.0733 52.1223C63.6586 53.1028 60.3194 54.0682 56.9651 55.0035Z" fill="#BA291C"/>
<path d="M64.2179 51.9111C61.7852 51.9715 59.3526 52.0167 56.9049 52.1072C55.9379 52.1374 55.7868 52.2883 55.7415 53.133C55.7868 52.2732 55.9228 52.1223 56.9049 52.0921C59.3375 52.0167 61.7852 51.9715 64.2179 51.9111Z" fill="#BA291C"/>
<path d="M36.5825 63.4811C36.7336 63.8883 36.6883 64.3861 36.4163 64.9593C36.2652 65.3063 36.099 65.6382 35.9328 65.97C35.8422 66.151 35.7515 66.317 35.6608 66.498C35.2227 67.3427 34.7543 68.1874 34.2708 69.0171C33.2131 70.7971 32.6087 72.6675 32.6238 74.7492C32.6238 74.7945 32.6238 74.8246 32.6238 74.8699C32.6541 76.1822 32.6238 77.4946 32.5785 78.7919C32.5634 79.1086 32.5634 79.4254 32.5483 79.7422C32.4727 81.9445 31.3244 82.5932 29.466 81.3411C27.7435 80.1646 26.9729 78.4298 26.9729 76.4085C26.9729 76.3331 26.9729 76.2727 26.9729 76.2124C26.9729 76.1521 26.9729 76.0917 26.9729 76.0465C27.1693 72.1547 28.5443 68.6852 30.7805 65.5326C31.1129 65.0649 31.4151 64.5672 31.7777 64.1297C32.5332 63.2246 33.4246 62.5307 34.3765 62.4553C35.0262 62.4553 35.5551 62.5609 35.9328 62.7721C35.963 62.7872 35.9781 62.8023 36.0084 62.8173C36.0386 62.8324 36.0688 62.8475 36.0839 62.8777C36.099 62.8928 36.1292 62.9079 36.1443 62.9229C36.1897 62.9531 36.2199 62.9833 36.2652 63.0285C36.3257 63.0889 36.371 63.1492 36.4163 63.2095C36.507 63.285 36.5523 63.3755 36.5825 63.4811ZM35.7666 64.3861C35.9177 63.7224 35.6608 63.4056 34.9809 63.3151C34.9356 63.3151 34.8751 63.3001 34.8298 63.3001C34.7392 63.3001 34.6485 63.3001 34.5579 63.3001C34.2103 63.3302 33.893 63.4358 33.5757 63.6319C32.79 64.1297 32.1403 64.7633 31.8381 65.6683C31.6115 66.332 31.2791 66.8751 30.6747 67.2371C30.3725 67.4181 30.1912 67.7047 30.0401 67.9913C28.6652 70.4954 27.819 73.1653 27.7133 76.0314C27.7133 76.4085 27.6528 76.8007 27.7284 77.1778C28.0003 78.6863 28.5745 80.0439 29.9797 80.8283C30.4632 81.0998 30.856 81.2054 31.128 81.13C31.1582 81.13 31.1733 81.1149 31.1884 81.1149C31.536 80.9942 31.7173 80.5718 31.7324 79.8629C31.7626 78.1432 31.7475 76.4236 31.7777 74.704C31.8079 72.6072 32.367 70.6613 33.4397 68.8512C34.1197 67.6896 34.7241 66.498 35.3587 65.3214C35.54 65.0046 35.6911 64.7029 35.7666 64.3861Z" fill="#BA291C"/>
<path d="M36.1747 62.9078C36.1596 62.8927 36.1445 62.8776 36.1143 62.8625C36.1294 62.8776 36.1445 62.8927 36.1747 62.9078Z" fill="#BA291C"/>
<path d="M36.0235 62.8021C35.9933 62.787 35.9782 62.7719 35.948 62.7568C35.9782 62.7719 36.0084 62.787 36.0235 62.8021Z" fill="#BA291C"/>
<path d="M34.981 63.3151C35.6609 63.4056 35.9178 63.7224 35.7667 64.3861C35.6911 64.7029 35.54 65.0046 35.3738 65.3063C34.7392 66.4829 34.1349 67.6746 33.4549 68.8361C32.3822 70.6462 31.8231 72.5921 31.7929 74.6889C31.7627 76.4085 31.7778 78.1281 31.7476 79.8478C31.7324 80.5718 31.5511 80.9791 31.2036 81.0998C31.536 80.964 31.7022 80.5417 31.7324 79.8478C31.7627 78.1281 31.7627 76.4085 31.7778 74.6889C31.808 72.5921 32.367 70.6462 33.4398 68.8361C34.1197 67.6896 34.7241 66.498 35.3587 65.3063C35.5249 65.0046 35.676 64.7029 35.7516 64.3861C35.9027 63.7224 35.6609 63.4056 34.9659 63.3151C34.9205 63.3151 34.8752 63.3 34.8299 63.3C34.8752 63.3 34.9205 63.3001 34.981 63.3151Z" fill="#BA291C"/>
<path d="M35.948 62.7569C35.5702 62.5457 35.0565 62.425 34.3917 62.4401C33.4398 62.5156 32.5483 63.2094 31.7929 64.1145C31.4302 64.552 31.128 65.0498 30.7956 65.5174C28.5594 68.67 27.1845 72.1395 26.988 76.0313C26.988 76.0916 26.988 76.152 26.988 76.1972C26.988 76.1369 26.988 76.0615 26.988 76.0011C27.1845 72.1093 28.5594 68.6399 30.7956 65.4872C31.128 65.0196 31.4302 64.5369 31.7929 64.0843C32.5483 63.1944 33.4398 62.5156 34.3917 62.425C35.0565 62.425 35.5702 62.5457 35.948 62.7569Z" fill="#BA291C"/>
<path d="M33.7119 89.8487C33.8025 90.3918 33.863 90.9197 33.3795 91.2817C33.2586 91.3722 33.1226 91.4477 33.0017 91.4929C33.1226 91.4477 33.2586 91.3873 33.3795 91.2817C33.8479 90.9197 33.7874 90.3767 33.7119 89.8487C33.3946 88.0386 32.624 86.3944 31.9289 84.72C31.6721 84.1166 31.2037 83.8903 30.5691 83.8752C30.5842 83.8752 30.5842 83.8752 30.5993 83.8752C31.2339 83.8903 31.7023 84.1166 31.9592 84.72C32.6391 86.3944 33.4097 88.0386 33.7119 89.8487Z" fill="#BA291C"/>
<path d="M33.6966 89.8487C33.7873 90.3767 33.8477 90.9197 33.3642 91.2817C33.2433 91.3722 33.1224 91.4477 32.9865 91.4929C32.5785 91.6287 32.1554 91.5231 31.7475 91.3572C31.5813 91.2817 31.4151 91.1611 31.264 91.0555C30.2516 90.2862 28.8616 87.4503 28.8616 86.1681C28.8616 85.6401 28.8767 85.1273 29.1638 84.6446C29.4811 84.1166 29.9343 83.8752 30.5387 83.8752C30.5538 83.8752 30.5538 83.8752 30.5689 83.8752C31.2035 83.8903 31.6719 84.1166 31.9288 84.72C32.6238 86.3944 33.3944 88.0386 33.6966 89.8487ZM32.6843 90.8141C32.8807 90.7387 32.9865 90.5577 32.9865 90.2409C32.9865 90.2107 32.9865 90.1806 32.9865 90.1504C32.9411 89.909 32.8807 89.6375 32.8354 89.3509C32.6087 87.9782 31.959 86.7413 31.4302 85.4591C31.3395 85.2479 31.2489 85.0518 31.1129 84.8859C31.0978 84.8708 31.0827 84.8407 31.0524 84.8256C30.9013 84.6747 30.7049 84.5842 30.3876 84.6446C29.7984 84.7351 29.6775 85.2178 29.617 85.7156C29.3149 87.7821 30.5085 89.2152 31.7475 90.618C31.8079 90.6784 31.8986 90.7236 31.9892 90.7538C32.0799 90.7839 32.1856 90.8141 32.2763 90.8292C32.4123 90.8443 32.5332 90.8443 32.6238 90.8292C32.6541 90.8292 32.6692 90.8292 32.6843 90.8141Z" fill="#BA291C"/>
<path d="M32.8355 89.3659C32.8808 89.6525 32.9413 89.924 32.9866 90.1654C32.9413 89.9391 32.8657 89.6525 32.8204 89.3659C32.5938 87.9781 31.9441 86.7412 31.4152 85.4741C31.3246 85.2629 31.2339 85.0668 31.113 84.9009C31.249 85.0517 31.3397 85.2629 31.4303 85.4741C31.9592 86.7563 32.6089 87.9932 32.8355 89.3659Z" fill="#BA291C"/>
</svg>
