<svg width="32" height="32" viewBox="0 0 32 32" fill="none" xmlns="http://www.w3.org/2000/svg">
<rect width="32" height="32" rx="16" fill="#EE3524"/>
<path d="M15.0875 23.2937L8.48754 16.6937C8.38754 16.5937 8.31654 16.4854 8.27454 16.3687C8.23254 16.252 8.21187 16.127 8.21254 15.9937C8.21254 15.8604 8.23354 15.7354 8.27554 15.6187C8.31754 15.502 8.38821 15.3937 8.48754 15.2937L15.0875 8.69371C15.2709 8.51038 15.5002 8.41471 15.7755 8.40671C16.0509 8.39871 16.2882 8.49438 16.4875 8.69371C16.6875 8.87705 16.7919 9.10638 16.8005 9.38171C16.8092 9.65705 16.7132 9.89438 16.5125 10.0937L11.6125 14.9937H22.7875C23.0709 14.9937 23.3085 15.0897 23.5005 15.2817C23.6925 15.4737 23.7882 15.711 23.7875 15.9937C23.7875 16.277 23.6919 16.5147 23.5005 16.7067C23.3092 16.8987 23.0715 16.9944 22.7875 16.9937H11.6125L16.5125 21.8937C16.6959 22.077 16.7919 22.3104 16.8005 22.5937C16.8092 22.877 16.7132 23.1104 16.5125 23.2937C16.3292 23.4937 16.0959 23.5937 15.8125 23.5937C15.5292 23.5937 15.2875 23.4937 15.0875 23.2937Z" fill="white"/>
</svg>
