<svg width="42" height="42" viewBox="0 0 42 42" fill="none" xmlns="http://www.w3.org/2000/svg">
<rect x="0.5" y="0.5" width="41" height="41" rx="20.5" fill="white"/>
<path d="M12.636 20.293C12.4485 20.4806 12.3432 20.7349 12.3432 21C12.3432 21.2652 12.4485 21.5195 12.636 21.707L18.293 27.364C18.3852 27.4595 18.4956 27.5357 18.6176 27.5881C18.7396 27.6405 18.8708 27.6681 19.0036 27.6693C19.1364 27.6704 19.268 27.6451 19.3909 27.5948C19.5138 27.5446 19.6255 27.4703 19.7194 27.3764C19.8133 27.2825 19.8875 27.1709 19.9378 27.048C19.9881 26.9251 20.0134 26.7934 20.0122 26.6606C20.0111 26.5278 19.9835 26.3966 19.9311 26.2746C19.8787 26.1526 19.8025 26.0423 19.707 25.95L15.757 22H29C29.2652 22 29.5196 21.8947 29.7071 21.7071C29.8946 21.5196 30 21.2652 30 21C30 20.7348 29.8946 20.4805 29.7071 20.2929C29.5196 20.1054 29.2652 20 29 20H15.757L19.707 16.05C19.8891 15.8614 19.9899 15.6088 19.9877 15.3466C19.9854 15.0844 19.8802 14.8336 19.6948 14.6482C19.5094 14.4628 19.2586 14.3576 18.9964 14.3553C18.7342 14.3531 18.4816 14.4539 18.293 14.636L12.636 20.293Z" fill="black"/>
<rect x="0.5" y="0.5" width="41" height="41" rx="20.5" stroke="#D2D6DB"/>
</svg>
