<svg width="54" height="122" viewBox="0 0 54 122" fill="none" xmlns="http://www.w3.org/2000/svg">
<path d="M53 61C53 94.1371 26.1371 121 -7 121C-40.1371 121 -67 94.1371 -67 61C-67 27.8629 -40.1371 1 -7 1C26.1371 1 53 27.8629 53 61Z" stroke="#BA291C" stroke-width="0.5"/>
<path d="M39.3473 61.3593C39.3473 87.1546 18.4361 108.066 -7.35928 108.066C-33.1546 108.066 -54.0659 87.1546 -54.0659 61.3593C-54.0659 35.5639 -33.1546 14.6527 -7.35928 14.6527C18.4361 14.6527 39.3473 35.5639 39.3473 61.3593Z" stroke="#BA291C" stroke-width="0.5"/>
<path d="M23.5389 61C23.5389 77.8662 9.86618 91.5389 -7 91.5389C-23.8662 91.5389 -37.5389 77.8662 -37.5389 61C-37.5389 44.1338 -23.8662 30.4611 -7 30.4611C9.86618 30.4611 23.5389 44.1338 23.5389 61Z" stroke="#BA291C" stroke-width="0.5"/>
</svg>
