<svg width="94" height="100" viewBox="0 0 94 100" fill="none" xmlns="http://www.w3.org/2000/svg">
<path d="M9.28605 33.4487H1.66834C0.749178 33.4487 0 34.1979 0 35.1171V35.1485C0 36.0677 0.749178 36.8169 1.66834 36.8169H8.68167L9.28605 33.4487Z" fill="white"/>
<path d="M52.0144 88.8188C54.0479 88.3466 57.032 85.0855 58.2471 81.711C59.2292 78.8906 60.0665 76.1583 60.7464 73.5519C59.2481 73.4763 57.7434 73.4008 56.2451 73.3315C55.2944 78.2799 53.859 83.5368 52.0144 88.8125V88.8188Z" fill="white"/>
<path d="M46.915 72.9727C46.6254 76.3219 46.1721 79.7342 45.5678 83.1275C44.9445 86.9175 46.6128 89.6813 48.8918 89.3287C49.2192 89.2846 49.5529 89.2343 49.8803 89.1839C51.5927 83.8074 52.9022 78.3806 53.7206 73.2308C51.4542 73.1363 49.1877 73.0482 46.9213 72.979L46.915 72.9727Z" fill="white"/>
<path d="M93.6159 35.2494L38.0948 30.4647C38.5733 28.8782 39.0958 27.3106 39.6876 25.7619C36.9742 25.4471 34.2671 25.1386 31.5536 24.8238C31.9125 23.9865 32.2902 23.1618 32.6806 22.3371C35.331 22.7022 37.9752 23.0674 40.6256 23.4325C41.5196 21.3298 42.5269 19.2648 43.6287 17.2565C40.3738 16.6017 37.119 15.947 33.8578 15.286C34.3048 14.222 34.8085 12.7362 35.1484 11.5338C35.5828 9.82765 35.2429 5.04927 37.4904 0.000179347C37.2449 -0.04389 31.8118 8.04599 31.6418 10.6335C31.4403 11.3008 31.7992 13.4162 32.2336 14.9523C31.6922 14.8453 31.157 14.7319 30.6156 14.6249C28.154 19.3089 26.2087 24.232 24.767 29.3L16.8597 28.6201H16.8471L11.2817 28.532C11.181 28.532 11.0866 28.6012 11.074 28.7082L10.2304 33.4363L8.93346 40.714L8.5809 42.6908C8.55572 42.823 8.65645 42.9426 8.78866 42.9364L14.4862 42.8419H14.4988L93.6222 36.0615C94.1259 36.0175 94.1259 35.2809 93.6222 35.2368L93.6159 35.2494Z" fill="white"/>
<path d="M56.7677 70.3476C58.3164 70.4987 59.8651 70.6561 61.4139 70.826C61.8986 68.6918 62.2827 66.6457 62.566 64.713C60.8976 64.2975 59.2293 63.9071 57.5672 63.542C57.4036 65.7266 57.1391 67.993 56.7677 70.3476Z" fill="white"/>
<path d="M79.7089 48.325C79.0605 47.3177 78.0469 46.4741 76.857 46.0586C76.857 46.0586 65.9907 41.3747 62.6603 40.21C62.2763 40.0778 61.9175 39.9582 61.5775 39.8574L46.6758 41.0788C46.6695 41.7146 46.7891 42.3379 47.085 42.9423C47.809 45.1017 47.3746 52.499 38.6174 50.9629C38.5355 50.9503 38.4663 50.9377 38.3907 50.9314C37.0749 50.6544 35.6962 50.497 34.2482 50.497C33.839 50.497 33.4298 50.5096 33.0142 50.5348C32.9891 47.7333 33.1339 44.938 33.4486 42.1679L19.3087 43.3326C18.9561 47.3996 18.912 51.5106 19.2205 55.628C12.8493 60.1482 7.8884 67.2371 6.25153 75.22C5.37644 79.4947 5.55902 83.5113 6.61038 87.0243C6.67334 86.1114 6.79296 85.167 6.98812 84.2101C8.8894 74.9367 16.6456 67.4134 24.3074 67.4134C31.9692 67.4134 36.6405 74.9367 34.7392 84.2101C33.2724 91.3619 28.3303 97.4624 22.6328 99.8862C23.1238 99.924 23.6149 99.9429 24.1185 99.9429C32.1392 99.9429 40.1094 95.4982 45.5866 88.7681C44.5793 87.6979 44.0568 85.7148 44.4219 83.335C45.5614 76.6365 46.0336 69.9002 45.8888 63.7053C46.3673 63.7556 46.8457 63.8249 47.3242 63.8878C47.3242 65.7513 47.2675 67.6526 47.1605 69.5854C49.4962 69.7239 51.8319 69.9002 54.1675 70.1079C54.476 67.6463 54.6775 65.2603 54.7782 62.9624C54.1235 62.8302 53.475 62.7105 52.8266 62.5909C54.8978 57.3593 62.1756 49.6786 71.4239 56.906C71.8834 57.29 72.5823 57.3152 73.1048 56.9563C75.2075 55.5209 78.4498 53.1475 78.4498 53.1475C80.0929 52.0772 80.7162 50.0437 79.797 48.4635C79.7719 48.4195 79.7404 48.3691 79.7152 48.325H79.7089Z" fill="white"/>
</svg>
