<svg width="72" height="12" viewBox="0 0 72 12" fill="none" xmlns="http://www.w3.org/2000/svg">
<path d="M1 9.49148C2.43559 9.32255 3.80148 8.79172 5.11013 8.21498C8.81229 6.58339 11.6739 3.97121 14.2758 1C14.278 0.99785 15.2425 2.54945 15.3379 2.67929C16.2614 3.93283 17.4831 4.98732 18.8545 5.75416C24.0524 8.66009 30.7281 6.6458 33.2683 1.43901C33.2683 1.93365 34.1999 3.20761 34.398 3.42891C35.9458 5.15733 37.8257 6.78999 40.0582 7.59735C45.4505 9.54815 52.5771 6.91265 55.263 1.90528C55.3018 2.7387 56.2147 4.09388 56.3068 4.20578C57.7582 5.97438 59.8372 7.36744 62.1101 7.86564C67.5182 9.05175 73.3651 6.42917 75.9168 1.61261C76.3088 2.81344 77.1036 4.03936 77.3259 4.28182C78.9842 6.0913 81.045 7.55395 83.4246 8.29891C89.2803 10.1321 97.3062 6.77939 99.6376 2.74349C99.5448 3.07991 99.7246 3.78972 99.7554 3.84819C100.112 4.51316 100.599 5.10066 101.13 5.63974C102.553 7.08302 104.292 8.23435 106.102 9.15971C111.448 11.8924 119.603 12.0925 123 6.21361" stroke="#BA291C" stroke-miterlimit="1.5" stroke-linecap="round" stroke-linejoin="round"/>
</svg>
